G04 #@! TF.GenerationSoftware,KiCad,Pcbnew,(5.0.0)*
G04 #@! TF.CreationDate,2018-10-21T21:14:25+02:00*
G04 #@! TF.ProjectId,dome disc,646F6D6520646973632E6B696361645F,rev?*
G04 #@! TF.SameCoordinates,Original*
G04 #@! TF.FileFunction,Paste,Top*
G04 #@! TF.FilePolarity,Positive*
%FSLAX46Y46*%
G04 Gerber Fmt 4.6, Leading zero omitted, Abs format (unit mm)*
G04 Created by KiCad (PCBNEW (5.0.0)) date 10/21/18 21:14:25*
%MOMM*%
%LPD*%
G01*
G04 APERTURE LIST*
%ADD10C,0.450000*%
%ADD11C,0.100000*%
%ADD12C,1.000000*%
%ADD13C,1.475000*%
%ADD14C,1.900000*%
%ADD15C,1.175000*%
%ADD16R,0.800000X1.700000*%
%ADD17R,2.200000X3.100000*%
%ADD18C,0.750000*%
%ADD19C,1.400000*%
G04 APERTURE END LIST*
D10*
G04 #@! TO.C,J3*
X98896058Y-104425608D03*
D11*
G36*
X97947851Y-104814875D02*
X99586155Y-103667722D01*
X99844265Y-104036341D01*
X98205961Y-105183494D01*
X97947851Y-104814875D01*
X97947851Y-104814875D01*
G37*
D10*
X100387357Y-106555403D03*
D11*
G36*
X99439150Y-106944670D02*
X101077454Y-105797517D01*
X101335564Y-106166136D01*
X99697260Y-107313289D01*
X99439150Y-106944670D01*
X99439150Y-106944670D01*
G37*
D12*
X97516562Y-103606158D03*
D11*
G36*
X96369664Y-103798837D02*
X98089883Y-102594327D01*
X98663460Y-103413479D01*
X96943241Y-104617989D01*
X96369664Y-103798837D01*
X96369664Y-103798837D01*
G37*
D13*
X100513499Y-107886228D03*
D11*
G36*
X99230377Y-107884359D02*
X100950596Y-106679848D01*
X101796621Y-107888097D01*
X100076402Y-109092608D01*
X99230377Y-107884359D01*
X99230377Y-107884359D01*
G37*
D14*
X95547910Y-104804559D03*
D11*
G36*
X94088594Y-104376714D02*
X95644982Y-103286918D01*
X97007226Y-105232404D01*
X95450838Y-106322200D01*
X94088594Y-104376714D01*
X94088594Y-104376714D01*
G37*
D14*
X98886125Y-109572024D03*
D11*
G36*
X97426809Y-109144179D02*
X98983197Y-108054383D01*
X100345441Y-109999869D01*
X98789053Y-111089665D01*
X97426809Y-109144179D01*
X97426809Y-109144179D01*
G37*
D15*
X96735213Y-106500204D03*
D11*
G36*
X95620042Y-106563850D02*
X97176431Y-105474055D01*
X97850384Y-106436558D01*
X96293995Y-107526353D01*
X95620042Y-106563850D01*
X95620042Y-106563850D01*
G37*
D15*
X97698822Y-107876379D03*
D11*
G36*
X96583651Y-107940025D02*
X98140040Y-106850230D01*
X98813993Y-107812733D01*
X97257604Y-108902528D01*
X96583651Y-107940025D01*
X96583651Y-107940025D01*
G37*
G04 #@! TD*
D16*
G04 #@! TO.C,J2*
X134825000Y-55450000D03*
X133575000Y-55450000D03*
X132325000Y-55450000D03*
X131075000Y-55450000D03*
X129825000Y-55450000D03*
X128575000Y-55450000D03*
D17*
X137325000Y-52550000D03*
X126075000Y-52550000D03*
G04 #@! TD*
D18*
G04 #@! TO.C,C1*
X107544898Y-97878194D03*
D11*
G36*
X106893570Y-97601794D02*
X107507934Y-97171612D01*
X108196226Y-98154594D01*
X107581862Y-98584776D01*
X106893570Y-97601794D01*
X106893570Y-97601794D01*
G37*
D18*
X106455102Y-96321806D03*
D11*
G36*
X105803774Y-96045406D02*
X106418138Y-95615224D01*
X107106430Y-96598206D01*
X106492066Y-97028388D01*
X105803774Y-96045406D01*
X105803774Y-96045406D01*
G37*
G04 #@! TD*
D18*
G04 #@! TO.C,C2*
X106644898Y-72021806D03*
D11*
G36*
X106681862Y-71315224D02*
X107296226Y-71745406D01*
X106607934Y-72728388D01*
X105993570Y-72298206D01*
X106681862Y-71315224D01*
X106681862Y-71315224D01*
G37*
D18*
X105555102Y-73578194D03*
D11*
G36*
X105592066Y-72871612D02*
X106206430Y-73301794D01*
X105518138Y-74284776D01*
X104903774Y-73854594D01*
X105592066Y-72871612D01*
X105592066Y-72871612D01*
G37*
G04 #@! TD*
D18*
G04 #@! TO.C,C3*
X154254122Y-74882370D03*
D11*
G36*
X154771636Y-75364868D02*
X154047191Y-75558983D01*
X153736608Y-74399872D01*
X154461053Y-74205757D01*
X154771636Y-75364868D01*
X154771636Y-75364868D01*
G37*
D18*
X154745878Y-76717630D03*
D11*
G36*
X155263392Y-77200128D02*
X154538947Y-77394243D01*
X154228364Y-76235132D01*
X154952809Y-76041017D01*
X155263392Y-77200128D01*
X155263392Y-77200128D01*
G37*
G04 #@! TD*
D18*
G04 #@! TO.C,C4*
X153575081Y-93992708D03*
D11*
G36*
X153722254Y-94684781D02*
X153017484Y-94428266D01*
X153427908Y-93300635D01*
X154132678Y-93557150D01*
X153722254Y-94684781D01*
X153722254Y-94684781D01*
G37*
D18*
X154224919Y-92207292D03*
D11*
G36*
X154372092Y-92899365D02*
X153667322Y-92642850D01*
X154077746Y-91515219D01*
X154782516Y-91771734D01*
X154372092Y-92899365D01*
X154372092Y-92899365D01*
G37*
G04 #@! TD*
D19*
G04 #@! TO.C,D1*
X103475017Y-96687634D03*
D11*
G36*
X103417829Y-97826374D02*
X102385392Y-96351901D01*
X103532205Y-95548894D01*
X104564642Y-97023367D01*
X103417829Y-97826374D01*
X103417829Y-97826374D01*
G37*
D19*
X100771816Y-98580436D03*
D11*
G36*
X100714628Y-99719176D02*
X99682191Y-98244703D01*
X100829004Y-97441696D01*
X101861441Y-98916169D01*
X100714628Y-99719176D01*
X100714628Y-99719176D01*
G37*
D19*
X103524983Y-102512366D03*
D11*
G36*
X103467795Y-103651106D02*
X102435358Y-102176633D01*
X103582171Y-101373626D01*
X104614608Y-102848099D01*
X103467795Y-103651106D01*
X103467795Y-103651106D01*
G37*
D19*
X106228184Y-100619564D03*
D11*
G36*
X106170996Y-101758304D02*
X105138559Y-100283831D01*
X106285372Y-99480824D01*
X107317809Y-100955297D01*
X106170996Y-101758304D01*
X106170996Y-101758304D01*
G37*
G04 #@! TD*
D19*
G04 #@! TO.C,D2*
X102575017Y-73312366D03*
D11*
G36*
X101485392Y-73648099D02*
X102517829Y-72173626D01*
X103664642Y-72976633D01*
X102632205Y-74451106D01*
X101485392Y-73648099D01*
X101485392Y-73648099D01*
G37*
D19*
X99871816Y-71419564D03*
D11*
G36*
X98782191Y-71755297D02*
X99814628Y-70280824D01*
X100961441Y-71083831D01*
X99929004Y-72558304D01*
X98782191Y-71755297D01*
X98782191Y-71755297D01*
G37*
D19*
X102624983Y-67487634D03*
D11*
G36*
X101535358Y-67823367D02*
X102567795Y-66348894D01*
X103714608Y-67151901D01*
X102682171Y-68626374D01*
X101535358Y-67823367D01*
X101535358Y-67823367D01*
G37*
D19*
X105328184Y-69380436D03*
D11*
G36*
X104238559Y-69716169D02*
X105270996Y-68241696D01*
X106417809Y-69044703D01*
X105385372Y-70519176D01*
X104238559Y-69716169D01*
X104238559Y-69716169D01*
G37*
G04 #@! TD*
D19*
G04 #@! TO.C,D3*
X157127388Y-77545273D03*
D11*
G36*
X157570599Y-76494766D02*
X158036473Y-78233433D01*
X156684177Y-78595780D01*
X156218303Y-76857113D01*
X157570599Y-76494766D01*
X157570599Y-76494766D01*
G37*
D19*
X160314943Y-76691171D03*
D11*
G36*
X160758154Y-75640664D02*
X161224028Y-77379331D01*
X159871732Y-77741678D01*
X159405858Y-76003011D01*
X160758154Y-75640664D01*
X160758154Y-75640664D01*
G37*
D19*
X159072612Y-72054727D03*
D11*
G36*
X159515823Y-71004220D02*
X159981697Y-72742887D01*
X158629401Y-73105234D01*
X158163527Y-71366567D01*
X159515823Y-71004220D01*
X159515823Y-71004220D01*
G37*
D19*
X155885057Y-72908829D03*
D11*
G36*
X156328268Y-71858322D02*
X156794142Y-73596989D01*
X155441846Y-73959336D01*
X154975972Y-72220669D01*
X156328268Y-71858322D01*
X156328268Y-71858322D01*
G37*
G04 #@! TD*
D19*
G04 #@! TO.C,D4*
X156870356Y-91680404D03*
D11*
G36*
X157835959Y-91074095D02*
X157220323Y-92765541D01*
X155904753Y-92286713D01*
X156520389Y-90595267D01*
X157835959Y-91074095D01*
X157835959Y-91074095D01*
G37*
D19*
X159971341Y-92809071D03*
D11*
G36*
X160936944Y-92202762D02*
X160321308Y-93894208D01*
X159005738Y-93415380D01*
X159621374Y-91723934D01*
X160936944Y-92202762D01*
X160936944Y-92202762D01*
G37*
D19*
X158329644Y-97319596D03*
D11*
G36*
X159295247Y-96713287D02*
X158679611Y-98404733D01*
X157364041Y-97925905D01*
X157979677Y-96234459D01*
X159295247Y-96713287D01*
X159295247Y-96713287D01*
G37*
D19*
X155228659Y-96190929D03*
D11*
G36*
X156194262Y-95584620D02*
X155578626Y-97276066D01*
X154263056Y-96797238D01*
X154878692Y-95105792D01*
X156194262Y-95584620D01*
X156194262Y-95584620D01*
G37*
G04 #@! TD*
D17*
G04 #@! TO.C,J1*
X137400000Y-118500000D03*
X126150000Y-118500000D03*
D16*
X134900000Y-115600000D03*
X133650000Y-115600000D03*
X132400000Y-115600000D03*
X131150000Y-115600000D03*
X129900000Y-115600000D03*
X128650000Y-115600000D03*
G04 #@! TD*
M02*
