G04 #@! TF.GenerationSoftware,KiCad,Pcbnew,(5.0.0)*
G04 #@! TF.CreationDate,2018-10-21T21:14:25+02:00*
G04 #@! TF.ProjectId,dome disc,646F6D6520646973632E6B696361645F,rev?*
G04 #@! TF.SameCoordinates,Original*
G04 #@! TF.FileFunction,Copper,L1,Top,Signal*
G04 #@! TF.FilePolarity,Positive*
%FSLAX46Y46*%
G04 Gerber Fmt 4.6, Leading zero omitted, Abs format (unit mm)*
G04 Created by KiCad (PCBNEW (5.0.0)) date 10/21/18 21:14:25*
%MOMM*%
%LPD*%
G01*
G04 APERTURE LIST*
G04 #@! TA.AperFunction,EtchedComponent*
%ADD10C,0.150000*%
G04 #@! TD*
G04 #@! TA.AperFunction,SMDPad,CuDef*
%ADD11R,2.000000X2.000000*%
G04 #@! TD*
G04 #@! TA.AperFunction,SMDPad,CuDef*
%ADD12C,0.450000*%
G04 #@! TD*
G04 #@! TA.AperFunction,Conductor*
%ADD13C,0.100000*%
G04 #@! TD*
G04 #@! TA.AperFunction,SMDPad,CuDef*
%ADD14C,1.000000*%
G04 #@! TD*
G04 #@! TA.AperFunction,SMDPad,CuDef*
%ADD15C,1.475000*%
G04 #@! TD*
G04 #@! TA.AperFunction,SMDPad,CuDef*
%ADD16C,1.900000*%
G04 #@! TD*
G04 #@! TA.AperFunction,SMDPad,CuDef*
%ADD17C,1.175000*%
G04 #@! TD*
G04 #@! TA.AperFunction,SMDPad,CuDef*
%ADD18R,0.800000X1.700000*%
G04 #@! TD*
G04 #@! TA.AperFunction,SMDPad,CuDef*
%ADD19R,2.200000X3.100000*%
G04 #@! TD*
G04 #@! TA.AperFunction,SMDPad,CuDef*
%ADD20C,0.600000*%
G04 #@! TD*
G04 #@! TA.AperFunction,SMDPad,CuDef*
%ADD21C,0.750000*%
G04 #@! TD*
G04 #@! TA.AperFunction,SMDPad,CuDef*
%ADD22C,1.400000*%
G04 #@! TD*
G04 #@! TA.AperFunction,Conductor*
%ADD23C,0.250000*%
G04 #@! TD*
G04 #@! TA.AperFunction,Conductor*
%ADD24C,0.254000*%
G04 #@! TD*
G04 APERTURE END LIST*
D10*
G04 #@! TO.C,JP1*
X146139600Y-104346000D02*
X147460400Y-104346000D01*
X147460400Y-104346000D02*
X147460400Y-104244400D01*
X147460400Y-104244400D02*
X146139600Y-104244400D01*
X146139600Y-104244400D02*
X146139600Y-104142800D01*
X146139600Y-104142800D02*
X147409600Y-104142800D01*
X147409600Y-104142800D02*
X147409600Y-104041200D01*
X147409600Y-104041200D02*
X146241200Y-104041200D01*
X146241200Y-104041200D02*
X146292000Y-103939600D01*
X146292000Y-103939600D02*
X147257200Y-103939600D01*
X147257200Y-103939600D02*
X147155600Y-103838000D01*
X147155600Y-103838000D02*
X146444400Y-103838000D01*
X146444400Y-103838000D02*
X146495200Y-103787200D01*
X146495200Y-103787200D02*
X147054000Y-103787200D01*
X147409600Y-105057200D02*
X147409600Y-105158800D01*
X147409600Y-105158800D02*
X146292000Y-105158800D01*
X146292000Y-105158800D02*
X146292000Y-105260400D01*
X146292000Y-105260400D02*
X147257200Y-105260400D01*
X147257200Y-105260400D02*
X147257200Y-105311200D01*
X147257200Y-105311200D02*
X146393600Y-105311200D01*
X146393600Y-105311200D02*
X146393600Y-105362000D01*
X146393600Y-105362000D02*
X147104800Y-105362000D01*
X147104800Y-105362000D02*
X147104800Y-105412800D01*
X147104800Y-105412800D02*
X146546000Y-105412800D01*
X146088800Y-104854000D02*
X147460400Y-104854000D01*
X147460400Y-104854000D02*
X147460400Y-104955600D01*
X147460400Y-104955600D02*
X146139600Y-104955600D01*
X146139600Y-104955600D02*
X146139600Y-105057200D01*
X146139600Y-105057200D02*
X147409600Y-105057200D01*
X147409600Y-105057200D02*
X147409600Y-105108000D01*
X146038000Y-104752400D02*
X147562000Y-104752400D01*
X146038000Y-104447600D02*
X147562000Y-104447600D01*
X147562000Y-104447600D02*
G75*
G03X146800000Y-103685600I-762000J0D01*
G01*
X146800000Y-103685600D02*
G75*
G03X146038000Y-104447600I0J-762000D01*
G01*
X146038000Y-104752400D02*
G75*
G03X146800000Y-105514400I762000J0D01*
G01*
X146800000Y-105514400D02*
G75*
G03X147562000Y-104752400I0J762000D01*
G01*
G04 #@! TD*
D11*
G04 #@! TO.P,J4,1*
G04 #@! TO.N,GND*
X134500000Y-122200000D03*
G04 #@! TO.P,J4,2*
G04 #@! TO.N,VCC*
X131960000Y-122200000D03*
G04 #@! TO.P,J4,3*
G04 #@! TO.N,DIN*
X129420000Y-122200000D03*
G04 #@! TD*
G04 #@! TO.P,J5,3*
G04 #@! TO.N,DOUT*
X129220000Y-47600000D03*
G04 #@! TO.P,J5,2*
G04 #@! TO.N,VCC*
X131760000Y-47600000D03*
G04 #@! TO.P,J5,1*
G04 #@! TO.N,GND*
X134300000Y-47600000D03*
G04 #@! TD*
D12*
G04 #@! TO.P,J3,1*
G04 #@! TO.N,VCC*
X98896058Y-104425608D03*
D13*
G04 #@! TD*
G04 #@! TO.N,VCC*
G04 #@! TO.C,J3*
G36*
X97947851Y-104814875D02*
X99586155Y-103667722D01*
X99844265Y-104036341D01*
X98205961Y-105183494D01*
X97947851Y-104814875D01*
X97947851Y-104814875D01*
G37*
D12*
G04 #@! TO.P,J3,5*
G04 #@! TO.N,GND*
X100387357Y-106555403D03*
D13*
G04 #@! TD*
G04 #@! TO.N,GND*
G04 #@! TO.C,J3*
G36*
X99439150Y-106944670D02*
X101077454Y-105797517D01*
X101335564Y-106166136D01*
X99697260Y-107313289D01*
X99439150Y-106944670D01*
X99439150Y-106944670D01*
G37*
D14*
G04 #@! TO.P,J3,6*
G04 #@! TO.N,GND*
X97516562Y-103606158D03*
D13*
G04 #@! TD*
G04 #@! TO.N,GND*
G04 #@! TO.C,J3*
G36*
X96369664Y-103798837D02*
X98089883Y-102594327D01*
X98663460Y-103413479D01*
X96943241Y-104617989D01*
X96369664Y-103798837D01*
X96369664Y-103798837D01*
G37*
D15*
G04 #@! TO.P,J3,6*
G04 #@! TO.N,GND*
X100513499Y-107886228D03*
D13*
G04 #@! TD*
G04 #@! TO.N,GND*
G04 #@! TO.C,J3*
G36*
X99230377Y-107884359D02*
X100950596Y-106679848D01*
X101796621Y-107888097D01*
X100076402Y-109092608D01*
X99230377Y-107884359D01*
X99230377Y-107884359D01*
G37*
D16*
G04 #@! TO.P,J3,6*
G04 #@! TO.N,GND*
X95547910Y-104804559D03*
D13*
G04 #@! TD*
G04 #@! TO.N,GND*
G04 #@! TO.C,J3*
G36*
X94088594Y-104376714D02*
X95644982Y-103286918D01*
X97007226Y-105232404D01*
X95450838Y-106322200D01*
X94088594Y-104376714D01*
X94088594Y-104376714D01*
G37*
D16*
G04 #@! TO.P,J3,6*
G04 #@! TO.N,GND*
X98886125Y-109572024D03*
D13*
G04 #@! TD*
G04 #@! TO.N,GND*
G04 #@! TO.C,J3*
G36*
X97426809Y-109144179D02*
X98983197Y-108054383D01*
X100345441Y-109999869D01*
X98789053Y-111089665D01*
X97426809Y-109144179D01*
X97426809Y-109144179D01*
G37*
D17*
G04 #@! TO.P,J3,6*
G04 #@! TO.N,GND*
X96735213Y-106500204D03*
D13*
G04 #@! TD*
G04 #@! TO.N,GND*
G04 #@! TO.C,J3*
G36*
X95620042Y-106563850D02*
X97176431Y-105474055D01*
X97850384Y-106436558D01*
X96293995Y-107526353D01*
X95620042Y-106563850D01*
X95620042Y-106563850D01*
G37*
D17*
G04 #@! TO.P,J3,6*
G04 #@! TO.N,GND*
X97698822Y-107876379D03*
D13*
G04 #@! TD*
G04 #@! TO.N,GND*
G04 #@! TO.C,J3*
G36*
X96583651Y-107940025D02*
X98140040Y-106850230D01*
X98813993Y-107812733D01*
X97257604Y-108902528D01*
X96583651Y-107940025D01*
X96583651Y-107940025D01*
G37*
D18*
G04 #@! TO.P,J2,1*
G04 #@! TO.N,GND*
X134825000Y-55450000D03*
G04 #@! TO.P,J2,2*
G04 #@! TO.N,VCC*
X133575000Y-55450000D03*
G04 #@! TO.P,J2,3*
G04 #@! TO.N,DOUT*
X132325000Y-55450000D03*
G04 #@! TO.P,J2,4*
X131075000Y-55450000D03*
G04 #@! TO.P,J2,5*
G04 #@! TO.N,VCC*
X129825000Y-55450000D03*
G04 #@! TO.P,J2,6*
G04 #@! TO.N,GND*
X128575000Y-55450000D03*
D19*
G04 #@! TO.P,J2,*
G04 #@! TO.N,*
X137325000Y-52550000D03*
X126075000Y-52550000D03*
G04 #@! TD*
D20*
G04 #@! TO.P,JP1,2*
G04 #@! TO.N,DOUT*
X146800000Y-104100000D03*
D13*
G04 #@! TD*
G04 #@! TO.N,DOUT*
G04 #@! TO.C,JP1*
G36*
X147350000Y-104400000D02*
X146250000Y-104400000D01*
X146350000Y-103800000D01*
X147250000Y-103800000D01*
X147350000Y-104400000D01*
X147350000Y-104400000D01*
G37*
D20*
G04 #@! TO.P,JP1,1*
G04 #@! TO.N,DIN*
X146800000Y-105100000D03*
D13*
G04 #@! TD*
G04 #@! TO.N,DIN*
G04 #@! TO.C,JP1*
G36*
X146250000Y-104800000D02*
X147350000Y-104800000D01*
X147250000Y-105400000D01*
X146350000Y-105400000D01*
X146250000Y-104800000D01*
X146250000Y-104800000D01*
G37*
D21*
G04 #@! TO.P,C1,2*
G04 #@! TO.N,GND*
X107544898Y-97878194D03*
D13*
G04 #@! TD*
G04 #@! TO.N,GND*
G04 #@! TO.C,C1*
G36*
X106893570Y-97601794D02*
X107507934Y-97171612D01*
X108196226Y-98154594D01*
X107581862Y-98584776D01*
X106893570Y-97601794D01*
X106893570Y-97601794D01*
G37*
D21*
G04 #@! TO.P,C1,1*
G04 #@! TO.N,VCC*
X106455102Y-96321806D03*
D13*
G04 #@! TD*
G04 #@! TO.N,VCC*
G04 #@! TO.C,C1*
G36*
X105803774Y-96045406D02*
X106418138Y-95615224D01*
X107106430Y-96598206D01*
X106492066Y-97028388D01*
X105803774Y-96045406D01*
X105803774Y-96045406D01*
G37*
D21*
G04 #@! TO.P,C2,1*
G04 #@! TO.N,VCC*
X106644898Y-72021806D03*
D13*
G04 #@! TD*
G04 #@! TO.N,VCC*
G04 #@! TO.C,C2*
G36*
X106681862Y-71315224D02*
X107296226Y-71745406D01*
X106607934Y-72728388D01*
X105993570Y-72298206D01*
X106681862Y-71315224D01*
X106681862Y-71315224D01*
G37*
D21*
G04 #@! TO.P,C2,2*
G04 #@! TO.N,GND*
X105555102Y-73578194D03*
D13*
G04 #@! TD*
G04 #@! TO.N,GND*
G04 #@! TO.C,C2*
G36*
X105592066Y-72871612D02*
X106206430Y-73301794D01*
X105518138Y-74284776D01*
X104903774Y-73854594D01*
X105592066Y-72871612D01*
X105592066Y-72871612D01*
G37*
D21*
G04 #@! TO.P,C3,2*
G04 #@! TO.N,GND*
X154254122Y-74882370D03*
D13*
G04 #@! TD*
G04 #@! TO.N,GND*
G04 #@! TO.C,C3*
G36*
X154771636Y-75364868D02*
X154047191Y-75558983D01*
X153736608Y-74399872D01*
X154461053Y-74205757D01*
X154771636Y-75364868D01*
X154771636Y-75364868D01*
G37*
D21*
G04 #@! TO.P,C3,1*
G04 #@! TO.N,VCC*
X154745878Y-76717630D03*
D13*
G04 #@! TD*
G04 #@! TO.N,VCC*
G04 #@! TO.C,C3*
G36*
X155263392Y-77200128D02*
X154538947Y-77394243D01*
X154228364Y-76235132D01*
X154952809Y-76041017D01*
X155263392Y-77200128D01*
X155263392Y-77200128D01*
G37*
D21*
G04 #@! TO.P,C4,1*
G04 #@! TO.N,VCC*
X153575081Y-93992708D03*
D13*
G04 #@! TD*
G04 #@! TO.N,VCC*
G04 #@! TO.C,C4*
G36*
X153722254Y-94684781D02*
X153017484Y-94428266D01*
X153427908Y-93300635D01*
X154132678Y-93557150D01*
X153722254Y-94684781D01*
X153722254Y-94684781D01*
G37*
D21*
G04 #@! TO.P,C4,2*
G04 #@! TO.N,GND*
X154224919Y-92207292D03*
D13*
G04 #@! TD*
G04 #@! TO.N,GND*
G04 #@! TO.C,C4*
G36*
X154372092Y-92899365D02*
X153667322Y-92642850D01*
X154077746Y-91515219D01*
X154782516Y-91771734D01*
X154372092Y-92899365D01*
X154372092Y-92899365D01*
G37*
D22*
G04 #@! TO.P,D1,1*
G04 #@! TO.N,VCC*
X103475017Y-96687634D03*
D13*
G04 #@! TD*
G04 #@! TO.N,VCC*
G04 #@! TO.C,D1*
G36*
X103417829Y-97826374D02*
X102385392Y-96351901D01*
X103532205Y-95548894D01*
X104564642Y-97023367D01*
X103417829Y-97826374D01*
X103417829Y-97826374D01*
G37*
D22*
G04 #@! TO.P,D1,2*
G04 #@! TO.N,Net-(D1-Pad2)*
X100771816Y-98580436D03*
D13*
G04 #@! TD*
G04 #@! TO.N,Net-(D1-Pad2)*
G04 #@! TO.C,D1*
G36*
X100714628Y-99719176D02*
X99682191Y-98244703D01*
X100829004Y-97441696D01*
X101861441Y-98916169D01*
X100714628Y-99719176D01*
X100714628Y-99719176D01*
G37*
D22*
G04 #@! TO.P,D1,3*
G04 #@! TO.N,GND*
X103524983Y-102512366D03*
D13*
G04 #@! TD*
G04 #@! TO.N,GND*
G04 #@! TO.C,D1*
G36*
X103467795Y-103651106D02*
X102435358Y-102176633D01*
X103582171Y-101373626D01*
X104614608Y-102848099D01*
X103467795Y-103651106D01*
X103467795Y-103651106D01*
G37*
D22*
G04 #@! TO.P,D1,4*
G04 #@! TO.N,DIN*
X106228184Y-100619564D03*
D13*
G04 #@! TD*
G04 #@! TO.N,DIN*
G04 #@! TO.C,D1*
G36*
X106170996Y-101758304D02*
X105138559Y-100283831D01*
X106285372Y-99480824D01*
X107317809Y-100955297D01*
X106170996Y-101758304D01*
X106170996Y-101758304D01*
G37*
D22*
G04 #@! TO.P,D2,4*
G04 #@! TO.N,Net-(D1-Pad2)*
X102575017Y-73312366D03*
D13*
G04 #@! TD*
G04 #@! TO.N,Net-(D1-Pad2)*
G04 #@! TO.C,D2*
G36*
X101485392Y-73648099D02*
X102517829Y-72173626D01*
X103664642Y-72976633D01*
X102632205Y-74451106D01*
X101485392Y-73648099D01*
X101485392Y-73648099D01*
G37*
D22*
G04 #@! TO.P,D2,3*
G04 #@! TO.N,GND*
X99871816Y-71419564D03*
D13*
G04 #@! TD*
G04 #@! TO.N,GND*
G04 #@! TO.C,D2*
G36*
X98782191Y-71755297D02*
X99814628Y-70280824D01*
X100961441Y-71083831D01*
X99929004Y-72558304D01*
X98782191Y-71755297D01*
X98782191Y-71755297D01*
G37*
D22*
G04 #@! TO.P,D2,2*
G04 #@! TO.N,Net-(D2-Pad2)*
X102624983Y-67487634D03*
D13*
G04 #@! TD*
G04 #@! TO.N,Net-(D2-Pad2)*
G04 #@! TO.C,D2*
G36*
X101535358Y-67823367D02*
X102567795Y-66348894D01*
X103714608Y-67151901D01*
X102682171Y-68626374D01*
X101535358Y-67823367D01*
X101535358Y-67823367D01*
G37*
D22*
G04 #@! TO.P,D2,1*
G04 #@! TO.N,VCC*
X105328184Y-69380436D03*
D13*
G04 #@! TD*
G04 #@! TO.N,VCC*
G04 #@! TO.C,D2*
G36*
X104238559Y-69716169D02*
X105270996Y-68241696D01*
X106417809Y-69044703D01*
X105385372Y-70519176D01*
X104238559Y-69716169D01*
X104238559Y-69716169D01*
G37*
D22*
G04 #@! TO.P,D3,1*
G04 #@! TO.N,VCC*
X157127388Y-77545273D03*
D13*
G04 #@! TD*
G04 #@! TO.N,VCC*
G04 #@! TO.C,D3*
G36*
X157570599Y-76494766D02*
X158036473Y-78233433D01*
X156684177Y-78595780D01*
X156218303Y-76857113D01*
X157570599Y-76494766D01*
X157570599Y-76494766D01*
G37*
D22*
G04 #@! TO.P,D3,2*
G04 #@! TO.N,Net-(D3-Pad2)*
X160314943Y-76691171D03*
D13*
G04 #@! TD*
G04 #@! TO.N,Net-(D3-Pad2)*
G04 #@! TO.C,D3*
G36*
X160758154Y-75640664D02*
X161224028Y-77379331D01*
X159871732Y-77741678D01*
X159405858Y-76003011D01*
X160758154Y-75640664D01*
X160758154Y-75640664D01*
G37*
D22*
G04 #@! TO.P,D3,3*
G04 #@! TO.N,GND*
X159072612Y-72054727D03*
D13*
G04 #@! TD*
G04 #@! TO.N,GND*
G04 #@! TO.C,D3*
G36*
X159515823Y-71004220D02*
X159981697Y-72742887D01*
X158629401Y-73105234D01*
X158163527Y-71366567D01*
X159515823Y-71004220D01*
X159515823Y-71004220D01*
G37*
D22*
G04 #@! TO.P,D3,4*
G04 #@! TO.N,Net-(D2-Pad2)*
X155885057Y-72908829D03*
D13*
G04 #@! TD*
G04 #@! TO.N,Net-(D2-Pad2)*
G04 #@! TO.C,D3*
G36*
X156328268Y-71858322D02*
X156794142Y-73596989D01*
X155441846Y-73959336D01*
X154975972Y-72220669D01*
X156328268Y-71858322D01*
X156328268Y-71858322D01*
G37*
D22*
G04 #@! TO.P,D4,4*
G04 #@! TO.N,Net-(D3-Pad2)*
X156870356Y-91680404D03*
D13*
G04 #@! TD*
G04 #@! TO.N,Net-(D3-Pad2)*
G04 #@! TO.C,D4*
G36*
X157835959Y-91074095D02*
X157220323Y-92765541D01*
X155904753Y-92286713D01*
X156520389Y-90595267D01*
X157835959Y-91074095D01*
X157835959Y-91074095D01*
G37*
D22*
G04 #@! TO.P,D4,3*
G04 #@! TO.N,GND*
X159971341Y-92809071D03*
D13*
G04 #@! TD*
G04 #@! TO.N,GND*
G04 #@! TO.C,D4*
G36*
X160936944Y-92202762D02*
X160321308Y-93894208D01*
X159005738Y-93415380D01*
X159621374Y-91723934D01*
X160936944Y-92202762D01*
X160936944Y-92202762D01*
G37*
D22*
G04 #@! TO.P,D4,2*
G04 #@! TO.N,DOUT*
X158329644Y-97319596D03*
D13*
G04 #@! TD*
G04 #@! TO.N,DOUT*
G04 #@! TO.C,D4*
G36*
X159295247Y-96713287D02*
X158679611Y-98404733D01*
X157364041Y-97925905D01*
X157979677Y-96234459D01*
X159295247Y-96713287D01*
X159295247Y-96713287D01*
G37*
D22*
G04 #@! TO.P,D4,1*
G04 #@! TO.N,VCC*
X155228659Y-96190929D03*
D13*
G04 #@! TD*
G04 #@! TO.N,VCC*
G04 #@! TO.C,D4*
G36*
X156194262Y-95584620D02*
X155578626Y-97276066D01*
X154263056Y-96797238D01*
X154878692Y-95105792D01*
X156194262Y-95584620D01*
X156194262Y-95584620D01*
G37*
D19*
G04 #@! TO.P,J1,*
G04 #@! TO.N,*
X137400000Y-118500000D03*
X126150000Y-118500000D03*
D18*
G04 #@! TO.P,J1,6*
G04 #@! TO.N,GND*
X134900000Y-115600000D03*
G04 #@! TO.P,J1,5*
G04 #@! TO.N,VCC*
X133650000Y-115600000D03*
G04 #@! TO.P,J1,4*
G04 #@! TO.N,DIN*
X132400000Y-115600000D03*
G04 #@! TO.P,J1,3*
X131150000Y-115600000D03*
G04 #@! TO.P,J1,2*
G04 #@! TO.N,VCC*
X129900000Y-115600000D03*
G04 #@! TO.P,J1,1*
G04 #@! TO.N,GND*
X128650000Y-115600000D03*
G04 #@! TD*
D23*
G04 #@! TO.N,Net-(D1-Pad2)*
X101858094Y-74029289D02*
X102575017Y-73312366D01*
X98500000Y-77387383D02*
X101858094Y-74029289D01*
X100771816Y-98580436D02*
X98500000Y-96308620D01*
X98500000Y-96308620D02*
X98500000Y-77387383D01*
G04 #@! TO.N,Net-(D2-Pad2)*
X149500000Y-65600000D02*
X141500000Y-57600000D01*
X141500000Y-57600000D02*
X125200000Y-57600000D01*
X150400000Y-65600000D02*
X149500000Y-65600000D01*
X150400000Y-65700000D02*
X150400000Y-65600000D01*
X125200000Y-57600000D02*
X124300000Y-56700000D01*
X155885057Y-71185057D02*
X150400000Y-65700000D01*
X155885057Y-72908829D02*
X155885057Y-71185057D01*
X116200000Y-56700000D02*
X110800000Y-62100000D01*
X124300000Y-56700000D02*
X116200000Y-56700000D01*
X110800000Y-62100000D02*
X108012617Y-62100000D01*
X108012617Y-62100000D02*
X102624983Y-67487634D01*
G04 #@! TO.N,Net-(D3-Pad2)*
X156870356Y-89866054D02*
X156870356Y-91680404D01*
X159000000Y-87736410D02*
X156870356Y-89866054D01*
X159000000Y-79600000D02*
X159000000Y-87736410D01*
X159672686Y-78927314D02*
X159000000Y-79600000D01*
X160314943Y-76691171D02*
X159672686Y-77333428D01*
X159672686Y-77333428D02*
X159672686Y-78927314D01*
G04 #@! TO.N,GND*
X100141611Y-107514340D02*
X100513499Y-107886228D01*
X100141611Y-106727476D02*
X100141611Y-107514340D01*
X130508457Y-45546461D02*
X128498184Y-45514562D01*
X133011804Y-45745476D02*
X130508457Y-45546461D01*
X133810279Y-45860279D02*
X133011804Y-45745476D01*
X134300000Y-47600000D02*
X134300000Y-46350000D01*
X134300000Y-46350000D02*
X133810279Y-45860279D01*
X127830753Y-45514562D02*
X127783172Y-45516828D01*
X127830753Y-45514562D02*
X127468167Y-45531833D01*
X128000000Y-45514562D02*
X127830753Y-45514562D01*
X128498184Y-45514562D02*
X128000000Y-45514562D01*
X127468167Y-45531833D02*
X126700000Y-46300000D01*
X134500000Y-123450000D02*
X134500000Y-122200000D01*
X133850000Y-124100000D02*
X134500000Y-123450000D01*
X125811652Y-124211652D02*
X125923304Y-124100000D01*
X125923304Y-124100000D02*
X133850000Y-124100000D01*
G04 #@! TO.N,DIN*
X146800000Y-106900000D02*
X146800000Y-105100000D01*
X140000000Y-113700000D02*
X146800000Y-106900000D01*
X131075000Y-114550000D02*
X131925000Y-113700000D01*
X131925000Y-113700000D02*
X140000000Y-113700000D01*
G04 #@! TO.N,VCC*
X98687484Y-104597681D02*
X98650313Y-104597681D01*
X103840845Y-96321806D02*
X103475017Y-96687634D01*
X106455102Y-96321806D02*
X103840845Y-96321806D01*
X103475017Y-100024983D02*
X103475017Y-96687634D01*
X106644898Y-70697150D02*
X105328184Y-69380436D01*
X106644898Y-72021806D02*
X106644898Y-70697150D01*
X155228659Y-95646286D02*
X155228659Y-96190929D01*
X153575081Y-93992708D02*
X155228659Y-95646286D01*
X156299745Y-76717630D02*
X157127388Y-77545273D01*
X154745878Y-76717630D02*
X156299745Y-76717630D01*
X103475017Y-96687634D02*
X100534577Y-96687634D01*
X100534577Y-96687634D02*
X99000000Y-95153057D01*
X105978194Y-72021806D02*
X106644898Y-72021806D01*
X99000000Y-95153057D02*
X99000000Y-77523793D01*
X101623793Y-74900000D02*
X103100000Y-74900000D01*
X99000000Y-77523793D02*
X101623793Y-74900000D01*
X103100000Y-74900000D02*
X105978194Y-72021806D01*
X150900000Y-64600000D02*
X149900000Y-64600000D01*
X154745878Y-76717630D02*
X155282370Y-76717630D01*
X155282370Y-76717630D02*
X157900000Y-74100000D01*
X157900000Y-74100000D02*
X157900000Y-72835467D01*
X157900000Y-72835467D02*
X157569161Y-72504628D01*
X157569161Y-72504628D02*
X157569161Y-71269161D01*
X157569161Y-71269161D02*
X150900000Y-64600000D01*
X100400000Y-103100000D02*
X103475017Y-100024983D01*
X99921666Y-103400000D02*
X98896058Y-104425608D01*
X100400000Y-103400000D02*
X99921666Y-103400000D01*
X100400000Y-103100000D02*
X100400000Y-103400000D01*
X155579743Y-90520257D02*
X154579743Y-90520257D01*
X158499999Y-87600001D02*
X155579743Y-90520257D01*
X158499999Y-78917884D02*
X158499999Y-87600001D01*
X157127388Y-77545273D02*
X158499999Y-78917884D01*
X158000000Y-95754500D02*
X158796094Y-95754500D01*
X133650001Y-56625001D02*
X135485001Y-56625001D01*
X133575000Y-56550000D02*
X133650001Y-56625001D01*
X133575000Y-55450000D02*
X133575000Y-56550000D01*
X141925001Y-56625001D02*
X142000000Y-56700000D01*
X135485001Y-56625001D02*
X141925001Y-56625001D01*
X149900000Y-64600000D02*
X142000000Y-56700000D01*
X158796094Y-95754500D02*
X159100000Y-96058406D01*
X133650000Y-114500000D02*
X133650000Y-115600000D01*
X140136411Y-114200000D02*
X133950000Y-114200000D01*
X149636411Y-104700000D02*
X140136411Y-114200000D01*
X159800000Y-96758406D02*
X159800000Y-98000000D01*
X159100000Y-96058406D02*
X159800000Y-96758406D01*
X159800000Y-98000000D02*
X158300000Y-99500000D01*
X158300000Y-99500000D02*
X156600000Y-99500000D01*
X156600000Y-99500000D02*
X151400000Y-104700000D01*
X133950000Y-114200000D02*
X133650000Y-114500000D01*
X151400000Y-104700000D02*
X149636411Y-104700000D01*
X157563571Y-96190929D02*
X155228659Y-96190929D01*
X158000000Y-95754500D02*
X157563571Y-96190929D01*
X153211794Y-91911794D02*
X153200000Y-91900000D01*
X153211794Y-93629421D02*
X153211794Y-91911794D01*
X153575081Y-93992708D02*
X153211794Y-93629421D01*
X154579743Y-90520257D02*
X153200000Y-91900000D01*
X129900000Y-114500000D02*
X129900000Y-115600000D01*
X129250010Y-113850010D02*
X129900000Y-114500000D01*
X126775010Y-113850010D02*
X129250010Y-113850010D01*
X100400000Y-103400000D02*
X100400000Y-103800000D01*
X100400000Y-103800000D02*
X101000000Y-104400000D01*
X101000000Y-104400000D02*
X106400000Y-104400000D01*
X106400000Y-104400000D02*
X115700000Y-113700000D01*
X115700000Y-113700000D02*
X126625000Y-113700000D01*
X126625000Y-113700000D02*
X126775010Y-113850010D01*
X133650000Y-115600000D02*
X133650000Y-117650000D01*
X133650000Y-119260000D02*
X133650000Y-117650000D01*
X131960000Y-120950000D02*
X133650000Y-119260000D01*
X131960000Y-122200000D02*
X131960000Y-120950000D01*
X133575000Y-49415000D02*
X131760000Y-47600000D01*
X133575000Y-55450000D02*
X133575000Y-49415000D01*
X129825000Y-50790002D02*
X129825000Y-55450000D01*
X127894999Y-48860001D02*
X129825000Y-50790002D01*
X127894999Y-46339999D02*
X127894999Y-48860001D01*
X128129997Y-46105001D02*
X127894999Y-46339999D01*
X131515001Y-46105001D02*
X128129997Y-46105001D01*
X131760000Y-46350000D02*
X131515001Y-46105001D01*
X131760000Y-47600000D02*
X131760000Y-46350000D01*
X131960000Y-123450000D02*
X131960000Y-122200000D01*
X129900000Y-118800000D02*
X127900000Y-120800000D01*
X129900000Y-115600000D02*
X129900000Y-118800000D01*
X127900000Y-120800000D02*
X127900000Y-123265002D01*
X127900000Y-123265002D02*
X128159999Y-123525001D01*
X128159999Y-123525001D02*
X131884999Y-123525001D01*
X131884999Y-123525001D02*
X131960000Y-123450000D01*
G04 #@! TO.N,DIN*
X131075000Y-115525000D02*
X131150000Y-115600000D01*
X131075000Y-114550000D02*
X131075000Y-115525000D01*
X131150000Y-115600000D02*
X132400000Y-115600000D01*
X106228184Y-103528184D02*
X106228184Y-100619564D01*
X115900000Y-113200000D02*
X106228184Y-103528184D01*
X126800000Y-113200000D02*
X115900000Y-113200000D01*
X127000000Y-113400000D02*
X126800000Y-113200000D01*
X131075000Y-114550000D02*
X129925000Y-113400000D01*
X129925000Y-113400000D02*
X127000000Y-113400000D01*
X131150000Y-116700000D02*
X131150000Y-115600000D01*
X131150000Y-119220000D02*
X131150000Y-116700000D01*
X129420000Y-120950000D02*
X131150000Y-119220000D01*
X129420000Y-122200000D02*
X129420000Y-120950000D01*
G04 #@! TO.N,DOUT*
X155500000Y-98700000D02*
X156500000Y-98700000D01*
X158006999Y-98700000D02*
X156500000Y-98700000D01*
X158329644Y-98377355D02*
X158006999Y-98700000D01*
X158329644Y-97319596D02*
X158329644Y-98377355D01*
X132325000Y-55450000D02*
X131075000Y-55450000D01*
X155500000Y-99800000D02*
X155500000Y-98700000D01*
X146800000Y-104100000D02*
X151200000Y-104100000D01*
X151200000Y-104100000D02*
X155500000Y-99800000D01*
X132325000Y-56550000D02*
X132325000Y-55450000D01*
X132924989Y-57149989D02*
X132325000Y-56550000D01*
X141686400Y-57149989D02*
X132924989Y-57149989D01*
X149636411Y-65100000D02*
X141686400Y-57149989D01*
X150600000Y-65100000D02*
X149636411Y-65100000D01*
X157119152Y-71619152D02*
X150600000Y-65100000D01*
X155134759Y-75716007D02*
X157119152Y-73731614D01*
X154300000Y-89900000D02*
X155400000Y-89900000D01*
X157119152Y-73731614D02*
X157119152Y-71619152D01*
X152600000Y-91600000D02*
X154300000Y-89900000D01*
X155500000Y-98700000D02*
X155500000Y-98100000D01*
X154856306Y-78171237D02*
X153900000Y-77214931D01*
X152600000Y-95900000D02*
X152600000Y-91600000D01*
X154800000Y-98100000D02*
X152600000Y-95900000D01*
X155500000Y-98100000D02*
X154800000Y-98100000D01*
X155400000Y-89900000D02*
X158049990Y-87250010D01*
X158049990Y-87250010D02*
X158049990Y-79549990D01*
X158049990Y-79549990D02*
X157178753Y-79549990D01*
X157178753Y-79549990D02*
X155800000Y-78171237D01*
X153900000Y-77214931D02*
X153900000Y-76103861D01*
X155800000Y-78171237D02*
X154856306Y-78171237D01*
X153900000Y-76103861D02*
X154119868Y-75883993D01*
X154119868Y-75883993D02*
X154880132Y-75716007D01*
X154880132Y-75716007D02*
X155134759Y-75716007D01*
X131075000Y-54350000D02*
X131075000Y-55450000D01*
X131075000Y-50705000D02*
X131075000Y-54350000D01*
X129220000Y-48850000D02*
X131075000Y-50705000D01*
X129220000Y-47600000D02*
X129220000Y-48850000D01*
G04 #@! TD*
D24*
G04 #@! TO.N,GND*
G36*
X127260025Y-45915723D02*
X127195056Y-46037270D01*
X127189453Y-46047753D01*
X127145996Y-46191014D01*
X127134999Y-46302667D01*
X127134999Y-46302677D01*
X127131323Y-46339999D01*
X127134999Y-46377322D01*
X127135000Y-48822669D01*
X127131323Y-48860001D01*
X127145997Y-49008986D01*
X127189453Y-49152247D01*
X127260025Y-49284277D01*
X127324250Y-49362534D01*
X127354999Y-49400002D01*
X127383997Y-49423800D01*
X129065000Y-51104804D01*
X129065001Y-53970462D01*
X129037542Y-53965000D01*
X128860750Y-53965000D01*
X128702000Y-54123750D01*
X128702000Y-55323000D01*
X128722000Y-55323000D01*
X128722000Y-55577000D01*
X128702000Y-55577000D01*
X128702000Y-55597000D01*
X128448000Y-55597000D01*
X128448000Y-55577000D01*
X127698750Y-55577000D01*
X127540000Y-55735750D01*
X127540000Y-56362542D01*
X127564403Y-56485223D01*
X127612270Y-56600785D01*
X127681763Y-56704789D01*
X127770211Y-56793237D01*
X127840197Y-56840000D01*
X125514802Y-56840000D01*
X124863803Y-56189002D01*
X124840001Y-56159999D01*
X124724276Y-56065026D01*
X124592247Y-55994454D01*
X124448986Y-55950997D01*
X124337333Y-55940000D01*
X124337322Y-55940000D01*
X124300000Y-55936324D01*
X124262678Y-55940000D01*
X116237322Y-55940000D01*
X116199999Y-55936324D01*
X116162676Y-55940000D01*
X116162667Y-55940000D01*
X116051014Y-55950997D01*
X115907753Y-55994454D01*
X115775724Y-56065026D01*
X115659999Y-56159999D01*
X115636201Y-56188997D01*
X110485199Y-61340000D01*
X108049939Y-61340000D01*
X108012616Y-61336324D01*
X107975293Y-61340000D01*
X107975284Y-61340000D01*
X107863631Y-61350997D01*
X107720370Y-61394454D01*
X107588340Y-61465026D01*
X107531110Y-61511994D01*
X107472616Y-61559999D01*
X107448818Y-61588997D01*
X103097183Y-65940633D01*
X102933778Y-65826216D01*
X102824776Y-65764859D01*
X102705899Y-65725947D01*
X102581714Y-65710974D01*
X102456995Y-65720516D01*
X102336533Y-65754206D01*
X102224959Y-65810750D01*
X102126560Y-65887974D01*
X102045117Y-65982911D01*
X101012680Y-67457384D01*
X100951323Y-67566386D01*
X100912411Y-67685263D01*
X100897438Y-67809448D01*
X100906980Y-67934167D01*
X100940670Y-68054629D01*
X100997214Y-68166203D01*
X101074438Y-68264602D01*
X101169375Y-68346045D01*
X102316188Y-69149052D01*
X102425190Y-69210409D01*
X102544067Y-69249321D01*
X102668252Y-69264294D01*
X102792971Y-69254752D01*
X102913433Y-69221062D01*
X103025007Y-69164518D01*
X103123406Y-69087294D01*
X103204849Y-68992357D01*
X104237286Y-67517884D01*
X104298643Y-67408882D01*
X104337555Y-67290005D01*
X104352528Y-67165820D01*
X104342986Y-67041101D01*
X104309296Y-66920639D01*
X104294996Y-66892422D01*
X107723174Y-63464244D01*
X113370694Y-63464244D01*
X113430628Y-63998575D01*
X113593207Y-64511088D01*
X113852237Y-64982262D01*
X114197852Y-65394150D01*
X114616888Y-65731064D01*
X115093384Y-65980170D01*
X115609189Y-66131979D01*
X116144658Y-66180711D01*
X116679395Y-66124508D01*
X117193030Y-65965511D01*
X117666001Y-65709777D01*
X118080292Y-65367045D01*
X118420123Y-64950372D01*
X118672549Y-64475627D01*
X118827956Y-63960894D01*
X118880425Y-63425778D01*
X118879351Y-63348854D01*
X118850885Y-63123524D01*
X118972427Y-63268372D01*
X119391463Y-63605286D01*
X119867959Y-63854392D01*
X120383764Y-64006201D01*
X120919233Y-64054933D01*
X121453970Y-63998730D01*
X121967605Y-63839733D01*
X122440576Y-63583999D01*
X122585334Y-63464244D01*
X138370694Y-63464244D01*
X138430628Y-63998575D01*
X138593207Y-64511088D01*
X138852237Y-64982262D01*
X139197852Y-65394150D01*
X139616888Y-65731064D01*
X140093384Y-65980170D01*
X140609189Y-66131979D01*
X141144658Y-66180711D01*
X141679395Y-66124508D01*
X142193030Y-65965511D01*
X142666001Y-65709777D01*
X143080292Y-65367045D01*
X143420123Y-64950372D01*
X143672549Y-64475627D01*
X143827956Y-63960894D01*
X143880425Y-63425778D01*
X143879351Y-63348854D01*
X143811961Y-62815412D01*
X143642243Y-62305219D01*
X143376659Y-61837707D01*
X143025327Y-61430685D01*
X142601628Y-61099655D01*
X142121701Y-60857226D01*
X141603826Y-60712633D01*
X141067729Y-60671382D01*
X140533829Y-60735046D01*
X140022463Y-60901199D01*
X139553109Y-61163512D01*
X139143644Y-61511994D01*
X138809664Y-61933372D01*
X138563891Y-62411595D01*
X138415686Y-62928448D01*
X138370694Y-63464244D01*
X122585334Y-63464244D01*
X122854867Y-63241267D01*
X123194698Y-62824594D01*
X123447124Y-62349849D01*
X123602531Y-61835116D01*
X123655000Y-61300000D01*
X123653926Y-61223076D01*
X123586536Y-60689634D01*
X123416818Y-60179441D01*
X123151234Y-59711929D01*
X122799902Y-59304907D01*
X122376203Y-58973877D01*
X121896276Y-58731448D01*
X121378401Y-58586855D01*
X120842304Y-58545604D01*
X120308404Y-58609268D01*
X119797038Y-58775421D01*
X119327684Y-59037734D01*
X118918219Y-59386216D01*
X118584239Y-59807594D01*
X118338466Y-60285817D01*
X118190261Y-60802670D01*
X118145269Y-61338466D01*
X118175072Y-61604166D01*
X118025327Y-61430685D01*
X117601628Y-61099655D01*
X117121701Y-60857226D01*
X116603826Y-60712633D01*
X116067729Y-60671382D01*
X115533829Y-60735046D01*
X115022463Y-60901199D01*
X114553109Y-61163512D01*
X114143644Y-61511994D01*
X113809664Y-61933372D01*
X113563891Y-62411595D01*
X113415686Y-62928448D01*
X113370694Y-63464244D01*
X107723174Y-63464244D01*
X108327419Y-62860000D01*
X110762678Y-62860000D01*
X110800000Y-62863676D01*
X110837322Y-62860000D01*
X110837333Y-62860000D01*
X110948986Y-62849003D01*
X111092247Y-62805546D01*
X111224276Y-62734974D01*
X111340001Y-62640001D01*
X111363804Y-62610997D01*
X116514802Y-57460000D01*
X123985199Y-57460000D01*
X124636200Y-58111002D01*
X124659999Y-58140001D01*
X124775724Y-58234974D01*
X124907753Y-58305546D01*
X125051014Y-58349003D01*
X125162667Y-58360000D01*
X125162676Y-58360000D01*
X125199999Y-58363676D01*
X125237322Y-58360000D01*
X141185199Y-58360000D01*
X148936205Y-66111008D01*
X148959999Y-66140001D01*
X148988992Y-66163795D01*
X148988996Y-66163799D01*
X149009604Y-66180711D01*
X149075724Y-66234974D01*
X149207753Y-66305546D01*
X149351014Y-66349003D01*
X149462667Y-66360000D01*
X149462676Y-66360000D01*
X149499999Y-66363676D01*
X149537322Y-66360000D01*
X149985199Y-66360000D01*
X155125058Y-71499860D01*
X155125058Y-71520141D01*
X154810827Y-71604339D01*
X154693760Y-71648400D01*
X154587538Y-71714452D01*
X154496244Y-71799959D01*
X154423386Y-71901633D01*
X154371762Y-72015567D01*
X154343359Y-72137384D01*
X154339266Y-72262401D01*
X154359642Y-72385814D01*
X154688278Y-73612302D01*
X154605944Y-73584353D01*
X154481930Y-73568027D01*
X154357114Y-73576207D01*
X154236292Y-73608582D01*
X154210494Y-73615494D01*
X154098241Y-73809922D01*
X154343925Y-74726827D01*
X154363243Y-74721651D01*
X154428984Y-74966997D01*
X154409665Y-74972173D01*
X154414841Y-74991491D01*
X154169495Y-75057232D01*
X154164319Y-75037913D01*
X153464748Y-75225362D01*
X153352494Y-75419791D01*
X153385492Y-75542940D01*
X153360000Y-75563860D01*
X153336202Y-75592858D01*
X153336201Y-75592859D01*
X153265026Y-75679585D01*
X153194454Y-75811615D01*
X153168879Y-75895928D01*
X153150998Y-75954875D01*
X153145741Y-76008253D01*
X153136324Y-76103861D01*
X153140001Y-76141193D01*
X153140000Y-77177608D01*
X153136324Y-77214931D01*
X153140000Y-77252253D01*
X153140000Y-77252263D01*
X153150997Y-77363916D01*
X153185491Y-77477630D01*
X153194454Y-77507177D01*
X153265026Y-77639207D01*
X153295595Y-77676455D01*
X153359999Y-77754932D01*
X153389002Y-77778735D01*
X154292506Y-78682239D01*
X154316305Y-78711238D01*
X154345303Y-78735036D01*
X154432029Y-78806211D01*
X154515817Y-78850997D01*
X154564059Y-78876783D01*
X154707320Y-78920240D01*
X154818973Y-78931237D01*
X154818983Y-78931237D01*
X154856306Y-78934913D01*
X154893629Y-78931237D01*
X155485199Y-78931237D01*
X156614954Y-80060993D01*
X156638752Y-80089991D01*
X156754477Y-80184964D01*
X156886506Y-80255536D01*
X157029767Y-80298993D01*
X157141420Y-80309990D01*
X157141429Y-80309990D01*
X157178752Y-80313666D01*
X157216075Y-80309990D01*
X157289991Y-80309990D01*
X157289990Y-86935208D01*
X155085199Y-89140000D01*
X154337322Y-89140000D01*
X154299999Y-89136324D01*
X154262676Y-89140000D01*
X154262667Y-89140000D01*
X154151014Y-89150997D01*
X154007753Y-89194454D01*
X153875723Y-89265026D01*
X153801362Y-89326053D01*
X153759999Y-89359999D01*
X153736201Y-89388997D01*
X152088998Y-91036201D01*
X152060000Y-91059999D01*
X152036202Y-91088997D01*
X152036201Y-91088998D01*
X151965026Y-91175724D01*
X151894454Y-91307754D01*
X151875029Y-91371793D01*
X151851919Y-91447980D01*
X151850998Y-91451015D01*
X151836324Y-91600000D01*
X151840001Y-91637332D01*
X151840000Y-95862677D01*
X151836324Y-95900000D01*
X151840000Y-95937322D01*
X151840000Y-95937332D01*
X151850997Y-96048985D01*
X151894454Y-96192246D01*
X151965026Y-96324276D01*
X151987640Y-96351831D01*
X152059999Y-96440001D01*
X152089003Y-96463804D01*
X154236201Y-98611003D01*
X154259999Y-98640001D01*
X154375724Y-98734974D01*
X154507753Y-98805546D01*
X154651014Y-98849003D01*
X154740001Y-98857768D01*
X154740000Y-99485198D01*
X150885199Y-103340000D01*
X147765200Y-103340000D01*
X147670424Y-103262703D01*
X147616833Y-103227097D01*
X147563730Y-103190737D01*
X147555010Y-103186022D01*
X147423702Y-103116204D01*
X147364234Y-103091693D01*
X147305059Y-103066331D01*
X147295589Y-103063399D01*
X147153221Y-103020416D01*
X147090159Y-103007929D01*
X147027149Y-102994536D01*
X147017290Y-102993500D01*
X146869283Y-102978988D01*
X146838240Y-102978988D01*
X146807377Y-102975638D01*
X146797464Y-102975605D01*
X146792144Y-102975624D01*
X146761322Y-102978757D01*
X146730331Y-102978541D01*
X146720465Y-102979508D01*
X146572564Y-102995053D01*
X146509504Y-103007997D01*
X146446320Y-103020050D01*
X146436830Y-103022915D01*
X146294764Y-103066891D01*
X146235461Y-103091820D01*
X146175773Y-103115935D01*
X146167027Y-103120586D01*
X146167023Y-103120588D01*
X146167022Y-103120589D01*
X146167020Y-103120590D01*
X146036202Y-103191322D01*
X145982841Y-103227314D01*
X145929005Y-103262544D01*
X145921332Y-103268802D01*
X145921324Y-103268808D01*
X145921317Y-103268815D01*
X145806734Y-103363606D01*
X145761395Y-103409264D01*
X145715415Y-103454291D01*
X145709096Y-103461929D01*
X145615103Y-103577176D01*
X145579497Y-103630767D01*
X145543137Y-103683870D01*
X145538422Y-103692590D01*
X145468604Y-103823898D01*
X145444093Y-103883366D01*
X145418731Y-103942541D01*
X145415799Y-103952011D01*
X145372816Y-104094379D01*
X145360329Y-104157441D01*
X145346936Y-104220451D01*
X145345900Y-104230310D01*
X145331388Y-104378317D01*
X145331388Y-104378323D01*
X145324565Y-104447600D01*
X145338273Y-104586784D01*
X145342282Y-104600000D01*
X145338273Y-104613216D01*
X145324565Y-104752400D01*
X145330973Y-104817465D01*
X145330941Y-104822069D01*
X145331908Y-104831935D01*
X145347453Y-104979836D01*
X145360399Y-105042902D01*
X145372450Y-105106080D01*
X145375315Y-105115570D01*
X145419291Y-105257637D01*
X145444225Y-105316953D01*
X145468335Y-105376627D01*
X145472989Y-105385380D01*
X145543722Y-105516198D01*
X145579692Y-105569526D01*
X145614944Y-105623396D01*
X145621210Y-105631078D01*
X145716006Y-105745666D01*
X145761661Y-105791003D01*
X145806690Y-105836985D01*
X145814329Y-105843304D01*
X145929575Y-105937297D01*
X145983177Y-105972910D01*
X146036270Y-106009263D01*
X146040000Y-106011280D01*
X146040000Y-106585198D01*
X139685199Y-112940000D01*
X131962333Y-112940000D01*
X131925000Y-112936323D01*
X131887667Y-112940000D01*
X131776014Y-112950997D01*
X131632753Y-112994454D01*
X131500724Y-113065026D01*
X131384999Y-113159999D01*
X131361201Y-113188997D01*
X131075000Y-113475198D01*
X130488804Y-112889003D01*
X130465001Y-112859999D01*
X130349276Y-112765026D01*
X130217247Y-112694454D01*
X130073986Y-112650997D01*
X129962333Y-112640000D01*
X129962322Y-112640000D01*
X129925000Y-112636324D01*
X129887678Y-112640000D01*
X127315632Y-112640000D01*
X127224276Y-112565026D01*
X127092247Y-112494454D01*
X126948986Y-112450997D01*
X126837333Y-112440000D01*
X126837322Y-112440000D01*
X126800000Y-112436324D01*
X126762678Y-112440000D01*
X116214802Y-112440000D01*
X110540316Y-106765514D01*
X113370694Y-106765514D01*
X113430628Y-107299845D01*
X113593207Y-107812358D01*
X113852237Y-108283532D01*
X114197852Y-108695420D01*
X114616888Y-109032334D01*
X115093384Y-109281440D01*
X115609189Y-109433249D01*
X116144658Y-109481981D01*
X116679395Y-109425778D01*
X117193030Y-109266781D01*
X117666001Y-109011047D01*
X118080292Y-108668315D01*
X118173600Y-108553909D01*
X118145269Y-108891292D01*
X118205203Y-109425623D01*
X118367782Y-109938136D01*
X118626812Y-110409310D01*
X118972427Y-110821198D01*
X119391463Y-111158112D01*
X119867959Y-111407218D01*
X120383764Y-111559027D01*
X120919233Y-111607759D01*
X121453970Y-111551556D01*
X121967605Y-111392559D01*
X122440576Y-111136825D01*
X122854867Y-110794093D01*
X123194698Y-110377420D01*
X123447124Y-109902675D01*
X123602531Y-109387942D01*
X123655000Y-108852826D01*
X123653926Y-108775902D01*
X123586536Y-108242460D01*
X123416818Y-107732267D01*
X123151234Y-107264755D01*
X122799902Y-106857733D01*
X122681868Y-106765514D01*
X138370694Y-106765514D01*
X138430628Y-107299845D01*
X138593207Y-107812358D01*
X138852237Y-108283532D01*
X139197852Y-108695420D01*
X139616888Y-109032334D01*
X140093384Y-109281440D01*
X140609189Y-109433249D01*
X141144658Y-109481981D01*
X141679395Y-109425778D01*
X142193030Y-109266781D01*
X142666001Y-109011047D01*
X143080292Y-108668315D01*
X143420123Y-108251642D01*
X143672549Y-107776897D01*
X143827956Y-107262164D01*
X143880425Y-106727048D01*
X143879351Y-106650124D01*
X143811961Y-106116682D01*
X143642243Y-105606489D01*
X143376659Y-105138977D01*
X143025327Y-104731955D01*
X142601628Y-104400925D01*
X142121701Y-104158496D01*
X141603826Y-104013903D01*
X141067729Y-103972652D01*
X140533829Y-104036316D01*
X140022463Y-104202469D01*
X139553109Y-104464782D01*
X139143644Y-104813264D01*
X138809664Y-105234642D01*
X138563891Y-105712865D01*
X138415686Y-106229718D01*
X138370694Y-106765514D01*
X122681868Y-106765514D01*
X122376203Y-106526703D01*
X121896276Y-106284274D01*
X121378401Y-106139681D01*
X120842304Y-106098430D01*
X120308404Y-106162094D01*
X119797038Y-106328247D01*
X119327684Y-106590560D01*
X118918219Y-106939042D01*
X118851369Y-107023386D01*
X118880425Y-106727048D01*
X118879351Y-106650124D01*
X118811961Y-106116682D01*
X118642243Y-105606489D01*
X118376659Y-105138977D01*
X118025327Y-104731955D01*
X117601628Y-104400925D01*
X117121701Y-104158496D01*
X116603826Y-104013903D01*
X116067729Y-103972652D01*
X115533829Y-104036316D01*
X115022463Y-104202469D01*
X114553109Y-104464782D01*
X114143644Y-104813264D01*
X113809664Y-105234642D01*
X113563891Y-105712865D01*
X113415686Y-106229718D01*
X113370694Y-106765514D01*
X110540316Y-106765514D01*
X106988184Y-103213383D01*
X106988184Y-101965045D01*
X107683792Y-101477975D01*
X107778729Y-101396532D01*
X107855953Y-101298133D01*
X107912497Y-101186559D01*
X107946187Y-101066097D01*
X107955729Y-100941378D01*
X107940756Y-100817193D01*
X107901844Y-100698316D01*
X107840487Y-100589314D01*
X106808050Y-99114841D01*
X106726607Y-99019904D01*
X106628208Y-98942680D01*
X106516634Y-98886136D01*
X106396172Y-98852446D01*
X106271453Y-98842904D01*
X106147268Y-98857877D01*
X106028391Y-98896789D01*
X105919389Y-98958146D01*
X104772576Y-99761153D01*
X104677639Y-99842596D01*
X104600415Y-99940995D01*
X104543871Y-100052569D01*
X104510181Y-100173031D01*
X104500639Y-100297750D01*
X104515612Y-100421935D01*
X104554524Y-100540812D01*
X104615881Y-100649814D01*
X105468185Y-101867030D01*
X105468184Y-103490861D01*
X105464508Y-103528184D01*
X105468184Y-103565506D01*
X105468184Y-103565516D01*
X105475520Y-103640000D01*
X104469602Y-103640000D01*
X104418403Y-103566881D01*
X104639496Y-103605865D01*
X105030061Y-103332388D01*
X105116558Y-103242032D01*
X105183766Y-103136538D01*
X105229101Y-103019958D01*
X105250822Y-102896774D01*
X105248093Y-102771719D01*
X105221020Y-102649601D01*
X105170642Y-102535110D01*
X105098897Y-102432647D01*
X104782450Y-101980714D01*
X104561355Y-101941729D01*
X103701860Y-102543554D01*
X103713332Y-102559937D01*
X103505266Y-102705626D01*
X103493795Y-102689243D01*
X102634300Y-103291068D01*
X102595314Y-103512163D01*
X102684826Y-103640000D01*
X101314802Y-103640000D01*
X101160000Y-103485199D01*
X101160000Y-103437332D01*
X101162462Y-103412339D01*
X101964103Y-102610699D01*
X102267516Y-103044018D01*
X102488611Y-103083003D01*
X103348106Y-102481178D01*
X103336634Y-102464795D01*
X103544700Y-102319106D01*
X103556171Y-102335489D01*
X104415666Y-101733664D01*
X104454652Y-101512569D01*
X104138205Y-101060636D01*
X104066460Y-100958173D01*
X103976103Y-100871676D01*
X103870609Y-100804468D01*
X103798410Y-100776392D01*
X103986021Y-100588781D01*
X104015018Y-100564984D01*
X104109991Y-100449259D01*
X104180563Y-100317230D01*
X104224020Y-100173969D01*
X104235017Y-100062316D01*
X104235017Y-100062308D01*
X104238693Y-100024983D01*
X104235017Y-99987658D01*
X104235017Y-98691579D01*
X106881454Y-98691579D01*
X107097573Y-99000229D01*
X107187930Y-99086726D01*
X107293424Y-99153934D01*
X107410003Y-99199269D01*
X107533187Y-99220990D01*
X107658242Y-99218261D01*
X107780360Y-99191188D01*
X107894851Y-99140811D01*
X107997314Y-99069065D01*
X108019192Y-99053746D01*
X108058177Y-98832651D01*
X107513710Y-98055071D01*
X106920439Y-98470483D01*
X106881454Y-98691579D01*
X104235017Y-98691579D01*
X104235017Y-98033115D01*
X104930625Y-97546045D01*
X105025562Y-97464602D01*
X105102786Y-97366203D01*
X105159330Y-97254629D01*
X105193020Y-97134167D01*
X105197026Y-97081806D01*
X105750527Y-97081806D01*
X105969388Y-97394371D01*
X106050831Y-97489308D01*
X106149230Y-97566532D01*
X106258862Y-97622092D01*
X106260086Y-97678174D01*
X106287159Y-97800292D01*
X106337536Y-97914784D01*
X106553655Y-98223434D01*
X106774751Y-98262419D01*
X107278939Y-97909382D01*
X107721775Y-97909382D01*
X108266242Y-98686962D01*
X108487338Y-98725947D01*
X108509216Y-98710628D01*
X108611678Y-98638883D01*
X108698176Y-98548526D01*
X108765383Y-98443032D01*
X108810719Y-98326453D01*
X108832439Y-98203269D01*
X108829710Y-98078214D01*
X108802637Y-97956096D01*
X108752260Y-97841604D01*
X108536141Y-97532954D01*
X108315045Y-97493969D01*
X107721775Y-97909382D01*
X107278939Y-97909382D01*
X107368021Y-97847006D01*
X107356549Y-97830623D01*
X107564615Y-97684934D01*
X107576086Y-97701317D01*
X108169357Y-97285905D01*
X108208342Y-97064809D01*
X107992223Y-96756159D01*
X107901866Y-96669662D01*
X107796372Y-96602454D01*
X107744089Y-96582122D01*
X107729377Y-96460102D01*
X107690465Y-96341224D01*
X107629108Y-96232223D01*
X106940816Y-95249241D01*
X106859373Y-95154304D01*
X106760974Y-95077080D01*
X106649400Y-95020536D01*
X106528938Y-94986846D01*
X106404219Y-94977304D01*
X106280034Y-94992277D01*
X106161157Y-95031189D01*
X106052155Y-95092546D01*
X105437791Y-95522728D01*
X105392238Y-95561806D01*
X104320188Y-95561806D01*
X104054883Y-95182911D01*
X103973440Y-95087974D01*
X103875041Y-95010750D01*
X103763467Y-94954206D01*
X103643005Y-94920516D01*
X103518286Y-94910974D01*
X103394101Y-94925947D01*
X103275224Y-94964859D01*
X103166222Y-95026216D01*
X102019409Y-95829223D01*
X101924472Y-95910666D01*
X101911155Y-95927634D01*
X100849379Y-95927634D01*
X99760000Y-94838256D01*
X99760000Y-85114879D01*
X100870694Y-85114879D01*
X100930628Y-85649210D01*
X101093207Y-86161723D01*
X101352237Y-86632897D01*
X101697852Y-87044785D01*
X102116888Y-87381699D01*
X102593384Y-87630805D01*
X103109189Y-87782614D01*
X103644658Y-87831346D01*
X104179395Y-87775143D01*
X104693030Y-87616146D01*
X105166001Y-87360412D01*
X105580292Y-87017680D01*
X105920123Y-86601007D01*
X106172549Y-86126262D01*
X106325484Y-85619716D01*
X107877537Y-85619716D01*
X108007973Y-87461934D01*
X108301656Y-89285263D01*
X108756259Y-91075268D01*
X109368184Y-92817774D01*
X110132585Y-94498986D01*
X111043410Y-96105591D01*
X112093447Y-97624868D01*
X113274382Y-99044788D01*
X114576864Y-100354108D01*
X115990582Y-101542462D01*
X117504340Y-102600439D01*
X119106153Y-103519664D01*
X120783339Y-104292857D01*
X122522618Y-104913897D01*
X124310218Y-105377866D01*
X126131985Y-105681092D01*
X127973495Y-105821172D01*
X129820166Y-105796997D01*
X131657378Y-105608760D01*
X133470584Y-105257951D01*
X135245425Y-104747346D01*
X136967851Y-104080990D01*
X138624223Y-103264158D01*
X140201425Y-102303318D01*
X141686970Y-101206077D01*
X143069095Y-99981124D01*
X143231098Y-99809510D01*
X146096119Y-99809510D01*
X146156053Y-100343841D01*
X146318632Y-100856354D01*
X146577662Y-101327528D01*
X146923277Y-101739416D01*
X147342313Y-102076330D01*
X147818809Y-102325436D01*
X148334614Y-102477245D01*
X148870083Y-102525977D01*
X149404820Y-102469774D01*
X149918455Y-102310777D01*
X150391426Y-102055043D01*
X150805717Y-101712311D01*
X151145548Y-101295638D01*
X151397974Y-100820893D01*
X151553381Y-100306160D01*
X151605850Y-99771044D01*
X151604776Y-99694120D01*
X151537386Y-99160678D01*
X151367668Y-98650485D01*
X151102084Y-98182973D01*
X150750752Y-97775951D01*
X150327053Y-97444921D01*
X149847126Y-97202492D01*
X149329251Y-97057899D01*
X148793154Y-97016648D01*
X148259254Y-97080312D01*
X147747888Y-97246465D01*
X147278534Y-97508778D01*
X146869069Y-97857260D01*
X146535089Y-98278638D01*
X146289316Y-98756861D01*
X146141111Y-99273714D01*
X146096119Y-99809510D01*
X143231098Y-99809510D01*
X144336857Y-98638158D01*
X145480219Y-97187811D01*
X146490126Y-95641568D01*
X147358583Y-94011671D01*
X148078713Y-92311026D01*
X148644814Y-90553098D01*
X149052405Y-88751807D01*
X149298257Y-86921414D01*
X149378711Y-85114879D01*
X150870694Y-85114879D01*
X150930628Y-85649210D01*
X151093207Y-86161723D01*
X151352237Y-86632897D01*
X151697852Y-87044785D01*
X152116888Y-87381699D01*
X152593384Y-87630805D01*
X153109189Y-87782614D01*
X153644658Y-87831346D01*
X154179395Y-87775143D01*
X154693030Y-87616146D01*
X155166001Y-87360412D01*
X155580292Y-87017680D01*
X155920123Y-86601007D01*
X156172549Y-86126262D01*
X156327956Y-85611529D01*
X156380425Y-85076413D01*
X156379351Y-84999489D01*
X156311961Y-84466047D01*
X156142243Y-83955854D01*
X155876659Y-83488342D01*
X155525327Y-83081320D01*
X155101628Y-82750290D01*
X154621701Y-82507861D01*
X154103826Y-82363268D01*
X153567729Y-82322017D01*
X153033829Y-82385681D01*
X152522463Y-82551834D01*
X152053109Y-82814147D01*
X151643644Y-83162629D01*
X151309664Y-83584007D01*
X151063891Y-84062230D01*
X150915686Y-84579083D01*
X150870694Y-85114879D01*
X149378711Y-85114879D01*
X149380425Y-85076413D01*
X149351981Y-83990180D01*
X149173366Y-82152008D01*
X148832055Y-80336991D01*
X148330751Y-78559500D01*
X147673422Y-76833609D01*
X146865274Y-75172983D01*
X146387254Y-74378994D01*
X153098878Y-74378994D01*
X153107058Y-74503811D01*
X153204579Y-74867764D01*
X153399008Y-74980017D01*
X154098579Y-74792567D01*
X153852895Y-73875662D01*
X153658467Y-73763409D01*
X153632669Y-73770322D01*
X153511847Y-73802696D01*
X153399663Y-73858019D01*
X153300427Y-73934165D01*
X153217953Y-74028208D01*
X153155411Y-74136535D01*
X153115204Y-74254981D01*
X153098878Y-74378994D01*
X146387254Y-74378994D01*
X145912705Y-73590771D01*
X144823258Y-72099502D01*
X143605559Y-70710981D01*
X143300792Y-70420248D01*
X146096119Y-70420248D01*
X146156053Y-70954579D01*
X146318632Y-71467092D01*
X146577662Y-71938266D01*
X146923277Y-72350154D01*
X147342313Y-72687068D01*
X147818809Y-72936174D01*
X148334614Y-73087983D01*
X148870083Y-73136715D01*
X149404820Y-73080512D01*
X149918455Y-72921515D01*
X150391426Y-72665781D01*
X150805717Y-72323049D01*
X151145548Y-71906376D01*
X151397974Y-71431631D01*
X151553381Y-70916898D01*
X151605850Y-70381782D01*
X151604776Y-70304858D01*
X151537386Y-69771416D01*
X151367668Y-69261223D01*
X151102084Y-68793711D01*
X150750752Y-68386689D01*
X150327053Y-68055659D01*
X149847126Y-67813230D01*
X149329251Y-67668637D01*
X148793154Y-67627386D01*
X148259254Y-67691050D01*
X147747888Y-67857203D01*
X147278534Y-68119516D01*
X146869069Y-68467998D01*
X146535089Y-68889376D01*
X146289316Y-69367599D01*
X146141111Y-69884452D01*
X146096119Y-70420248D01*
X143300792Y-70420248D01*
X142269248Y-69436205D01*
X140824908Y-68285265D01*
X139283974Y-67267276D01*
X137658646Y-66390297D01*
X135961795Y-65661272D01*
X134206856Y-65085974D01*
X132407723Y-64668957D01*
X130578643Y-64413524D01*
X128734097Y-64321698D01*
X126888691Y-64394204D01*
X125057037Y-64630469D01*
X123253636Y-65028622D01*
X121492768Y-65585512D01*
X119788376Y-66296728D01*
X118153954Y-67156638D01*
X116602444Y-68158436D01*
X115146131Y-69294187D01*
X113796545Y-70554900D01*
X112564371Y-71930593D01*
X111459368Y-73410372D01*
X110490283Y-74982522D01*
X109664789Y-76634594D01*
X108989423Y-78353507D01*
X108469533Y-80125651D01*
X108109234Y-81936995D01*
X107911380Y-83773196D01*
X107877537Y-85619716D01*
X106325484Y-85619716D01*
X106327956Y-85611529D01*
X106380425Y-85076413D01*
X106379351Y-84999489D01*
X106311961Y-84466047D01*
X106142243Y-83955854D01*
X105876659Y-83488342D01*
X105525327Y-83081320D01*
X105101628Y-82750290D01*
X104621701Y-82507861D01*
X104103826Y-82363268D01*
X103567729Y-82322017D01*
X103033829Y-82385681D01*
X102522463Y-82551834D01*
X102053109Y-82814147D01*
X101643644Y-83162629D01*
X101309664Y-83584007D01*
X101063891Y-84062230D01*
X100915686Y-84579083D01*
X100870694Y-85114879D01*
X99760000Y-85114879D01*
X99760000Y-77838594D01*
X101938595Y-75660000D01*
X103062678Y-75660000D01*
X103100000Y-75663676D01*
X103137322Y-75660000D01*
X103137333Y-75660000D01*
X103248986Y-75649003D01*
X103392247Y-75605546D01*
X103524276Y-75534974D01*
X103640001Y-75440001D01*
X103663804Y-75410997D01*
X104542150Y-74532651D01*
X105041823Y-74532651D01*
X105080808Y-74753746D01*
X105102686Y-74769065D01*
X105205149Y-74840811D01*
X105319640Y-74891188D01*
X105441758Y-74918261D01*
X105566813Y-74920990D01*
X105689997Y-74899269D01*
X105806576Y-74853934D01*
X105912070Y-74786726D01*
X106002427Y-74700229D01*
X106218546Y-74391579D01*
X106179561Y-74170483D01*
X105586290Y-73755071D01*
X105041823Y-74532651D01*
X104542150Y-74532651D01*
X104656602Y-74418199D01*
X104833758Y-74386962D01*
X105174570Y-73900231D01*
X105626246Y-73448555D01*
X105743451Y-73530623D01*
X105731979Y-73547006D01*
X106325249Y-73962419D01*
X106546345Y-73923434D01*
X106762464Y-73614784D01*
X106812841Y-73500292D01*
X106839914Y-73378174D01*
X106841138Y-73322091D01*
X106950770Y-73266533D01*
X107049169Y-73189308D01*
X107130612Y-73094371D01*
X107818904Y-72111389D01*
X107880261Y-72002387D01*
X107919173Y-71883510D01*
X107934146Y-71759325D01*
X107924604Y-71634606D01*
X107890914Y-71514144D01*
X107834370Y-71402570D01*
X107757146Y-71304171D01*
X107662209Y-71222728D01*
X107404898Y-71042557D01*
X107404898Y-70734475D01*
X107408574Y-70697150D01*
X107404898Y-70659825D01*
X107404898Y-70659817D01*
X107393901Y-70548164D01*
X107350444Y-70404903D01*
X107279872Y-70272874D01*
X107184899Y-70157149D01*
X107155901Y-70133351D01*
X106731582Y-69709033D01*
X106940487Y-69410686D01*
X107001844Y-69301684D01*
X107040756Y-69182807D01*
X107055729Y-69058622D01*
X107046187Y-68933903D01*
X107012497Y-68813441D01*
X106955953Y-68701867D01*
X106878729Y-68603468D01*
X106783792Y-68522025D01*
X105636979Y-67719018D01*
X105527977Y-67657661D01*
X105409100Y-67618749D01*
X105284915Y-67603776D01*
X105160196Y-67613318D01*
X105039734Y-67647008D01*
X104928160Y-67703552D01*
X104829761Y-67780776D01*
X104748318Y-67875713D01*
X103715881Y-69350186D01*
X103654524Y-69459188D01*
X103615612Y-69578065D01*
X103600639Y-69702250D01*
X103610181Y-69826969D01*
X103643871Y-69947431D01*
X103700415Y-70059005D01*
X103777639Y-70157404D01*
X103872576Y-70238847D01*
X105019389Y-71041854D01*
X105128391Y-71103211D01*
X105247268Y-71142123D01*
X105371453Y-71157096D01*
X105496172Y-71147554D01*
X105616634Y-71113864D01*
X105728208Y-71057320D01*
X105826607Y-70980096D01*
X105838813Y-70965867D01*
X105884899Y-71011953D01*
X105884899Y-71267318D01*
X105829208Y-71272803D01*
X105685947Y-71316260D01*
X105553917Y-71386832D01*
X105486320Y-71442308D01*
X105438193Y-71481805D01*
X105414395Y-71510803D01*
X104232590Y-72692608D01*
X104202786Y-72633797D01*
X104125562Y-72535398D01*
X104030625Y-72453955D01*
X102883812Y-71650948D01*
X102774810Y-71589591D01*
X102655933Y-71550679D01*
X102531748Y-71535706D01*
X102407029Y-71545248D01*
X102286567Y-71578938D01*
X102174993Y-71635482D01*
X102076594Y-71712706D01*
X101995151Y-71807643D01*
X100962714Y-73282116D01*
X100901357Y-73391118D01*
X100862445Y-73509995D01*
X100847472Y-73634180D01*
X100857014Y-73758899D01*
X100890704Y-73879361D01*
X100905004Y-73907577D01*
X97988998Y-76823584D01*
X97960000Y-76847382D01*
X97936202Y-76876380D01*
X97936201Y-76876381D01*
X97865026Y-76963107D01*
X97794454Y-77095137D01*
X97750998Y-77238398D01*
X97736324Y-77387383D01*
X97740001Y-77424716D01*
X97740000Y-96271298D01*
X97736324Y-96308620D01*
X97740000Y-96345942D01*
X97740000Y-96345952D01*
X97750997Y-96457605D01*
X97785271Y-96570593D01*
X97794454Y-96600866D01*
X97865026Y-96732896D01*
X97892511Y-96766386D01*
X97959999Y-96848621D01*
X97989003Y-96872424D01*
X99101803Y-97985224D01*
X99087503Y-98013441D01*
X99053813Y-98133903D01*
X99044271Y-98258622D01*
X99059244Y-98382807D01*
X99098156Y-98501684D01*
X99159513Y-98610686D01*
X100191950Y-100085159D01*
X100273393Y-100180096D01*
X100371792Y-100257320D01*
X100483366Y-100313864D01*
X100603828Y-100347554D01*
X100728547Y-100357096D01*
X100852732Y-100342123D01*
X100971609Y-100303211D01*
X101080611Y-100241854D01*
X102227424Y-99438847D01*
X102322361Y-99357404D01*
X102399585Y-99259005D01*
X102456129Y-99147431D01*
X102489819Y-99026969D01*
X102499361Y-98902250D01*
X102484388Y-98778065D01*
X102445476Y-98659188D01*
X102384119Y-98550186D01*
X101612104Y-97447634D01*
X102373690Y-97447634D01*
X102715018Y-97935100D01*
X102715017Y-99710181D01*
X99889003Y-102536196D01*
X99859999Y-102559999D01*
X99805255Y-102626705D01*
X99786431Y-102649643D01*
X99772680Y-102650997D01*
X99629419Y-102694454D01*
X99497390Y-102765026D01*
X99381665Y-102859999D01*
X99357867Y-102888997D01*
X99189381Y-103057483D01*
X99060733Y-102873754D01*
X98839637Y-102834769D01*
X97693439Y-103637346D01*
X97704910Y-103653729D01*
X97496845Y-103799418D01*
X97485374Y-103783035D01*
X97468991Y-103794507D01*
X97323302Y-103586441D01*
X97339685Y-103574970D01*
X96852576Y-102879305D01*
X96631480Y-102840320D01*
X96279859Y-103086528D01*
X96129271Y-102871466D01*
X96038915Y-102784968D01*
X95958310Y-102733617D01*
X97060640Y-102733617D01*
X97547750Y-103429281D01*
X98693949Y-102626705D01*
X98732934Y-102405609D01*
X98574172Y-102178874D01*
X98483816Y-102092377D01*
X98378322Y-102025169D01*
X98261742Y-101979834D01*
X98138558Y-101958113D01*
X98013503Y-101960842D01*
X97891385Y-101987915D01*
X97776894Y-102038293D01*
X97674431Y-102110038D01*
X97099625Y-102512521D01*
X97060640Y-102733617D01*
X95958310Y-102733617D01*
X95933421Y-102717761D01*
X95816841Y-102672425D01*
X95693657Y-102650705D01*
X95568602Y-102653434D01*
X95446484Y-102680507D01*
X95331993Y-102730884D01*
X95229530Y-102802629D01*
X94736640Y-103147755D01*
X94697655Y-103368851D01*
X95579098Y-104627682D01*
X95595481Y-104616210D01*
X95741170Y-104824276D01*
X95724787Y-104835747D01*
X96229103Y-105555986D01*
X96229103Y-105555987D01*
X96766401Y-106323327D01*
X96782784Y-106311855D01*
X96928473Y-106519921D01*
X96912090Y-106531392D01*
X97449387Y-107298733D01*
X97449388Y-107298733D01*
X97730010Y-107699502D01*
X97746393Y-107688030D01*
X97892082Y-107896096D01*
X97875699Y-107907567D01*
X98035870Y-108136315D01*
X98035870Y-108136316D01*
X98198634Y-108368767D01*
X98365531Y-108607120D01*
X98917313Y-109395147D01*
X98933696Y-109383675D01*
X99079385Y-109591741D01*
X99063002Y-109603212D01*
X99944445Y-110862044D01*
X100165541Y-110901029D01*
X100658431Y-110555904D01*
X100760894Y-110484158D01*
X100847391Y-110393802D01*
X100914599Y-110288308D01*
X100959934Y-110171728D01*
X100981655Y-110048544D01*
X100978926Y-109923489D01*
X100951853Y-109801371D01*
X100901476Y-109686880D01*
X100715039Y-109420621D01*
X101066660Y-109174414D01*
X101105645Y-108953318D01*
X100482311Y-108063105D01*
X100465928Y-108074577D01*
X100355883Y-107917416D01*
X100690376Y-107917416D01*
X101313710Y-108807630D01*
X101534805Y-108846615D01*
X102109611Y-108444132D01*
X102212074Y-108372386D01*
X102298571Y-108282030D01*
X102365779Y-108176536D01*
X102411114Y-108059956D01*
X102432835Y-107936772D01*
X102430106Y-107811717D01*
X102403033Y-107689599D01*
X102352655Y-107575108D01*
X102057670Y-107153824D01*
X101836574Y-107114839D01*
X100690376Y-107917416D01*
X100355883Y-107917416D01*
X100320239Y-107866511D01*
X100336622Y-107855040D01*
X100325151Y-107838657D01*
X100533216Y-107692968D01*
X100544687Y-107709351D01*
X101690886Y-106906775D01*
X101729871Y-106685679D01*
X101720263Y-106671958D01*
X101751016Y-106650425D01*
X101837514Y-106560068D01*
X101904721Y-106454574D01*
X101950057Y-106337994D01*
X101971777Y-106214810D01*
X101969048Y-106089756D01*
X101941975Y-105967638D01*
X101891598Y-105853146D01*
X101882253Y-105839801D01*
X101661158Y-105800815D01*
X101225902Y-106105584D01*
X101122455Y-106065355D01*
X100999271Y-106043635D01*
X100919618Y-106045373D01*
X101532103Y-105616506D01*
X101571088Y-105395411D01*
X101561743Y-105382065D01*
X101471387Y-105295568D01*
X101365893Y-105228360D01*
X101249313Y-105183024D01*
X101126129Y-105161304D01*
X101001074Y-105164033D01*
X100878956Y-105191106D01*
X100764465Y-105241483D01*
X100662002Y-105313228D01*
X100458594Y-105455656D01*
X99863924Y-104801518D01*
X100136121Y-104610923D01*
X100436200Y-104911002D01*
X100459999Y-104940001D01*
X100488997Y-104963799D01*
X100575723Y-105034974D01*
X100683587Y-105092629D01*
X100707753Y-105105546D01*
X100851014Y-105149003D01*
X100962667Y-105160000D01*
X100962676Y-105160000D01*
X100999999Y-105163676D01*
X101037322Y-105160000D01*
X106085199Y-105160000D01*
X115136200Y-114211002D01*
X115159999Y-114240001D01*
X115188997Y-114263799D01*
X115275723Y-114334974D01*
X115347087Y-114373119D01*
X115407753Y-114405546D01*
X115551014Y-114449003D01*
X115662667Y-114460000D01*
X115662676Y-114460000D01*
X115699999Y-114463676D01*
X115737322Y-114460000D01*
X126320291Y-114460000D01*
X126350734Y-114484984D01*
X126482763Y-114555556D01*
X126626024Y-114599013D01*
X126737677Y-114610010D01*
X126737686Y-114610010D01*
X126775009Y-114613686D01*
X126812332Y-114610010D01*
X127630406Y-114610010D01*
X127615000Y-114687458D01*
X127615000Y-115314250D01*
X127773750Y-115473000D01*
X128523000Y-115473000D01*
X128523000Y-115453000D01*
X128777000Y-115453000D01*
X128777000Y-115473000D01*
X128797000Y-115473000D01*
X128797000Y-115727000D01*
X128777000Y-115727000D01*
X128777000Y-116926250D01*
X128935750Y-117085000D01*
X129112542Y-117085000D01*
X129140000Y-117079538D01*
X129140001Y-118485197D01*
X127888072Y-119737127D01*
X127888072Y-116971876D01*
X127949215Y-117012730D01*
X128064777Y-117060597D01*
X128187458Y-117085000D01*
X128364250Y-117085000D01*
X128523000Y-116926250D01*
X128523000Y-115727000D01*
X127773750Y-115727000D01*
X127615000Y-115885750D01*
X127615000Y-116428085D01*
X127604494Y-116419463D01*
X127494180Y-116360498D01*
X127374482Y-116324188D01*
X127250000Y-116311928D01*
X125050000Y-116311928D01*
X124925518Y-116324188D01*
X124805820Y-116360498D01*
X124695506Y-116419463D01*
X124598815Y-116498815D01*
X124519463Y-116595506D01*
X124460498Y-116705820D01*
X124424188Y-116825518D01*
X124411928Y-116950000D01*
X124411928Y-120050000D01*
X124424188Y-120174482D01*
X124460498Y-120294180D01*
X124519463Y-120404494D01*
X124598815Y-120501185D01*
X124695506Y-120580537D01*
X124805820Y-120639502D01*
X124925518Y-120675812D01*
X125050000Y-120688072D01*
X127147347Y-120688072D01*
X127140000Y-120762668D01*
X127140000Y-120762678D01*
X127136324Y-120800000D01*
X127140000Y-120837323D01*
X127140001Y-123227670D01*
X127136324Y-123265002D01*
X127140001Y-123302335D01*
X127150998Y-123413988D01*
X127161922Y-123450001D01*
X127194454Y-123557248D01*
X127265026Y-123689278D01*
X127325307Y-123762730D01*
X127360000Y-123805003D01*
X127388998Y-123828801D01*
X127596195Y-124035998D01*
X127619998Y-124065002D01*
X127735723Y-124159975D01*
X127867752Y-124230547D01*
X128011013Y-124274004D01*
X128122666Y-124285001D01*
X128122675Y-124285001D01*
X128159998Y-124288677D01*
X128197321Y-124285001D01*
X130420473Y-124285001D01*
X128625425Y-124341413D01*
X126159955Y-124263932D01*
X123704216Y-124031797D01*
X121267898Y-123645922D01*
X118860617Y-123107831D01*
X116491873Y-122419647D01*
X114171014Y-121584087D01*
X111907201Y-120604447D01*
X109709367Y-119484595D01*
X107878558Y-118401857D01*
X115055099Y-118401857D01*
X115115033Y-118936188D01*
X115277612Y-119448701D01*
X115536642Y-119919875D01*
X115882257Y-120331763D01*
X116301293Y-120668677D01*
X116777789Y-120917783D01*
X117293594Y-121069592D01*
X117829063Y-121118324D01*
X118363800Y-121062121D01*
X118877435Y-120903124D01*
X119350406Y-120647390D01*
X119764697Y-120304658D01*
X120104528Y-119887985D01*
X120356954Y-119413240D01*
X120512361Y-118898507D01*
X120564830Y-118363391D01*
X120563756Y-118286467D01*
X120496366Y-117753025D01*
X120326648Y-117242832D01*
X120061064Y-116775320D01*
X119709732Y-116368298D01*
X119286033Y-116037268D01*
X118806106Y-115794839D01*
X118288231Y-115650246D01*
X117752134Y-115608995D01*
X117218234Y-115672659D01*
X116706868Y-115838812D01*
X116237514Y-116101125D01*
X115828049Y-116449607D01*
X115494069Y-116870985D01*
X115248296Y-117349208D01*
X115100091Y-117866061D01*
X115055099Y-118401857D01*
X107878558Y-118401857D01*
X107586186Y-118228949D01*
X105546037Y-116842465D01*
X103719643Y-115425768D01*
X108370694Y-115425768D01*
X108430628Y-115960099D01*
X108593207Y-116472612D01*
X108852237Y-116943786D01*
X109197852Y-117355674D01*
X109616888Y-117692588D01*
X110093384Y-117941694D01*
X110609189Y-118093503D01*
X111144658Y-118142235D01*
X111679395Y-118086032D01*
X112193030Y-117927035D01*
X112666001Y-117671301D01*
X113080292Y-117328569D01*
X113420123Y-116911896D01*
X113672549Y-116437151D01*
X113827956Y-115922418D01*
X113880425Y-115387302D01*
X113879351Y-115310378D01*
X113811961Y-114776936D01*
X113642243Y-114266743D01*
X113376659Y-113799231D01*
X113025327Y-113392209D01*
X112601628Y-113061179D01*
X112121701Y-112818750D01*
X111603826Y-112674157D01*
X111067729Y-112632906D01*
X110533829Y-112696570D01*
X110022463Y-112862723D01*
X109553109Y-113125036D01*
X109143644Y-113473518D01*
X108809664Y-113894896D01*
X108563891Y-114373119D01*
X108415686Y-114889972D01*
X108370694Y-115425768D01*
X103719643Y-115425768D01*
X103596972Y-115330615D01*
X101746683Y-113699366D01*
X100002472Y-111955155D01*
X99490097Y-111373980D01*
X99697395Y-111228828D01*
X99736380Y-111007732D01*
X98854937Y-109748901D01*
X98838554Y-109760373D01*
X98692865Y-109552307D01*
X98709248Y-109540836D01*
X98204932Y-108820597D01*
X98204932Y-108820596D01*
X97667634Y-108053256D01*
X97651251Y-108064728D01*
X97505562Y-107856662D01*
X97521945Y-107845191D01*
X96984648Y-107077850D01*
X96984647Y-107077850D01*
X96704025Y-106677081D01*
X96687642Y-106688553D01*
X96541953Y-106480487D01*
X96558336Y-106469016D01*
X96396620Y-106238060D01*
X96102440Y-105817928D01*
X96021039Y-105701675D01*
X95516722Y-104981436D01*
X95500339Y-104992908D01*
X95354650Y-104784842D01*
X95371033Y-104773371D01*
X94489590Y-103514539D01*
X94268494Y-103475554D01*
X94036596Y-103637931D01*
X93097391Y-101794637D01*
X92117751Y-99530824D01*
X91282191Y-97209965D01*
X90594007Y-94841221D01*
X90055916Y-92433940D01*
X89670041Y-89997622D01*
X89437906Y-87541883D01*
X89361634Y-85114879D01*
X90870694Y-85114879D01*
X90930628Y-85649210D01*
X91093207Y-86161723D01*
X91352237Y-86632897D01*
X91697852Y-87044785D01*
X92116888Y-87381699D01*
X92593384Y-87630805D01*
X93109189Y-87782614D01*
X93644658Y-87831346D01*
X94179395Y-87775143D01*
X94693030Y-87616146D01*
X95166001Y-87360412D01*
X95580292Y-87017680D01*
X95920123Y-86601007D01*
X96172549Y-86126262D01*
X96327956Y-85611529D01*
X96380425Y-85076413D01*
X96379351Y-84999489D01*
X96311961Y-84466047D01*
X96142243Y-83955854D01*
X95876659Y-83488342D01*
X95525327Y-83081320D01*
X95101628Y-82750290D01*
X94621701Y-82507861D01*
X94103826Y-82363268D01*
X93567729Y-82322017D01*
X93033829Y-82385681D01*
X92522463Y-82551834D01*
X92053109Y-82814147D01*
X91643644Y-83162629D01*
X91309664Y-83584007D01*
X91063891Y-84062230D01*
X90915686Y-84579083D01*
X90870694Y-85114879D01*
X89361634Y-85114879D01*
X89360425Y-85076413D01*
X89437906Y-82610943D01*
X89670041Y-80155204D01*
X90055916Y-77718886D01*
X90594007Y-75311605D01*
X91282191Y-72942861D01*
X91398511Y-72619766D01*
X99186464Y-72619766D01*
X99225449Y-72840862D01*
X99616014Y-73114339D01*
X99730505Y-73164716D01*
X99852624Y-73191789D01*
X99977678Y-73194518D01*
X100100862Y-73172797D01*
X100217442Y-73127462D01*
X100322936Y-73060254D01*
X100413293Y-72973757D01*
X100485038Y-72871294D01*
X100801485Y-72419361D01*
X100762499Y-72198266D01*
X99903004Y-71596441D01*
X99186464Y-72619766D01*
X91398511Y-72619766D01*
X91692215Y-71803972D01*
X98145977Y-71803972D01*
X98167698Y-71927156D01*
X98213033Y-72043736D01*
X98280241Y-72149230D01*
X98366738Y-72239586D01*
X98757303Y-72513063D01*
X98978399Y-72474078D01*
X99694939Y-71450752D01*
X99605857Y-71388376D01*
X100048693Y-71388376D01*
X100908188Y-71990201D01*
X101129283Y-71951216D01*
X101445730Y-71499283D01*
X101517475Y-71396820D01*
X101567853Y-71282329D01*
X101594926Y-71160211D01*
X101597655Y-71035156D01*
X101575934Y-70911972D01*
X101530599Y-70795392D01*
X101463391Y-70689898D01*
X101376894Y-70599542D01*
X100986329Y-70326065D01*
X100765233Y-70365050D01*
X100048693Y-71388376D01*
X99605857Y-71388376D01*
X98835444Y-70848927D01*
X98614349Y-70887912D01*
X98297902Y-71339845D01*
X98226157Y-71442308D01*
X98175779Y-71556799D01*
X98148706Y-71678917D01*
X98145977Y-71803972D01*
X91692215Y-71803972D01*
X92117751Y-70622002D01*
X92205265Y-70419767D01*
X98942147Y-70419767D01*
X98981133Y-70640862D01*
X99840628Y-71242687D01*
X100557168Y-70219362D01*
X100518183Y-69998266D01*
X100127618Y-69724789D01*
X100013127Y-69674412D01*
X99891008Y-69647339D01*
X99765954Y-69644610D01*
X99642770Y-69666331D01*
X99526190Y-69711666D01*
X99420696Y-69778874D01*
X99330339Y-69865371D01*
X99258594Y-69967834D01*
X98942147Y-70419767D01*
X92205265Y-70419767D01*
X93097391Y-68358189D01*
X94217243Y-66160355D01*
X95472889Y-64037174D01*
X96859373Y-61997025D01*
X98371223Y-60047960D01*
X100002472Y-58197671D01*
X101746683Y-56453460D01*
X103596972Y-54822211D01*
X103620462Y-54803990D01*
X108370694Y-54803990D01*
X108430628Y-55338321D01*
X108593207Y-55850834D01*
X108852237Y-56322008D01*
X109197852Y-56733896D01*
X109616888Y-57070810D01*
X110093384Y-57319916D01*
X110609189Y-57471725D01*
X111144658Y-57520457D01*
X111679395Y-57464254D01*
X112193030Y-57305257D01*
X112666001Y-57049523D01*
X113080292Y-56706791D01*
X113420123Y-56290118D01*
X113672549Y-55815373D01*
X113827956Y-55300640D01*
X113880425Y-54765524D01*
X113879351Y-54688600D01*
X113811961Y-54155158D01*
X113642243Y-53644965D01*
X113376659Y-53177453D01*
X113025327Y-52770431D01*
X112601628Y-52439401D01*
X112121701Y-52196972D01*
X111603826Y-52052379D01*
X111067729Y-52011128D01*
X110533829Y-52074792D01*
X110022463Y-52240945D01*
X109553109Y-52503258D01*
X109143644Y-52851740D01*
X108809664Y-53273118D01*
X108563891Y-53751341D01*
X108415686Y-54268194D01*
X108370694Y-54803990D01*
X103620462Y-54803990D01*
X105546037Y-53310361D01*
X107586186Y-51923877D01*
X107748472Y-51827901D01*
X115055099Y-51827901D01*
X115115033Y-52362232D01*
X115277612Y-52874745D01*
X115536642Y-53345919D01*
X115882257Y-53757807D01*
X116301293Y-54094721D01*
X116777789Y-54343827D01*
X117293594Y-54495636D01*
X117829063Y-54544368D01*
X118363800Y-54488165D01*
X118877435Y-54329168D01*
X119350406Y-54073434D01*
X119764697Y-53730702D01*
X120104528Y-53314029D01*
X120356954Y-52839284D01*
X120512361Y-52324551D01*
X120564830Y-51789435D01*
X120563756Y-51712511D01*
X120496366Y-51179069D01*
X120436798Y-51000000D01*
X124336928Y-51000000D01*
X124336928Y-54100000D01*
X124349188Y-54224482D01*
X124385498Y-54344180D01*
X124444463Y-54454494D01*
X124523815Y-54551185D01*
X124620506Y-54630537D01*
X124730820Y-54689502D01*
X124850518Y-54725812D01*
X124975000Y-54738072D01*
X127175000Y-54738072D01*
X127299482Y-54725812D01*
X127419180Y-54689502D01*
X127529494Y-54630537D01*
X127540000Y-54621915D01*
X127540000Y-55164250D01*
X127698750Y-55323000D01*
X128448000Y-55323000D01*
X128448000Y-54123750D01*
X128289250Y-53965000D01*
X128112458Y-53965000D01*
X127989777Y-53989403D01*
X127874215Y-54037270D01*
X127813072Y-54078124D01*
X127813072Y-51000000D01*
X127800812Y-50875518D01*
X127764502Y-50755820D01*
X127705537Y-50645506D01*
X127626185Y-50548815D01*
X127529494Y-50469463D01*
X127419180Y-50410498D01*
X127299482Y-50374188D01*
X127175000Y-50361928D01*
X124975000Y-50361928D01*
X124850518Y-50374188D01*
X124730820Y-50410498D01*
X124620506Y-50469463D01*
X124523815Y-50548815D01*
X124444463Y-50645506D01*
X124385498Y-50755820D01*
X124349188Y-50875518D01*
X124336928Y-51000000D01*
X120436798Y-51000000D01*
X120326648Y-50668876D01*
X120061064Y-50201364D01*
X119709732Y-49794342D01*
X119286033Y-49463312D01*
X118806106Y-49220883D01*
X118288231Y-49076290D01*
X117752134Y-49035039D01*
X117218234Y-49098703D01*
X116706868Y-49264856D01*
X116237514Y-49527169D01*
X115828049Y-49875651D01*
X115494069Y-50297029D01*
X115248296Y-50775252D01*
X115100091Y-51292105D01*
X115055099Y-51827901D01*
X107748472Y-51827901D01*
X109709367Y-50668231D01*
X111907201Y-49548379D01*
X114171014Y-48568739D01*
X116491873Y-47733179D01*
X118860617Y-47044995D01*
X121267898Y-46506904D01*
X123704216Y-46121029D01*
X126159955Y-45888894D01*
X127311750Y-45852697D01*
X127260025Y-45915723D01*
X127260025Y-45915723D01*
G37*
X127260025Y-45915723D02*
X127195056Y-46037270D01*
X127189453Y-46047753D01*
X127145996Y-46191014D01*
X127134999Y-46302667D01*
X127134999Y-46302677D01*
X127131323Y-46339999D01*
X127134999Y-46377322D01*
X127135000Y-48822669D01*
X127131323Y-48860001D01*
X127145997Y-49008986D01*
X127189453Y-49152247D01*
X127260025Y-49284277D01*
X127324250Y-49362534D01*
X127354999Y-49400002D01*
X127383997Y-49423800D01*
X129065000Y-51104804D01*
X129065001Y-53970462D01*
X129037542Y-53965000D01*
X128860750Y-53965000D01*
X128702000Y-54123750D01*
X128702000Y-55323000D01*
X128722000Y-55323000D01*
X128722000Y-55577000D01*
X128702000Y-55577000D01*
X128702000Y-55597000D01*
X128448000Y-55597000D01*
X128448000Y-55577000D01*
X127698750Y-55577000D01*
X127540000Y-55735750D01*
X127540000Y-56362542D01*
X127564403Y-56485223D01*
X127612270Y-56600785D01*
X127681763Y-56704789D01*
X127770211Y-56793237D01*
X127840197Y-56840000D01*
X125514802Y-56840000D01*
X124863803Y-56189002D01*
X124840001Y-56159999D01*
X124724276Y-56065026D01*
X124592247Y-55994454D01*
X124448986Y-55950997D01*
X124337333Y-55940000D01*
X124337322Y-55940000D01*
X124300000Y-55936324D01*
X124262678Y-55940000D01*
X116237322Y-55940000D01*
X116199999Y-55936324D01*
X116162676Y-55940000D01*
X116162667Y-55940000D01*
X116051014Y-55950997D01*
X115907753Y-55994454D01*
X115775724Y-56065026D01*
X115659999Y-56159999D01*
X115636201Y-56188997D01*
X110485199Y-61340000D01*
X108049939Y-61340000D01*
X108012616Y-61336324D01*
X107975293Y-61340000D01*
X107975284Y-61340000D01*
X107863631Y-61350997D01*
X107720370Y-61394454D01*
X107588340Y-61465026D01*
X107531110Y-61511994D01*
X107472616Y-61559999D01*
X107448818Y-61588997D01*
X103097183Y-65940633D01*
X102933778Y-65826216D01*
X102824776Y-65764859D01*
X102705899Y-65725947D01*
X102581714Y-65710974D01*
X102456995Y-65720516D01*
X102336533Y-65754206D01*
X102224959Y-65810750D01*
X102126560Y-65887974D01*
X102045117Y-65982911D01*
X101012680Y-67457384D01*
X100951323Y-67566386D01*
X100912411Y-67685263D01*
X100897438Y-67809448D01*
X100906980Y-67934167D01*
X100940670Y-68054629D01*
X100997214Y-68166203D01*
X101074438Y-68264602D01*
X101169375Y-68346045D01*
X102316188Y-69149052D01*
X102425190Y-69210409D01*
X102544067Y-69249321D01*
X102668252Y-69264294D01*
X102792971Y-69254752D01*
X102913433Y-69221062D01*
X103025007Y-69164518D01*
X103123406Y-69087294D01*
X103204849Y-68992357D01*
X104237286Y-67517884D01*
X104298643Y-67408882D01*
X104337555Y-67290005D01*
X104352528Y-67165820D01*
X104342986Y-67041101D01*
X104309296Y-66920639D01*
X104294996Y-66892422D01*
X107723174Y-63464244D01*
X113370694Y-63464244D01*
X113430628Y-63998575D01*
X113593207Y-64511088D01*
X113852237Y-64982262D01*
X114197852Y-65394150D01*
X114616888Y-65731064D01*
X115093384Y-65980170D01*
X115609189Y-66131979D01*
X116144658Y-66180711D01*
X116679395Y-66124508D01*
X117193030Y-65965511D01*
X117666001Y-65709777D01*
X118080292Y-65367045D01*
X118420123Y-64950372D01*
X118672549Y-64475627D01*
X118827956Y-63960894D01*
X118880425Y-63425778D01*
X118879351Y-63348854D01*
X118850885Y-63123524D01*
X118972427Y-63268372D01*
X119391463Y-63605286D01*
X119867959Y-63854392D01*
X120383764Y-64006201D01*
X120919233Y-64054933D01*
X121453970Y-63998730D01*
X121967605Y-63839733D01*
X122440576Y-63583999D01*
X122585334Y-63464244D01*
X138370694Y-63464244D01*
X138430628Y-63998575D01*
X138593207Y-64511088D01*
X138852237Y-64982262D01*
X139197852Y-65394150D01*
X139616888Y-65731064D01*
X140093384Y-65980170D01*
X140609189Y-66131979D01*
X141144658Y-66180711D01*
X141679395Y-66124508D01*
X142193030Y-65965511D01*
X142666001Y-65709777D01*
X143080292Y-65367045D01*
X143420123Y-64950372D01*
X143672549Y-64475627D01*
X143827956Y-63960894D01*
X143880425Y-63425778D01*
X143879351Y-63348854D01*
X143811961Y-62815412D01*
X143642243Y-62305219D01*
X143376659Y-61837707D01*
X143025327Y-61430685D01*
X142601628Y-61099655D01*
X142121701Y-60857226D01*
X141603826Y-60712633D01*
X141067729Y-60671382D01*
X140533829Y-60735046D01*
X140022463Y-60901199D01*
X139553109Y-61163512D01*
X139143644Y-61511994D01*
X138809664Y-61933372D01*
X138563891Y-62411595D01*
X138415686Y-62928448D01*
X138370694Y-63464244D01*
X122585334Y-63464244D01*
X122854867Y-63241267D01*
X123194698Y-62824594D01*
X123447124Y-62349849D01*
X123602531Y-61835116D01*
X123655000Y-61300000D01*
X123653926Y-61223076D01*
X123586536Y-60689634D01*
X123416818Y-60179441D01*
X123151234Y-59711929D01*
X122799902Y-59304907D01*
X122376203Y-58973877D01*
X121896276Y-58731448D01*
X121378401Y-58586855D01*
X120842304Y-58545604D01*
X120308404Y-58609268D01*
X119797038Y-58775421D01*
X119327684Y-59037734D01*
X118918219Y-59386216D01*
X118584239Y-59807594D01*
X118338466Y-60285817D01*
X118190261Y-60802670D01*
X118145269Y-61338466D01*
X118175072Y-61604166D01*
X118025327Y-61430685D01*
X117601628Y-61099655D01*
X117121701Y-60857226D01*
X116603826Y-60712633D01*
X116067729Y-60671382D01*
X115533829Y-60735046D01*
X115022463Y-60901199D01*
X114553109Y-61163512D01*
X114143644Y-61511994D01*
X113809664Y-61933372D01*
X113563891Y-62411595D01*
X113415686Y-62928448D01*
X113370694Y-63464244D01*
X107723174Y-63464244D01*
X108327419Y-62860000D01*
X110762678Y-62860000D01*
X110800000Y-62863676D01*
X110837322Y-62860000D01*
X110837333Y-62860000D01*
X110948986Y-62849003D01*
X111092247Y-62805546D01*
X111224276Y-62734974D01*
X111340001Y-62640001D01*
X111363804Y-62610997D01*
X116514802Y-57460000D01*
X123985199Y-57460000D01*
X124636200Y-58111002D01*
X124659999Y-58140001D01*
X124775724Y-58234974D01*
X124907753Y-58305546D01*
X125051014Y-58349003D01*
X125162667Y-58360000D01*
X125162676Y-58360000D01*
X125199999Y-58363676D01*
X125237322Y-58360000D01*
X141185199Y-58360000D01*
X148936205Y-66111008D01*
X148959999Y-66140001D01*
X148988992Y-66163795D01*
X148988996Y-66163799D01*
X149009604Y-66180711D01*
X149075724Y-66234974D01*
X149207753Y-66305546D01*
X149351014Y-66349003D01*
X149462667Y-66360000D01*
X149462676Y-66360000D01*
X149499999Y-66363676D01*
X149537322Y-66360000D01*
X149985199Y-66360000D01*
X155125058Y-71499860D01*
X155125058Y-71520141D01*
X154810827Y-71604339D01*
X154693760Y-71648400D01*
X154587538Y-71714452D01*
X154496244Y-71799959D01*
X154423386Y-71901633D01*
X154371762Y-72015567D01*
X154343359Y-72137384D01*
X154339266Y-72262401D01*
X154359642Y-72385814D01*
X154688278Y-73612302D01*
X154605944Y-73584353D01*
X154481930Y-73568027D01*
X154357114Y-73576207D01*
X154236292Y-73608582D01*
X154210494Y-73615494D01*
X154098241Y-73809922D01*
X154343925Y-74726827D01*
X154363243Y-74721651D01*
X154428984Y-74966997D01*
X154409665Y-74972173D01*
X154414841Y-74991491D01*
X154169495Y-75057232D01*
X154164319Y-75037913D01*
X153464748Y-75225362D01*
X153352494Y-75419791D01*
X153385492Y-75542940D01*
X153360000Y-75563860D01*
X153336202Y-75592858D01*
X153336201Y-75592859D01*
X153265026Y-75679585D01*
X153194454Y-75811615D01*
X153168879Y-75895928D01*
X153150998Y-75954875D01*
X153145741Y-76008253D01*
X153136324Y-76103861D01*
X153140001Y-76141193D01*
X153140000Y-77177608D01*
X153136324Y-77214931D01*
X153140000Y-77252253D01*
X153140000Y-77252263D01*
X153150997Y-77363916D01*
X153185491Y-77477630D01*
X153194454Y-77507177D01*
X153265026Y-77639207D01*
X153295595Y-77676455D01*
X153359999Y-77754932D01*
X153389002Y-77778735D01*
X154292506Y-78682239D01*
X154316305Y-78711238D01*
X154345303Y-78735036D01*
X154432029Y-78806211D01*
X154515817Y-78850997D01*
X154564059Y-78876783D01*
X154707320Y-78920240D01*
X154818973Y-78931237D01*
X154818983Y-78931237D01*
X154856306Y-78934913D01*
X154893629Y-78931237D01*
X155485199Y-78931237D01*
X156614954Y-80060993D01*
X156638752Y-80089991D01*
X156754477Y-80184964D01*
X156886506Y-80255536D01*
X157029767Y-80298993D01*
X157141420Y-80309990D01*
X157141429Y-80309990D01*
X157178752Y-80313666D01*
X157216075Y-80309990D01*
X157289991Y-80309990D01*
X157289990Y-86935208D01*
X155085199Y-89140000D01*
X154337322Y-89140000D01*
X154299999Y-89136324D01*
X154262676Y-89140000D01*
X154262667Y-89140000D01*
X154151014Y-89150997D01*
X154007753Y-89194454D01*
X153875723Y-89265026D01*
X153801362Y-89326053D01*
X153759999Y-89359999D01*
X153736201Y-89388997D01*
X152088998Y-91036201D01*
X152060000Y-91059999D01*
X152036202Y-91088997D01*
X152036201Y-91088998D01*
X151965026Y-91175724D01*
X151894454Y-91307754D01*
X151875029Y-91371793D01*
X151851919Y-91447980D01*
X151850998Y-91451015D01*
X151836324Y-91600000D01*
X151840001Y-91637332D01*
X151840000Y-95862677D01*
X151836324Y-95900000D01*
X151840000Y-95937322D01*
X151840000Y-95937332D01*
X151850997Y-96048985D01*
X151894454Y-96192246D01*
X151965026Y-96324276D01*
X151987640Y-96351831D01*
X152059999Y-96440001D01*
X152089003Y-96463804D01*
X154236201Y-98611003D01*
X154259999Y-98640001D01*
X154375724Y-98734974D01*
X154507753Y-98805546D01*
X154651014Y-98849003D01*
X154740001Y-98857768D01*
X154740000Y-99485198D01*
X150885199Y-103340000D01*
X147765200Y-103340000D01*
X147670424Y-103262703D01*
X147616833Y-103227097D01*
X147563730Y-103190737D01*
X147555010Y-103186022D01*
X147423702Y-103116204D01*
X147364234Y-103091693D01*
X147305059Y-103066331D01*
X147295589Y-103063399D01*
X147153221Y-103020416D01*
X147090159Y-103007929D01*
X147027149Y-102994536D01*
X147017290Y-102993500D01*
X146869283Y-102978988D01*
X146838240Y-102978988D01*
X146807377Y-102975638D01*
X146797464Y-102975605D01*
X146792144Y-102975624D01*
X146761322Y-102978757D01*
X146730331Y-102978541D01*
X146720465Y-102979508D01*
X146572564Y-102995053D01*
X146509504Y-103007997D01*
X146446320Y-103020050D01*
X146436830Y-103022915D01*
X146294764Y-103066891D01*
X146235461Y-103091820D01*
X146175773Y-103115935D01*
X146167027Y-103120586D01*
X146167023Y-103120588D01*
X146167022Y-103120589D01*
X146167020Y-103120590D01*
X146036202Y-103191322D01*
X145982841Y-103227314D01*
X145929005Y-103262544D01*
X145921332Y-103268802D01*
X145921324Y-103268808D01*
X145921317Y-103268815D01*
X145806734Y-103363606D01*
X145761395Y-103409264D01*
X145715415Y-103454291D01*
X145709096Y-103461929D01*
X145615103Y-103577176D01*
X145579497Y-103630767D01*
X145543137Y-103683870D01*
X145538422Y-103692590D01*
X145468604Y-103823898D01*
X145444093Y-103883366D01*
X145418731Y-103942541D01*
X145415799Y-103952011D01*
X145372816Y-104094379D01*
X145360329Y-104157441D01*
X145346936Y-104220451D01*
X145345900Y-104230310D01*
X145331388Y-104378317D01*
X145331388Y-104378323D01*
X145324565Y-104447600D01*
X145338273Y-104586784D01*
X145342282Y-104600000D01*
X145338273Y-104613216D01*
X145324565Y-104752400D01*
X145330973Y-104817465D01*
X145330941Y-104822069D01*
X145331908Y-104831935D01*
X145347453Y-104979836D01*
X145360399Y-105042902D01*
X145372450Y-105106080D01*
X145375315Y-105115570D01*
X145419291Y-105257637D01*
X145444225Y-105316953D01*
X145468335Y-105376627D01*
X145472989Y-105385380D01*
X145543722Y-105516198D01*
X145579692Y-105569526D01*
X145614944Y-105623396D01*
X145621210Y-105631078D01*
X145716006Y-105745666D01*
X145761661Y-105791003D01*
X145806690Y-105836985D01*
X145814329Y-105843304D01*
X145929575Y-105937297D01*
X145983177Y-105972910D01*
X146036270Y-106009263D01*
X146040000Y-106011280D01*
X146040000Y-106585198D01*
X139685199Y-112940000D01*
X131962333Y-112940000D01*
X131925000Y-112936323D01*
X131887667Y-112940000D01*
X131776014Y-112950997D01*
X131632753Y-112994454D01*
X131500724Y-113065026D01*
X131384999Y-113159999D01*
X131361201Y-113188997D01*
X131075000Y-113475198D01*
X130488804Y-112889003D01*
X130465001Y-112859999D01*
X130349276Y-112765026D01*
X130217247Y-112694454D01*
X130073986Y-112650997D01*
X129962333Y-112640000D01*
X129962322Y-112640000D01*
X129925000Y-112636324D01*
X129887678Y-112640000D01*
X127315632Y-112640000D01*
X127224276Y-112565026D01*
X127092247Y-112494454D01*
X126948986Y-112450997D01*
X126837333Y-112440000D01*
X126837322Y-112440000D01*
X126800000Y-112436324D01*
X126762678Y-112440000D01*
X116214802Y-112440000D01*
X110540316Y-106765514D01*
X113370694Y-106765514D01*
X113430628Y-107299845D01*
X113593207Y-107812358D01*
X113852237Y-108283532D01*
X114197852Y-108695420D01*
X114616888Y-109032334D01*
X115093384Y-109281440D01*
X115609189Y-109433249D01*
X116144658Y-109481981D01*
X116679395Y-109425778D01*
X117193030Y-109266781D01*
X117666001Y-109011047D01*
X118080292Y-108668315D01*
X118173600Y-108553909D01*
X118145269Y-108891292D01*
X118205203Y-109425623D01*
X118367782Y-109938136D01*
X118626812Y-110409310D01*
X118972427Y-110821198D01*
X119391463Y-111158112D01*
X119867959Y-111407218D01*
X120383764Y-111559027D01*
X120919233Y-111607759D01*
X121453970Y-111551556D01*
X121967605Y-111392559D01*
X122440576Y-111136825D01*
X122854867Y-110794093D01*
X123194698Y-110377420D01*
X123447124Y-109902675D01*
X123602531Y-109387942D01*
X123655000Y-108852826D01*
X123653926Y-108775902D01*
X123586536Y-108242460D01*
X123416818Y-107732267D01*
X123151234Y-107264755D01*
X122799902Y-106857733D01*
X122681868Y-106765514D01*
X138370694Y-106765514D01*
X138430628Y-107299845D01*
X138593207Y-107812358D01*
X138852237Y-108283532D01*
X139197852Y-108695420D01*
X139616888Y-109032334D01*
X140093384Y-109281440D01*
X140609189Y-109433249D01*
X141144658Y-109481981D01*
X141679395Y-109425778D01*
X142193030Y-109266781D01*
X142666001Y-109011047D01*
X143080292Y-108668315D01*
X143420123Y-108251642D01*
X143672549Y-107776897D01*
X143827956Y-107262164D01*
X143880425Y-106727048D01*
X143879351Y-106650124D01*
X143811961Y-106116682D01*
X143642243Y-105606489D01*
X143376659Y-105138977D01*
X143025327Y-104731955D01*
X142601628Y-104400925D01*
X142121701Y-104158496D01*
X141603826Y-104013903D01*
X141067729Y-103972652D01*
X140533829Y-104036316D01*
X140022463Y-104202469D01*
X139553109Y-104464782D01*
X139143644Y-104813264D01*
X138809664Y-105234642D01*
X138563891Y-105712865D01*
X138415686Y-106229718D01*
X138370694Y-106765514D01*
X122681868Y-106765514D01*
X122376203Y-106526703D01*
X121896276Y-106284274D01*
X121378401Y-106139681D01*
X120842304Y-106098430D01*
X120308404Y-106162094D01*
X119797038Y-106328247D01*
X119327684Y-106590560D01*
X118918219Y-106939042D01*
X118851369Y-107023386D01*
X118880425Y-106727048D01*
X118879351Y-106650124D01*
X118811961Y-106116682D01*
X118642243Y-105606489D01*
X118376659Y-105138977D01*
X118025327Y-104731955D01*
X117601628Y-104400925D01*
X117121701Y-104158496D01*
X116603826Y-104013903D01*
X116067729Y-103972652D01*
X115533829Y-104036316D01*
X115022463Y-104202469D01*
X114553109Y-104464782D01*
X114143644Y-104813264D01*
X113809664Y-105234642D01*
X113563891Y-105712865D01*
X113415686Y-106229718D01*
X113370694Y-106765514D01*
X110540316Y-106765514D01*
X106988184Y-103213383D01*
X106988184Y-101965045D01*
X107683792Y-101477975D01*
X107778729Y-101396532D01*
X107855953Y-101298133D01*
X107912497Y-101186559D01*
X107946187Y-101066097D01*
X107955729Y-100941378D01*
X107940756Y-100817193D01*
X107901844Y-100698316D01*
X107840487Y-100589314D01*
X106808050Y-99114841D01*
X106726607Y-99019904D01*
X106628208Y-98942680D01*
X106516634Y-98886136D01*
X106396172Y-98852446D01*
X106271453Y-98842904D01*
X106147268Y-98857877D01*
X106028391Y-98896789D01*
X105919389Y-98958146D01*
X104772576Y-99761153D01*
X104677639Y-99842596D01*
X104600415Y-99940995D01*
X104543871Y-100052569D01*
X104510181Y-100173031D01*
X104500639Y-100297750D01*
X104515612Y-100421935D01*
X104554524Y-100540812D01*
X104615881Y-100649814D01*
X105468185Y-101867030D01*
X105468184Y-103490861D01*
X105464508Y-103528184D01*
X105468184Y-103565506D01*
X105468184Y-103565516D01*
X105475520Y-103640000D01*
X104469602Y-103640000D01*
X104418403Y-103566881D01*
X104639496Y-103605865D01*
X105030061Y-103332388D01*
X105116558Y-103242032D01*
X105183766Y-103136538D01*
X105229101Y-103019958D01*
X105250822Y-102896774D01*
X105248093Y-102771719D01*
X105221020Y-102649601D01*
X105170642Y-102535110D01*
X105098897Y-102432647D01*
X104782450Y-101980714D01*
X104561355Y-101941729D01*
X103701860Y-102543554D01*
X103713332Y-102559937D01*
X103505266Y-102705626D01*
X103493795Y-102689243D01*
X102634300Y-103291068D01*
X102595314Y-103512163D01*
X102684826Y-103640000D01*
X101314802Y-103640000D01*
X101160000Y-103485199D01*
X101160000Y-103437332D01*
X101162462Y-103412339D01*
X101964103Y-102610699D01*
X102267516Y-103044018D01*
X102488611Y-103083003D01*
X103348106Y-102481178D01*
X103336634Y-102464795D01*
X103544700Y-102319106D01*
X103556171Y-102335489D01*
X104415666Y-101733664D01*
X104454652Y-101512569D01*
X104138205Y-101060636D01*
X104066460Y-100958173D01*
X103976103Y-100871676D01*
X103870609Y-100804468D01*
X103798410Y-100776392D01*
X103986021Y-100588781D01*
X104015018Y-100564984D01*
X104109991Y-100449259D01*
X104180563Y-100317230D01*
X104224020Y-100173969D01*
X104235017Y-100062316D01*
X104235017Y-100062308D01*
X104238693Y-100024983D01*
X104235017Y-99987658D01*
X104235017Y-98691579D01*
X106881454Y-98691579D01*
X107097573Y-99000229D01*
X107187930Y-99086726D01*
X107293424Y-99153934D01*
X107410003Y-99199269D01*
X107533187Y-99220990D01*
X107658242Y-99218261D01*
X107780360Y-99191188D01*
X107894851Y-99140811D01*
X107997314Y-99069065D01*
X108019192Y-99053746D01*
X108058177Y-98832651D01*
X107513710Y-98055071D01*
X106920439Y-98470483D01*
X106881454Y-98691579D01*
X104235017Y-98691579D01*
X104235017Y-98033115D01*
X104930625Y-97546045D01*
X105025562Y-97464602D01*
X105102786Y-97366203D01*
X105159330Y-97254629D01*
X105193020Y-97134167D01*
X105197026Y-97081806D01*
X105750527Y-97081806D01*
X105969388Y-97394371D01*
X106050831Y-97489308D01*
X106149230Y-97566532D01*
X106258862Y-97622092D01*
X106260086Y-97678174D01*
X106287159Y-97800292D01*
X106337536Y-97914784D01*
X106553655Y-98223434D01*
X106774751Y-98262419D01*
X107278939Y-97909382D01*
X107721775Y-97909382D01*
X108266242Y-98686962D01*
X108487338Y-98725947D01*
X108509216Y-98710628D01*
X108611678Y-98638883D01*
X108698176Y-98548526D01*
X108765383Y-98443032D01*
X108810719Y-98326453D01*
X108832439Y-98203269D01*
X108829710Y-98078214D01*
X108802637Y-97956096D01*
X108752260Y-97841604D01*
X108536141Y-97532954D01*
X108315045Y-97493969D01*
X107721775Y-97909382D01*
X107278939Y-97909382D01*
X107368021Y-97847006D01*
X107356549Y-97830623D01*
X107564615Y-97684934D01*
X107576086Y-97701317D01*
X108169357Y-97285905D01*
X108208342Y-97064809D01*
X107992223Y-96756159D01*
X107901866Y-96669662D01*
X107796372Y-96602454D01*
X107744089Y-96582122D01*
X107729377Y-96460102D01*
X107690465Y-96341224D01*
X107629108Y-96232223D01*
X106940816Y-95249241D01*
X106859373Y-95154304D01*
X106760974Y-95077080D01*
X106649400Y-95020536D01*
X106528938Y-94986846D01*
X106404219Y-94977304D01*
X106280034Y-94992277D01*
X106161157Y-95031189D01*
X106052155Y-95092546D01*
X105437791Y-95522728D01*
X105392238Y-95561806D01*
X104320188Y-95561806D01*
X104054883Y-95182911D01*
X103973440Y-95087974D01*
X103875041Y-95010750D01*
X103763467Y-94954206D01*
X103643005Y-94920516D01*
X103518286Y-94910974D01*
X103394101Y-94925947D01*
X103275224Y-94964859D01*
X103166222Y-95026216D01*
X102019409Y-95829223D01*
X101924472Y-95910666D01*
X101911155Y-95927634D01*
X100849379Y-95927634D01*
X99760000Y-94838256D01*
X99760000Y-85114879D01*
X100870694Y-85114879D01*
X100930628Y-85649210D01*
X101093207Y-86161723D01*
X101352237Y-86632897D01*
X101697852Y-87044785D01*
X102116888Y-87381699D01*
X102593384Y-87630805D01*
X103109189Y-87782614D01*
X103644658Y-87831346D01*
X104179395Y-87775143D01*
X104693030Y-87616146D01*
X105166001Y-87360412D01*
X105580292Y-87017680D01*
X105920123Y-86601007D01*
X106172549Y-86126262D01*
X106325484Y-85619716D01*
X107877537Y-85619716D01*
X108007973Y-87461934D01*
X108301656Y-89285263D01*
X108756259Y-91075268D01*
X109368184Y-92817774D01*
X110132585Y-94498986D01*
X111043410Y-96105591D01*
X112093447Y-97624868D01*
X113274382Y-99044788D01*
X114576864Y-100354108D01*
X115990582Y-101542462D01*
X117504340Y-102600439D01*
X119106153Y-103519664D01*
X120783339Y-104292857D01*
X122522618Y-104913897D01*
X124310218Y-105377866D01*
X126131985Y-105681092D01*
X127973495Y-105821172D01*
X129820166Y-105796997D01*
X131657378Y-105608760D01*
X133470584Y-105257951D01*
X135245425Y-104747346D01*
X136967851Y-104080990D01*
X138624223Y-103264158D01*
X140201425Y-102303318D01*
X141686970Y-101206077D01*
X143069095Y-99981124D01*
X143231098Y-99809510D01*
X146096119Y-99809510D01*
X146156053Y-100343841D01*
X146318632Y-100856354D01*
X146577662Y-101327528D01*
X146923277Y-101739416D01*
X147342313Y-102076330D01*
X147818809Y-102325436D01*
X148334614Y-102477245D01*
X148870083Y-102525977D01*
X149404820Y-102469774D01*
X149918455Y-102310777D01*
X150391426Y-102055043D01*
X150805717Y-101712311D01*
X151145548Y-101295638D01*
X151397974Y-100820893D01*
X151553381Y-100306160D01*
X151605850Y-99771044D01*
X151604776Y-99694120D01*
X151537386Y-99160678D01*
X151367668Y-98650485D01*
X151102084Y-98182973D01*
X150750752Y-97775951D01*
X150327053Y-97444921D01*
X149847126Y-97202492D01*
X149329251Y-97057899D01*
X148793154Y-97016648D01*
X148259254Y-97080312D01*
X147747888Y-97246465D01*
X147278534Y-97508778D01*
X146869069Y-97857260D01*
X146535089Y-98278638D01*
X146289316Y-98756861D01*
X146141111Y-99273714D01*
X146096119Y-99809510D01*
X143231098Y-99809510D01*
X144336857Y-98638158D01*
X145480219Y-97187811D01*
X146490126Y-95641568D01*
X147358583Y-94011671D01*
X148078713Y-92311026D01*
X148644814Y-90553098D01*
X149052405Y-88751807D01*
X149298257Y-86921414D01*
X149378711Y-85114879D01*
X150870694Y-85114879D01*
X150930628Y-85649210D01*
X151093207Y-86161723D01*
X151352237Y-86632897D01*
X151697852Y-87044785D01*
X152116888Y-87381699D01*
X152593384Y-87630805D01*
X153109189Y-87782614D01*
X153644658Y-87831346D01*
X154179395Y-87775143D01*
X154693030Y-87616146D01*
X155166001Y-87360412D01*
X155580292Y-87017680D01*
X155920123Y-86601007D01*
X156172549Y-86126262D01*
X156327956Y-85611529D01*
X156380425Y-85076413D01*
X156379351Y-84999489D01*
X156311961Y-84466047D01*
X156142243Y-83955854D01*
X155876659Y-83488342D01*
X155525327Y-83081320D01*
X155101628Y-82750290D01*
X154621701Y-82507861D01*
X154103826Y-82363268D01*
X153567729Y-82322017D01*
X153033829Y-82385681D01*
X152522463Y-82551834D01*
X152053109Y-82814147D01*
X151643644Y-83162629D01*
X151309664Y-83584007D01*
X151063891Y-84062230D01*
X150915686Y-84579083D01*
X150870694Y-85114879D01*
X149378711Y-85114879D01*
X149380425Y-85076413D01*
X149351981Y-83990180D01*
X149173366Y-82152008D01*
X148832055Y-80336991D01*
X148330751Y-78559500D01*
X147673422Y-76833609D01*
X146865274Y-75172983D01*
X146387254Y-74378994D01*
X153098878Y-74378994D01*
X153107058Y-74503811D01*
X153204579Y-74867764D01*
X153399008Y-74980017D01*
X154098579Y-74792567D01*
X153852895Y-73875662D01*
X153658467Y-73763409D01*
X153632669Y-73770322D01*
X153511847Y-73802696D01*
X153399663Y-73858019D01*
X153300427Y-73934165D01*
X153217953Y-74028208D01*
X153155411Y-74136535D01*
X153115204Y-74254981D01*
X153098878Y-74378994D01*
X146387254Y-74378994D01*
X145912705Y-73590771D01*
X144823258Y-72099502D01*
X143605559Y-70710981D01*
X143300792Y-70420248D01*
X146096119Y-70420248D01*
X146156053Y-70954579D01*
X146318632Y-71467092D01*
X146577662Y-71938266D01*
X146923277Y-72350154D01*
X147342313Y-72687068D01*
X147818809Y-72936174D01*
X148334614Y-73087983D01*
X148870083Y-73136715D01*
X149404820Y-73080512D01*
X149918455Y-72921515D01*
X150391426Y-72665781D01*
X150805717Y-72323049D01*
X151145548Y-71906376D01*
X151397974Y-71431631D01*
X151553381Y-70916898D01*
X151605850Y-70381782D01*
X151604776Y-70304858D01*
X151537386Y-69771416D01*
X151367668Y-69261223D01*
X151102084Y-68793711D01*
X150750752Y-68386689D01*
X150327053Y-68055659D01*
X149847126Y-67813230D01*
X149329251Y-67668637D01*
X148793154Y-67627386D01*
X148259254Y-67691050D01*
X147747888Y-67857203D01*
X147278534Y-68119516D01*
X146869069Y-68467998D01*
X146535089Y-68889376D01*
X146289316Y-69367599D01*
X146141111Y-69884452D01*
X146096119Y-70420248D01*
X143300792Y-70420248D01*
X142269248Y-69436205D01*
X140824908Y-68285265D01*
X139283974Y-67267276D01*
X137658646Y-66390297D01*
X135961795Y-65661272D01*
X134206856Y-65085974D01*
X132407723Y-64668957D01*
X130578643Y-64413524D01*
X128734097Y-64321698D01*
X126888691Y-64394204D01*
X125057037Y-64630469D01*
X123253636Y-65028622D01*
X121492768Y-65585512D01*
X119788376Y-66296728D01*
X118153954Y-67156638D01*
X116602444Y-68158436D01*
X115146131Y-69294187D01*
X113796545Y-70554900D01*
X112564371Y-71930593D01*
X111459368Y-73410372D01*
X110490283Y-74982522D01*
X109664789Y-76634594D01*
X108989423Y-78353507D01*
X108469533Y-80125651D01*
X108109234Y-81936995D01*
X107911380Y-83773196D01*
X107877537Y-85619716D01*
X106325484Y-85619716D01*
X106327956Y-85611529D01*
X106380425Y-85076413D01*
X106379351Y-84999489D01*
X106311961Y-84466047D01*
X106142243Y-83955854D01*
X105876659Y-83488342D01*
X105525327Y-83081320D01*
X105101628Y-82750290D01*
X104621701Y-82507861D01*
X104103826Y-82363268D01*
X103567729Y-82322017D01*
X103033829Y-82385681D01*
X102522463Y-82551834D01*
X102053109Y-82814147D01*
X101643644Y-83162629D01*
X101309664Y-83584007D01*
X101063891Y-84062230D01*
X100915686Y-84579083D01*
X100870694Y-85114879D01*
X99760000Y-85114879D01*
X99760000Y-77838594D01*
X101938595Y-75660000D01*
X103062678Y-75660000D01*
X103100000Y-75663676D01*
X103137322Y-75660000D01*
X103137333Y-75660000D01*
X103248986Y-75649003D01*
X103392247Y-75605546D01*
X103524276Y-75534974D01*
X103640001Y-75440001D01*
X103663804Y-75410997D01*
X104542150Y-74532651D01*
X105041823Y-74532651D01*
X105080808Y-74753746D01*
X105102686Y-74769065D01*
X105205149Y-74840811D01*
X105319640Y-74891188D01*
X105441758Y-74918261D01*
X105566813Y-74920990D01*
X105689997Y-74899269D01*
X105806576Y-74853934D01*
X105912070Y-74786726D01*
X106002427Y-74700229D01*
X106218546Y-74391579D01*
X106179561Y-74170483D01*
X105586290Y-73755071D01*
X105041823Y-74532651D01*
X104542150Y-74532651D01*
X104656602Y-74418199D01*
X104833758Y-74386962D01*
X105174570Y-73900231D01*
X105626246Y-73448555D01*
X105743451Y-73530623D01*
X105731979Y-73547006D01*
X106325249Y-73962419D01*
X106546345Y-73923434D01*
X106762464Y-73614784D01*
X106812841Y-73500292D01*
X106839914Y-73378174D01*
X106841138Y-73322091D01*
X106950770Y-73266533D01*
X107049169Y-73189308D01*
X107130612Y-73094371D01*
X107818904Y-72111389D01*
X107880261Y-72002387D01*
X107919173Y-71883510D01*
X107934146Y-71759325D01*
X107924604Y-71634606D01*
X107890914Y-71514144D01*
X107834370Y-71402570D01*
X107757146Y-71304171D01*
X107662209Y-71222728D01*
X107404898Y-71042557D01*
X107404898Y-70734475D01*
X107408574Y-70697150D01*
X107404898Y-70659825D01*
X107404898Y-70659817D01*
X107393901Y-70548164D01*
X107350444Y-70404903D01*
X107279872Y-70272874D01*
X107184899Y-70157149D01*
X107155901Y-70133351D01*
X106731582Y-69709033D01*
X106940487Y-69410686D01*
X107001844Y-69301684D01*
X107040756Y-69182807D01*
X107055729Y-69058622D01*
X107046187Y-68933903D01*
X107012497Y-68813441D01*
X106955953Y-68701867D01*
X106878729Y-68603468D01*
X106783792Y-68522025D01*
X105636979Y-67719018D01*
X105527977Y-67657661D01*
X105409100Y-67618749D01*
X105284915Y-67603776D01*
X105160196Y-67613318D01*
X105039734Y-67647008D01*
X104928160Y-67703552D01*
X104829761Y-67780776D01*
X104748318Y-67875713D01*
X103715881Y-69350186D01*
X103654524Y-69459188D01*
X103615612Y-69578065D01*
X103600639Y-69702250D01*
X103610181Y-69826969D01*
X103643871Y-69947431D01*
X103700415Y-70059005D01*
X103777639Y-70157404D01*
X103872576Y-70238847D01*
X105019389Y-71041854D01*
X105128391Y-71103211D01*
X105247268Y-71142123D01*
X105371453Y-71157096D01*
X105496172Y-71147554D01*
X105616634Y-71113864D01*
X105728208Y-71057320D01*
X105826607Y-70980096D01*
X105838813Y-70965867D01*
X105884899Y-71011953D01*
X105884899Y-71267318D01*
X105829208Y-71272803D01*
X105685947Y-71316260D01*
X105553917Y-71386832D01*
X105486320Y-71442308D01*
X105438193Y-71481805D01*
X105414395Y-71510803D01*
X104232590Y-72692608D01*
X104202786Y-72633797D01*
X104125562Y-72535398D01*
X104030625Y-72453955D01*
X102883812Y-71650948D01*
X102774810Y-71589591D01*
X102655933Y-71550679D01*
X102531748Y-71535706D01*
X102407029Y-71545248D01*
X102286567Y-71578938D01*
X102174993Y-71635482D01*
X102076594Y-71712706D01*
X101995151Y-71807643D01*
X100962714Y-73282116D01*
X100901357Y-73391118D01*
X100862445Y-73509995D01*
X100847472Y-73634180D01*
X100857014Y-73758899D01*
X100890704Y-73879361D01*
X100905004Y-73907577D01*
X97988998Y-76823584D01*
X97960000Y-76847382D01*
X97936202Y-76876380D01*
X97936201Y-76876381D01*
X97865026Y-76963107D01*
X97794454Y-77095137D01*
X97750998Y-77238398D01*
X97736324Y-77387383D01*
X97740001Y-77424716D01*
X97740000Y-96271298D01*
X97736324Y-96308620D01*
X97740000Y-96345942D01*
X97740000Y-96345952D01*
X97750997Y-96457605D01*
X97785271Y-96570593D01*
X97794454Y-96600866D01*
X97865026Y-96732896D01*
X97892511Y-96766386D01*
X97959999Y-96848621D01*
X97989003Y-96872424D01*
X99101803Y-97985224D01*
X99087503Y-98013441D01*
X99053813Y-98133903D01*
X99044271Y-98258622D01*
X99059244Y-98382807D01*
X99098156Y-98501684D01*
X99159513Y-98610686D01*
X100191950Y-100085159D01*
X100273393Y-100180096D01*
X100371792Y-100257320D01*
X100483366Y-100313864D01*
X100603828Y-100347554D01*
X100728547Y-100357096D01*
X100852732Y-100342123D01*
X100971609Y-100303211D01*
X101080611Y-100241854D01*
X102227424Y-99438847D01*
X102322361Y-99357404D01*
X102399585Y-99259005D01*
X102456129Y-99147431D01*
X102489819Y-99026969D01*
X102499361Y-98902250D01*
X102484388Y-98778065D01*
X102445476Y-98659188D01*
X102384119Y-98550186D01*
X101612104Y-97447634D01*
X102373690Y-97447634D01*
X102715018Y-97935100D01*
X102715017Y-99710181D01*
X99889003Y-102536196D01*
X99859999Y-102559999D01*
X99805255Y-102626705D01*
X99786431Y-102649643D01*
X99772680Y-102650997D01*
X99629419Y-102694454D01*
X99497390Y-102765026D01*
X99381665Y-102859999D01*
X99357867Y-102888997D01*
X99189381Y-103057483D01*
X99060733Y-102873754D01*
X98839637Y-102834769D01*
X97693439Y-103637346D01*
X97704910Y-103653729D01*
X97496845Y-103799418D01*
X97485374Y-103783035D01*
X97468991Y-103794507D01*
X97323302Y-103586441D01*
X97339685Y-103574970D01*
X96852576Y-102879305D01*
X96631480Y-102840320D01*
X96279859Y-103086528D01*
X96129271Y-102871466D01*
X96038915Y-102784968D01*
X95958310Y-102733617D01*
X97060640Y-102733617D01*
X97547750Y-103429281D01*
X98693949Y-102626705D01*
X98732934Y-102405609D01*
X98574172Y-102178874D01*
X98483816Y-102092377D01*
X98378322Y-102025169D01*
X98261742Y-101979834D01*
X98138558Y-101958113D01*
X98013503Y-101960842D01*
X97891385Y-101987915D01*
X97776894Y-102038293D01*
X97674431Y-102110038D01*
X97099625Y-102512521D01*
X97060640Y-102733617D01*
X95958310Y-102733617D01*
X95933421Y-102717761D01*
X95816841Y-102672425D01*
X95693657Y-102650705D01*
X95568602Y-102653434D01*
X95446484Y-102680507D01*
X95331993Y-102730884D01*
X95229530Y-102802629D01*
X94736640Y-103147755D01*
X94697655Y-103368851D01*
X95579098Y-104627682D01*
X95595481Y-104616210D01*
X95741170Y-104824276D01*
X95724787Y-104835747D01*
X96229103Y-105555986D01*
X96229103Y-105555987D01*
X96766401Y-106323327D01*
X96782784Y-106311855D01*
X96928473Y-106519921D01*
X96912090Y-106531392D01*
X97449387Y-107298733D01*
X97449388Y-107298733D01*
X97730010Y-107699502D01*
X97746393Y-107688030D01*
X97892082Y-107896096D01*
X97875699Y-107907567D01*
X98035870Y-108136315D01*
X98035870Y-108136316D01*
X98198634Y-108368767D01*
X98365531Y-108607120D01*
X98917313Y-109395147D01*
X98933696Y-109383675D01*
X99079385Y-109591741D01*
X99063002Y-109603212D01*
X99944445Y-110862044D01*
X100165541Y-110901029D01*
X100658431Y-110555904D01*
X100760894Y-110484158D01*
X100847391Y-110393802D01*
X100914599Y-110288308D01*
X100959934Y-110171728D01*
X100981655Y-110048544D01*
X100978926Y-109923489D01*
X100951853Y-109801371D01*
X100901476Y-109686880D01*
X100715039Y-109420621D01*
X101066660Y-109174414D01*
X101105645Y-108953318D01*
X100482311Y-108063105D01*
X100465928Y-108074577D01*
X100355883Y-107917416D01*
X100690376Y-107917416D01*
X101313710Y-108807630D01*
X101534805Y-108846615D01*
X102109611Y-108444132D01*
X102212074Y-108372386D01*
X102298571Y-108282030D01*
X102365779Y-108176536D01*
X102411114Y-108059956D01*
X102432835Y-107936772D01*
X102430106Y-107811717D01*
X102403033Y-107689599D01*
X102352655Y-107575108D01*
X102057670Y-107153824D01*
X101836574Y-107114839D01*
X100690376Y-107917416D01*
X100355883Y-107917416D01*
X100320239Y-107866511D01*
X100336622Y-107855040D01*
X100325151Y-107838657D01*
X100533216Y-107692968D01*
X100544687Y-107709351D01*
X101690886Y-106906775D01*
X101729871Y-106685679D01*
X101720263Y-106671958D01*
X101751016Y-106650425D01*
X101837514Y-106560068D01*
X101904721Y-106454574D01*
X101950057Y-106337994D01*
X101971777Y-106214810D01*
X101969048Y-106089756D01*
X101941975Y-105967638D01*
X101891598Y-105853146D01*
X101882253Y-105839801D01*
X101661158Y-105800815D01*
X101225902Y-106105584D01*
X101122455Y-106065355D01*
X100999271Y-106043635D01*
X100919618Y-106045373D01*
X101532103Y-105616506D01*
X101571088Y-105395411D01*
X101561743Y-105382065D01*
X101471387Y-105295568D01*
X101365893Y-105228360D01*
X101249313Y-105183024D01*
X101126129Y-105161304D01*
X101001074Y-105164033D01*
X100878956Y-105191106D01*
X100764465Y-105241483D01*
X100662002Y-105313228D01*
X100458594Y-105455656D01*
X99863924Y-104801518D01*
X100136121Y-104610923D01*
X100436200Y-104911002D01*
X100459999Y-104940001D01*
X100488997Y-104963799D01*
X100575723Y-105034974D01*
X100683587Y-105092629D01*
X100707753Y-105105546D01*
X100851014Y-105149003D01*
X100962667Y-105160000D01*
X100962676Y-105160000D01*
X100999999Y-105163676D01*
X101037322Y-105160000D01*
X106085199Y-105160000D01*
X115136200Y-114211002D01*
X115159999Y-114240001D01*
X115188997Y-114263799D01*
X115275723Y-114334974D01*
X115347087Y-114373119D01*
X115407753Y-114405546D01*
X115551014Y-114449003D01*
X115662667Y-114460000D01*
X115662676Y-114460000D01*
X115699999Y-114463676D01*
X115737322Y-114460000D01*
X126320291Y-114460000D01*
X126350734Y-114484984D01*
X126482763Y-114555556D01*
X126626024Y-114599013D01*
X126737677Y-114610010D01*
X126737686Y-114610010D01*
X126775009Y-114613686D01*
X126812332Y-114610010D01*
X127630406Y-114610010D01*
X127615000Y-114687458D01*
X127615000Y-115314250D01*
X127773750Y-115473000D01*
X128523000Y-115473000D01*
X128523000Y-115453000D01*
X128777000Y-115453000D01*
X128777000Y-115473000D01*
X128797000Y-115473000D01*
X128797000Y-115727000D01*
X128777000Y-115727000D01*
X128777000Y-116926250D01*
X128935750Y-117085000D01*
X129112542Y-117085000D01*
X129140000Y-117079538D01*
X129140001Y-118485197D01*
X127888072Y-119737127D01*
X127888072Y-116971876D01*
X127949215Y-117012730D01*
X128064777Y-117060597D01*
X128187458Y-117085000D01*
X128364250Y-117085000D01*
X128523000Y-116926250D01*
X128523000Y-115727000D01*
X127773750Y-115727000D01*
X127615000Y-115885750D01*
X127615000Y-116428085D01*
X127604494Y-116419463D01*
X127494180Y-116360498D01*
X127374482Y-116324188D01*
X127250000Y-116311928D01*
X125050000Y-116311928D01*
X124925518Y-116324188D01*
X124805820Y-116360498D01*
X124695506Y-116419463D01*
X124598815Y-116498815D01*
X124519463Y-116595506D01*
X124460498Y-116705820D01*
X124424188Y-116825518D01*
X124411928Y-116950000D01*
X124411928Y-120050000D01*
X124424188Y-120174482D01*
X124460498Y-120294180D01*
X124519463Y-120404494D01*
X124598815Y-120501185D01*
X124695506Y-120580537D01*
X124805820Y-120639502D01*
X124925518Y-120675812D01*
X125050000Y-120688072D01*
X127147347Y-120688072D01*
X127140000Y-120762668D01*
X127140000Y-120762678D01*
X127136324Y-120800000D01*
X127140000Y-120837323D01*
X127140001Y-123227670D01*
X127136324Y-123265002D01*
X127140001Y-123302335D01*
X127150998Y-123413988D01*
X127161922Y-123450001D01*
X127194454Y-123557248D01*
X127265026Y-123689278D01*
X127325307Y-123762730D01*
X127360000Y-123805003D01*
X127388998Y-123828801D01*
X127596195Y-124035998D01*
X127619998Y-124065002D01*
X127735723Y-124159975D01*
X127867752Y-124230547D01*
X128011013Y-124274004D01*
X128122666Y-124285001D01*
X128122675Y-124285001D01*
X128159998Y-124288677D01*
X128197321Y-124285001D01*
X130420473Y-124285001D01*
X128625425Y-124341413D01*
X126159955Y-124263932D01*
X123704216Y-124031797D01*
X121267898Y-123645922D01*
X118860617Y-123107831D01*
X116491873Y-122419647D01*
X114171014Y-121584087D01*
X111907201Y-120604447D01*
X109709367Y-119484595D01*
X107878558Y-118401857D01*
X115055099Y-118401857D01*
X115115033Y-118936188D01*
X115277612Y-119448701D01*
X115536642Y-119919875D01*
X115882257Y-120331763D01*
X116301293Y-120668677D01*
X116777789Y-120917783D01*
X117293594Y-121069592D01*
X117829063Y-121118324D01*
X118363800Y-121062121D01*
X118877435Y-120903124D01*
X119350406Y-120647390D01*
X119764697Y-120304658D01*
X120104528Y-119887985D01*
X120356954Y-119413240D01*
X120512361Y-118898507D01*
X120564830Y-118363391D01*
X120563756Y-118286467D01*
X120496366Y-117753025D01*
X120326648Y-117242832D01*
X120061064Y-116775320D01*
X119709732Y-116368298D01*
X119286033Y-116037268D01*
X118806106Y-115794839D01*
X118288231Y-115650246D01*
X117752134Y-115608995D01*
X117218234Y-115672659D01*
X116706868Y-115838812D01*
X116237514Y-116101125D01*
X115828049Y-116449607D01*
X115494069Y-116870985D01*
X115248296Y-117349208D01*
X115100091Y-117866061D01*
X115055099Y-118401857D01*
X107878558Y-118401857D01*
X107586186Y-118228949D01*
X105546037Y-116842465D01*
X103719643Y-115425768D01*
X108370694Y-115425768D01*
X108430628Y-115960099D01*
X108593207Y-116472612D01*
X108852237Y-116943786D01*
X109197852Y-117355674D01*
X109616888Y-117692588D01*
X110093384Y-117941694D01*
X110609189Y-118093503D01*
X111144658Y-118142235D01*
X111679395Y-118086032D01*
X112193030Y-117927035D01*
X112666001Y-117671301D01*
X113080292Y-117328569D01*
X113420123Y-116911896D01*
X113672549Y-116437151D01*
X113827956Y-115922418D01*
X113880425Y-115387302D01*
X113879351Y-115310378D01*
X113811961Y-114776936D01*
X113642243Y-114266743D01*
X113376659Y-113799231D01*
X113025327Y-113392209D01*
X112601628Y-113061179D01*
X112121701Y-112818750D01*
X111603826Y-112674157D01*
X111067729Y-112632906D01*
X110533829Y-112696570D01*
X110022463Y-112862723D01*
X109553109Y-113125036D01*
X109143644Y-113473518D01*
X108809664Y-113894896D01*
X108563891Y-114373119D01*
X108415686Y-114889972D01*
X108370694Y-115425768D01*
X103719643Y-115425768D01*
X103596972Y-115330615D01*
X101746683Y-113699366D01*
X100002472Y-111955155D01*
X99490097Y-111373980D01*
X99697395Y-111228828D01*
X99736380Y-111007732D01*
X98854937Y-109748901D01*
X98838554Y-109760373D01*
X98692865Y-109552307D01*
X98709248Y-109540836D01*
X98204932Y-108820597D01*
X98204932Y-108820596D01*
X97667634Y-108053256D01*
X97651251Y-108064728D01*
X97505562Y-107856662D01*
X97521945Y-107845191D01*
X96984648Y-107077850D01*
X96984647Y-107077850D01*
X96704025Y-106677081D01*
X96687642Y-106688553D01*
X96541953Y-106480487D01*
X96558336Y-106469016D01*
X96396620Y-106238060D01*
X96102440Y-105817928D01*
X96021039Y-105701675D01*
X95516722Y-104981436D01*
X95500339Y-104992908D01*
X95354650Y-104784842D01*
X95371033Y-104773371D01*
X94489590Y-103514539D01*
X94268494Y-103475554D01*
X94036596Y-103637931D01*
X93097391Y-101794637D01*
X92117751Y-99530824D01*
X91282191Y-97209965D01*
X90594007Y-94841221D01*
X90055916Y-92433940D01*
X89670041Y-89997622D01*
X89437906Y-87541883D01*
X89361634Y-85114879D01*
X90870694Y-85114879D01*
X90930628Y-85649210D01*
X91093207Y-86161723D01*
X91352237Y-86632897D01*
X91697852Y-87044785D01*
X92116888Y-87381699D01*
X92593384Y-87630805D01*
X93109189Y-87782614D01*
X93644658Y-87831346D01*
X94179395Y-87775143D01*
X94693030Y-87616146D01*
X95166001Y-87360412D01*
X95580292Y-87017680D01*
X95920123Y-86601007D01*
X96172549Y-86126262D01*
X96327956Y-85611529D01*
X96380425Y-85076413D01*
X96379351Y-84999489D01*
X96311961Y-84466047D01*
X96142243Y-83955854D01*
X95876659Y-83488342D01*
X95525327Y-83081320D01*
X95101628Y-82750290D01*
X94621701Y-82507861D01*
X94103826Y-82363268D01*
X93567729Y-82322017D01*
X93033829Y-82385681D01*
X92522463Y-82551834D01*
X92053109Y-82814147D01*
X91643644Y-83162629D01*
X91309664Y-83584007D01*
X91063891Y-84062230D01*
X90915686Y-84579083D01*
X90870694Y-85114879D01*
X89361634Y-85114879D01*
X89360425Y-85076413D01*
X89437906Y-82610943D01*
X89670041Y-80155204D01*
X90055916Y-77718886D01*
X90594007Y-75311605D01*
X91282191Y-72942861D01*
X91398511Y-72619766D01*
X99186464Y-72619766D01*
X99225449Y-72840862D01*
X99616014Y-73114339D01*
X99730505Y-73164716D01*
X99852624Y-73191789D01*
X99977678Y-73194518D01*
X100100862Y-73172797D01*
X100217442Y-73127462D01*
X100322936Y-73060254D01*
X100413293Y-72973757D01*
X100485038Y-72871294D01*
X100801485Y-72419361D01*
X100762499Y-72198266D01*
X99903004Y-71596441D01*
X99186464Y-72619766D01*
X91398511Y-72619766D01*
X91692215Y-71803972D01*
X98145977Y-71803972D01*
X98167698Y-71927156D01*
X98213033Y-72043736D01*
X98280241Y-72149230D01*
X98366738Y-72239586D01*
X98757303Y-72513063D01*
X98978399Y-72474078D01*
X99694939Y-71450752D01*
X99605857Y-71388376D01*
X100048693Y-71388376D01*
X100908188Y-71990201D01*
X101129283Y-71951216D01*
X101445730Y-71499283D01*
X101517475Y-71396820D01*
X101567853Y-71282329D01*
X101594926Y-71160211D01*
X101597655Y-71035156D01*
X101575934Y-70911972D01*
X101530599Y-70795392D01*
X101463391Y-70689898D01*
X101376894Y-70599542D01*
X100986329Y-70326065D01*
X100765233Y-70365050D01*
X100048693Y-71388376D01*
X99605857Y-71388376D01*
X98835444Y-70848927D01*
X98614349Y-70887912D01*
X98297902Y-71339845D01*
X98226157Y-71442308D01*
X98175779Y-71556799D01*
X98148706Y-71678917D01*
X98145977Y-71803972D01*
X91692215Y-71803972D01*
X92117751Y-70622002D01*
X92205265Y-70419767D01*
X98942147Y-70419767D01*
X98981133Y-70640862D01*
X99840628Y-71242687D01*
X100557168Y-70219362D01*
X100518183Y-69998266D01*
X100127618Y-69724789D01*
X100013127Y-69674412D01*
X99891008Y-69647339D01*
X99765954Y-69644610D01*
X99642770Y-69666331D01*
X99526190Y-69711666D01*
X99420696Y-69778874D01*
X99330339Y-69865371D01*
X99258594Y-69967834D01*
X98942147Y-70419767D01*
X92205265Y-70419767D01*
X93097391Y-68358189D01*
X94217243Y-66160355D01*
X95472889Y-64037174D01*
X96859373Y-61997025D01*
X98371223Y-60047960D01*
X100002472Y-58197671D01*
X101746683Y-56453460D01*
X103596972Y-54822211D01*
X103620462Y-54803990D01*
X108370694Y-54803990D01*
X108430628Y-55338321D01*
X108593207Y-55850834D01*
X108852237Y-56322008D01*
X109197852Y-56733896D01*
X109616888Y-57070810D01*
X110093384Y-57319916D01*
X110609189Y-57471725D01*
X111144658Y-57520457D01*
X111679395Y-57464254D01*
X112193030Y-57305257D01*
X112666001Y-57049523D01*
X113080292Y-56706791D01*
X113420123Y-56290118D01*
X113672549Y-55815373D01*
X113827956Y-55300640D01*
X113880425Y-54765524D01*
X113879351Y-54688600D01*
X113811961Y-54155158D01*
X113642243Y-53644965D01*
X113376659Y-53177453D01*
X113025327Y-52770431D01*
X112601628Y-52439401D01*
X112121701Y-52196972D01*
X111603826Y-52052379D01*
X111067729Y-52011128D01*
X110533829Y-52074792D01*
X110022463Y-52240945D01*
X109553109Y-52503258D01*
X109143644Y-52851740D01*
X108809664Y-53273118D01*
X108563891Y-53751341D01*
X108415686Y-54268194D01*
X108370694Y-54803990D01*
X103620462Y-54803990D01*
X105546037Y-53310361D01*
X107586186Y-51923877D01*
X107748472Y-51827901D01*
X115055099Y-51827901D01*
X115115033Y-52362232D01*
X115277612Y-52874745D01*
X115536642Y-53345919D01*
X115882257Y-53757807D01*
X116301293Y-54094721D01*
X116777789Y-54343827D01*
X117293594Y-54495636D01*
X117829063Y-54544368D01*
X118363800Y-54488165D01*
X118877435Y-54329168D01*
X119350406Y-54073434D01*
X119764697Y-53730702D01*
X120104528Y-53314029D01*
X120356954Y-52839284D01*
X120512361Y-52324551D01*
X120564830Y-51789435D01*
X120563756Y-51712511D01*
X120496366Y-51179069D01*
X120436798Y-51000000D01*
X124336928Y-51000000D01*
X124336928Y-54100000D01*
X124349188Y-54224482D01*
X124385498Y-54344180D01*
X124444463Y-54454494D01*
X124523815Y-54551185D01*
X124620506Y-54630537D01*
X124730820Y-54689502D01*
X124850518Y-54725812D01*
X124975000Y-54738072D01*
X127175000Y-54738072D01*
X127299482Y-54725812D01*
X127419180Y-54689502D01*
X127529494Y-54630537D01*
X127540000Y-54621915D01*
X127540000Y-55164250D01*
X127698750Y-55323000D01*
X128448000Y-55323000D01*
X128448000Y-54123750D01*
X128289250Y-53965000D01*
X128112458Y-53965000D01*
X127989777Y-53989403D01*
X127874215Y-54037270D01*
X127813072Y-54078124D01*
X127813072Y-51000000D01*
X127800812Y-50875518D01*
X127764502Y-50755820D01*
X127705537Y-50645506D01*
X127626185Y-50548815D01*
X127529494Y-50469463D01*
X127419180Y-50410498D01*
X127299482Y-50374188D01*
X127175000Y-50361928D01*
X124975000Y-50361928D01*
X124850518Y-50374188D01*
X124730820Y-50410498D01*
X124620506Y-50469463D01*
X124523815Y-50548815D01*
X124444463Y-50645506D01*
X124385498Y-50755820D01*
X124349188Y-50875518D01*
X124336928Y-51000000D01*
X120436798Y-51000000D01*
X120326648Y-50668876D01*
X120061064Y-50201364D01*
X119709732Y-49794342D01*
X119286033Y-49463312D01*
X118806106Y-49220883D01*
X118288231Y-49076290D01*
X117752134Y-49035039D01*
X117218234Y-49098703D01*
X116706868Y-49264856D01*
X116237514Y-49527169D01*
X115828049Y-49875651D01*
X115494069Y-50297029D01*
X115248296Y-50775252D01*
X115100091Y-51292105D01*
X115055099Y-51827901D01*
X107748472Y-51827901D01*
X109709367Y-50668231D01*
X111907201Y-49548379D01*
X114171014Y-48568739D01*
X116491873Y-47733179D01*
X118860617Y-47044995D01*
X121267898Y-46506904D01*
X123704216Y-46121029D01*
X126159955Y-45888894D01*
X127311750Y-45852697D01*
X127260025Y-45915723D01*
G36*
X135982952Y-46506904D02*
X138390233Y-47044995D01*
X140758977Y-47733179D01*
X143079836Y-48568739D01*
X145343649Y-49548379D01*
X147541483Y-50668231D01*
X149664664Y-51923877D01*
X151704813Y-53310361D01*
X153653878Y-54822211D01*
X155504167Y-56453460D01*
X157248378Y-58197671D01*
X158879627Y-60047960D01*
X160391477Y-61997025D01*
X161777961Y-64037174D01*
X163033607Y-66160355D01*
X164153459Y-68358189D01*
X165133099Y-70622002D01*
X165968659Y-72942861D01*
X166656843Y-75311605D01*
X167194934Y-77718886D01*
X167580809Y-80155204D01*
X167812944Y-82610943D01*
X167890425Y-85076413D01*
X167812944Y-87541883D01*
X167580809Y-89997622D01*
X167194934Y-92433940D01*
X166656843Y-94841221D01*
X165968659Y-97209965D01*
X165133099Y-99530824D01*
X164153459Y-101794637D01*
X163033607Y-103992471D01*
X161777961Y-106115652D01*
X160391477Y-108155801D01*
X158879627Y-110104866D01*
X157248378Y-111955155D01*
X155504167Y-113699366D01*
X153653878Y-115330615D01*
X151704813Y-116842465D01*
X149664664Y-118228949D01*
X147541483Y-119484595D01*
X145343649Y-120604447D01*
X143079836Y-121584087D01*
X140758977Y-122419647D01*
X138390233Y-123107831D01*
X135982952Y-123645922D01*
X135946299Y-123651727D01*
X135993237Y-123604789D01*
X136062730Y-123500785D01*
X136110597Y-123385223D01*
X136135000Y-123262542D01*
X136135000Y-122485750D01*
X135976250Y-122327000D01*
X134627000Y-122327000D01*
X134627000Y-123676250D01*
X134785750Y-123835000D01*
X134789161Y-123835000D01*
X133546634Y-124031797D01*
X132324717Y-124147302D01*
X132425000Y-124065002D01*
X132448801Y-124036001D01*
X132471002Y-124013800D01*
X132500001Y-123990001D01*
X132594974Y-123874276D01*
X132614326Y-123838072D01*
X132960000Y-123838072D01*
X133084482Y-123825812D01*
X133204180Y-123789502D01*
X133230231Y-123775577D01*
X133314777Y-123810597D01*
X133437458Y-123835000D01*
X134214250Y-123835000D01*
X134373000Y-123676250D01*
X134373000Y-122327000D01*
X134353000Y-122327000D01*
X134353000Y-122073000D01*
X134373000Y-122073000D01*
X134373000Y-120723750D01*
X134627000Y-120723750D01*
X134627000Y-122073000D01*
X135976250Y-122073000D01*
X136135000Y-121914250D01*
X136135000Y-121137458D01*
X136110597Y-121014777D01*
X136062730Y-120899215D01*
X135993237Y-120795211D01*
X135904789Y-120706763D01*
X135800785Y-120637270D01*
X135685223Y-120589403D01*
X135562542Y-120565000D01*
X134785750Y-120565000D01*
X134627000Y-120723750D01*
X134373000Y-120723750D01*
X134214250Y-120565000D01*
X133437458Y-120565000D01*
X133415417Y-120569384D01*
X134161004Y-119823798D01*
X134190001Y-119800001D01*
X134222828Y-119760001D01*
X134284974Y-119684277D01*
X134355546Y-119552247D01*
X134364542Y-119522590D01*
X134399003Y-119408986D01*
X134410000Y-119297333D01*
X134410000Y-119297323D01*
X134413676Y-119260000D01*
X134410000Y-119222677D01*
X134410000Y-117079538D01*
X134437458Y-117085000D01*
X134614250Y-117085000D01*
X134773000Y-116926250D01*
X134773000Y-115727000D01*
X135027000Y-115727000D01*
X135027000Y-116926250D01*
X135185750Y-117085000D01*
X135362542Y-117085000D01*
X135485223Y-117060597D01*
X135600785Y-117012730D01*
X135661928Y-116971876D01*
X135661928Y-120050000D01*
X135674188Y-120174482D01*
X135710498Y-120294180D01*
X135769463Y-120404494D01*
X135848815Y-120501185D01*
X135945506Y-120580537D01*
X136055820Y-120639502D01*
X136175518Y-120675812D01*
X136300000Y-120688072D01*
X138500000Y-120688072D01*
X138624482Y-120675812D01*
X138744180Y-120639502D01*
X138854494Y-120580537D01*
X138951185Y-120501185D01*
X139030537Y-120404494D01*
X139089502Y-120294180D01*
X139125812Y-120174482D01*
X139138072Y-120050000D01*
X139138072Y-116950000D01*
X139125812Y-116825518D01*
X139089502Y-116705820D01*
X139030537Y-116595506D01*
X138951185Y-116498815D01*
X138854494Y-116419463D01*
X138744180Y-116360498D01*
X138624482Y-116324188D01*
X138500000Y-116311928D01*
X136300000Y-116311928D01*
X136175518Y-116324188D01*
X136055820Y-116360498D01*
X135945506Y-116419463D01*
X135935000Y-116428085D01*
X135935000Y-115885750D01*
X135776250Y-115727000D01*
X135027000Y-115727000D01*
X134773000Y-115727000D01*
X134753000Y-115727000D01*
X134753000Y-115473000D01*
X134773000Y-115473000D01*
X134773000Y-115453000D01*
X135027000Y-115453000D01*
X135027000Y-115473000D01*
X135776250Y-115473000D01*
X135823482Y-115425768D01*
X143370694Y-115425768D01*
X143430628Y-115960099D01*
X143593207Y-116472612D01*
X143852237Y-116943786D01*
X144197852Y-117355674D01*
X144616888Y-117692588D01*
X145093384Y-117941694D01*
X145609189Y-118093503D01*
X146144658Y-118142235D01*
X146679395Y-118086032D01*
X147193030Y-117927035D01*
X147666001Y-117671301D01*
X148080292Y-117328569D01*
X148420123Y-116911896D01*
X148672549Y-116437151D01*
X148827956Y-115922418D01*
X148880425Y-115387302D01*
X148879351Y-115310378D01*
X148811961Y-114776936D01*
X148642243Y-114266743D01*
X148376659Y-113799231D01*
X148025327Y-113392209D01*
X147601628Y-113061179D01*
X147121701Y-112818750D01*
X146603826Y-112674157D01*
X146067729Y-112632906D01*
X145533829Y-112696570D01*
X145022463Y-112862723D01*
X144553109Y-113125036D01*
X144143644Y-113473518D01*
X143809664Y-113894896D01*
X143563891Y-114373119D01*
X143415686Y-114889972D01*
X143370694Y-115425768D01*
X135823482Y-115425768D01*
X135935000Y-115314250D01*
X135935000Y-114960000D01*
X140099089Y-114960000D01*
X140136411Y-114963676D01*
X140173733Y-114960000D01*
X140173744Y-114960000D01*
X140285397Y-114949003D01*
X140428658Y-114905546D01*
X140560687Y-114834974D01*
X140676412Y-114740001D01*
X140700215Y-114710997D01*
X149723849Y-105687363D01*
X154186289Y-105687363D01*
X154246223Y-106221694D01*
X154408802Y-106734207D01*
X154667832Y-107205381D01*
X155013447Y-107617269D01*
X155432483Y-107954183D01*
X155908979Y-108203289D01*
X156424784Y-108355098D01*
X156960253Y-108403830D01*
X157494990Y-108347627D01*
X158008625Y-108188630D01*
X158481596Y-107932896D01*
X158895887Y-107590164D01*
X159235718Y-107173491D01*
X159488144Y-106698746D01*
X159643551Y-106184013D01*
X159696020Y-105648897D01*
X159694946Y-105571973D01*
X159627556Y-105038531D01*
X159457838Y-104528338D01*
X159192254Y-104060826D01*
X158840922Y-103653804D01*
X158417223Y-103322774D01*
X157937296Y-103080345D01*
X157419421Y-102935752D01*
X156883324Y-102894501D01*
X156349424Y-102958165D01*
X155838058Y-103124318D01*
X155368704Y-103386631D01*
X154959239Y-103735113D01*
X154625259Y-104156491D01*
X154379486Y-104634714D01*
X154231281Y-105151567D01*
X154186289Y-105687363D01*
X149723849Y-105687363D01*
X149951213Y-105460000D01*
X151362678Y-105460000D01*
X151400000Y-105463676D01*
X151437322Y-105460000D01*
X151437333Y-105460000D01*
X151548986Y-105449003D01*
X151692247Y-105405546D01*
X151824276Y-105334974D01*
X151940001Y-105240001D01*
X151963804Y-105210997D01*
X156914802Y-100260000D01*
X158262678Y-100260000D01*
X158300000Y-100263676D01*
X158337322Y-100260000D01*
X158337333Y-100260000D01*
X158448986Y-100249003D01*
X158592247Y-100205546D01*
X158724276Y-100134974D01*
X158840001Y-100040001D01*
X158863804Y-100010997D01*
X160311003Y-98563799D01*
X160340001Y-98540001D01*
X160434974Y-98424276D01*
X160505546Y-98292247D01*
X160549003Y-98148986D01*
X160560000Y-98037333D01*
X160560000Y-98037324D01*
X160563676Y-98000001D01*
X160560000Y-97962678D01*
X160560000Y-96795728D01*
X160563676Y-96758405D01*
X160560000Y-96721082D01*
X160560000Y-96721073D01*
X160549003Y-96609420D01*
X160505546Y-96466159D01*
X160434974Y-96334130D01*
X160421811Y-96318091D01*
X160363799Y-96247402D01*
X160363795Y-96247398D01*
X160340001Y-96218405D01*
X160311009Y-96194612D01*
X159611002Y-95494607D01*
X159359898Y-95243503D01*
X159336095Y-95214499D01*
X159220370Y-95119526D01*
X159088341Y-95048954D01*
X158945080Y-95005497D01*
X158833427Y-94994500D01*
X158833416Y-94994500D01*
X158796094Y-94990824D01*
X158758772Y-94994500D01*
X158037323Y-94994500D01*
X158000000Y-94990824D01*
X157962677Y-94994500D01*
X157962667Y-94994500D01*
X157851014Y-95005497D01*
X157707753Y-95048954D01*
X157575724Y-95119526D01*
X157459999Y-95214499D01*
X157436196Y-95243503D01*
X157248770Y-95430929D01*
X156813334Y-95430929D01*
X156772552Y-95314959D01*
X156708832Y-95207322D01*
X156625337Y-95114184D01*
X156525277Y-95039125D01*
X156412495Y-94985028D01*
X155201402Y-94544226D01*
X154652293Y-93995118D01*
X154732270Y-93775383D01*
X154763324Y-93654215D01*
X154770143Y-93529317D01*
X154752772Y-93407646D01*
X154798010Y-93374476D01*
X154882515Y-93282254D01*
X154947406Y-93175318D01*
X155076276Y-92821250D01*
X154981396Y-92617778D01*
X154300823Y-92370070D01*
X154293983Y-92388863D01*
X154055300Y-92301991D01*
X154062141Y-92283196D01*
X154043348Y-92276356D01*
X154126267Y-92048535D01*
X154135285Y-92039517D01*
X154149015Y-92044514D01*
X154155855Y-92025721D01*
X154394538Y-92112593D01*
X154387697Y-92131388D01*
X155068269Y-92379096D01*
X155268871Y-92285553D01*
X155267288Y-92314545D01*
X155284967Y-92438374D01*
X155326463Y-92556374D01*
X155390183Y-92664011D01*
X155473678Y-92757149D01*
X155573738Y-92832208D01*
X155686520Y-92886305D01*
X157002090Y-93365133D01*
X157123257Y-93396187D01*
X157248155Y-93403006D01*
X157371984Y-93385327D01*
X157385437Y-93380596D01*
X158368615Y-93380596D01*
X158374070Y-93505561D01*
X158403801Y-93627061D01*
X158456664Y-93740425D01*
X158530628Y-93841299D01*
X158622849Y-93925804D01*
X158729785Y-93990694D01*
X159177823Y-94153767D01*
X159194993Y-94145760D01*
X159619977Y-94145760D01*
X159714857Y-94349231D01*
X160162895Y-94512304D01*
X160286524Y-94531332D01*
X160411488Y-94525876D01*
X160532988Y-94496146D01*
X160646353Y-94443283D01*
X160747226Y-94369319D01*
X160831731Y-94277098D01*
X160896622Y-94170162D01*
X160939403Y-94052621D01*
X161128098Y-93534185D01*
X161033218Y-93330713D01*
X160047245Y-92971849D01*
X159619977Y-94145760D01*
X159194993Y-94145760D01*
X159381295Y-94058886D01*
X159808563Y-92884975D01*
X159391474Y-92733167D01*
X160134119Y-92733167D01*
X161120091Y-93092031D01*
X161323563Y-92997151D01*
X161512258Y-92478715D01*
X161555039Y-92361174D01*
X161574067Y-92237546D01*
X161568612Y-92112581D01*
X161538881Y-91991081D01*
X161486018Y-91877717D01*
X161412054Y-91776843D01*
X161319833Y-91692338D01*
X161212897Y-91627448D01*
X160764859Y-91464375D01*
X160561387Y-91559256D01*
X160134119Y-92733167D01*
X159391474Y-92733167D01*
X158822591Y-92526111D01*
X158619119Y-92620991D01*
X158430424Y-93139427D01*
X158387643Y-93256968D01*
X158368615Y-93380596D01*
X157385437Y-93380596D01*
X157489984Y-93343831D01*
X157597621Y-93280111D01*
X157690759Y-93196616D01*
X157765818Y-93096556D01*
X157819915Y-92983774D01*
X158147421Y-92083957D01*
X158814584Y-92083957D01*
X158909464Y-92287429D01*
X159895437Y-92646293D01*
X160322705Y-91472382D01*
X160227825Y-91268911D01*
X159779787Y-91105838D01*
X159656158Y-91086810D01*
X159531194Y-91092266D01*
X159409694Y-91121996D01*
X159296329Y-91174859D01*
X159195456Y-91248823D01*
X159110951Y-91341044D01*
X159046060Y-91447980D01*
X159003279Y-91565521D01*
X158814584Y-92083957D01*
X158147421Y-92083957D01*
X158435551Y-91292328D01*
X158466605Y-91171161D01*
X158473424Y-91046263D01*
X158455745Y-90922434D01*
X158414249Y-90804434D01*
X158350529Y-90696797D01*
X158267034Y-90603659D01*
X158166974Y-90528600D01*
X158054192Y-90474503D01*
X157630356Y-90320239D01*
X157630356Y-90180855D01*
X159511008Y-88300205D01*
X159540001Y-88276411D01*
X159563795Y-88247418D01*
X159563799Y-88247414D01*
X159634973Y-88160687D01*
X159634974Y-88160686D01*
X159705546Y-88028657D01*
X159749003Y-87885396D01*
X159760000Y-87773743D01*
X159760000Y-87773734D01*
X159763676Y-87736411D01*
X159760000Y-87699088D01*
X159760000Y-85114879D01*
X160870694Y-85114879D01*
X160930628Y-85649210D01*
X161093207Y-86161723D01*
X161352237Y-86632897D01*
X161697852Y-87044785D01*
X162116888Y-87381699D01*
X162593384Y-87630805D01*
X163109189Y-87782614D01*
X163644658Y-87831346D01*
X164179395Y-87775143D01*
X164693030Y-87616146D01*
X165166001Y-87360412D01*
X165580292Y-87017680D01*
X165920123Y-86601007D01*
X166172549Y-86126262D01*
X166327956Y-85611529D01*
X166380425Y-85076413D01*
X166379351Y-84999489D01*
X166311961Y-84466047D01*
X166142243Y-83955854D01*
X165876659Y-83488342D01*
X165525327Y-83081320D01*
X165101628Y-82750290D01*
X164621701Y-82507861D01*
X164103826Y-82363268D01*
X163567729Y-82322017D01*
X163033829Y-82385681D01*
X162522463Y-82551834D01*
X162053109Y-82814147D01*
X161643644Y-83162629D01*
X161309664Y-83584007D01*
X161063891Y-84062230D01*
X160915686Y-84579083D01*
X160870694Y-85114879D01*
X159760000Y-85114879D01*
X159760000Y-79914801D01*
X160183688Y-79491114D01*
X160212687Y-79467315D01*
X160307660Y-79351590D01*
X160378232Y-79219561D01*
X160421689Y-79076300D01*
X160432686Y-78964647D01*
X160432686Y-78964639D01*
X160436362Y-78927314D01*
X160432686Y-78889989D01*
X160432686Y-78251951D01*
X161389173Y-77995661D01*
X161506240Y-77951600D01*
X161612462Y-77885548D01*
X161703756Y-77800041D01*
X161776614Y-77698367D01*
X161828238Y-77584433D01*
X161856641Y-77462616D01*
X161860734Y-77337599D01*
X161840358Y-77214186D01*
X161374484Y-75475519D01*
X161330423Y-75358452D01*
X161264370Y-75252230D01*
X161178864Y-75160936D01*
X161077190Y-75088077D01*
X160963255Y-75036454D01*
X160841439Y-75008051D01*
X160716422Y-75003958D01*
X160593009Y-75024334D01*
X159240713Y-75386681D01*
X159123646Y-75430742D01*
X159017424Y-75496794D01*
X158926130Y-75582301D01*
X158853272Y-75683975D01*
X158801648Y-75797909D01*
X158773245Y-75919726D01*
X158769152Y-76044743D01*
X158789528Y-76168156D01*
X159004651Y-76971005D01*
X158977255Y-77022258D01*
X158967140Y-77041182D01*
X158923683Y-77184443D01*
X158912686Y-77296096D01*
X158912686Y-77296106D01*
X158909010Y-77333428D01*
X158912686Y-77370751D01*
X158912687Y-78255770D01*
X158626302Y-77969385D01*
X158186929Y-76329621D01*
X158142868Y-76212554D01*
X158076815Y-76106332D01*
X157991309Y-76015038D01*
X157889635Y-75942179D01*
X157775700Y-75890556D01*
X157653884Y-75862153D01*
X157528867Y-75858060D01*
X157405454Y-75878436D01*
X157119834Y-75954968D01*
X158411004Y-74663798D01*
X158440001Y-74640001D01*
X158534974Y-74524276D01*
X158605546Y-74392247D01*
X158649003Y-74248986D01*
X158660000Y-74137333D01*
X158660000Y-74137323D01*
X158663676Y-74100000D01*
X158660000Y-74062677D01*
X158660000Y-73739590D01*
X158733340Y-73734784D01*
X159193886Y-73611381D01*
X159306139Y-73416952D01*
X158982809Y-72210270D01*
X158963491Y-72215446D01*
X158944489Y-72144530D01*
X159228155Y-72144530D01*
X159551484Y-73351212D01*
X159745913Y-73463466D01*
X160206458Y-73340063D01*
X160318643Y-73284739D01*
X160417878Y-73208593D01*
X160500352Y-73114550D01*
X160562895Y-73006224D01*
X160603102Y-72887778D01*
X160619428Y-72763764D01*
X160611247Y-72638948D01*
X160578873Y-72518126D01*
X160436081Y-71985217D01*
X160241652Y-71872964D01*
X159228155Y-72144530D01*
X158944489Y-72144530D01*
X158897750Y-71970100D01*
X158917069Y-71964924D01*
X158593740Y-70758242D01*
X158479876Y-70692502D01*
X158839085Y-70692502D01*
X159162415Y-71899184D01*
X160175912Y-71627619D01*
X160288165Y-71433190D01*
X160145373Y-70900281D01*
X160112999Y-70779459D01*
X160057675Y-70667275D01*
X159981529Y-70568039D01*
X159887486Y-70485565D01*
X159779160Y-70423023D01*
X159660714Y-70382816D01*
X159536700Y-70366490D01*
X159411884Y-70374670D01*
X158951338Y-70498073D01*
X158839085Y-70692502D01*
X158479876Y-70692502D01*
X158399311Y-70645988D01*
X158104177Y-70725069D01*
X158080164Y-70705362D01*
X151917197Y-64542395D01*
X154186289Y-64542395D01*
X154246223Y-65076726D01*
X154408802Y-65589239D01*
X154667832Y-66060413D01*
X155013447Y-66472301D01*
X155432483Y-66809215D01*
X155908979Y-67058321D01*
X156424784Y-67210130D01*
X156960253Y-67258862D01*
X157494990Y-67202659D01*
X158008625Y-67043662D01*
X158481596Y-66787928D01*
X158895887Y-66445196D01*
X159235718Y-66028523D01*
X159488144Y-65553778D01*
X159643551Y-65039045D01*
X159696020Y-64503929D01*
X159694946Y-64427005D01*
X159627556Y-63893563D01*
X159457838Y-63383370D01*
X159192254Y-62915858D01*
X158840922Y-62508836D01*
X158417223Y-62177806D01*
X157937296Y-61935377D01*
X157419421Y-61790784D01*
X156883324Y-61749533D01*
X156349424Y-61813197D01*
X155838058Y-61979350D01*
X155368704Y-62241663D01*
X154959239Y-62590145D01*
X154625259Y-63011523D01*
X154379486Y-63489746D01*
X154231281Y-64006599D01*
X154186289Y-64542395D01*
X151917197Y-64542395D01*
X151463804Y-64089003D01*
X151440001Y-64059999D01*
X151324276Y-63965026D01*
X151192247Y-63894454D01*
X151048986Y-63850997D01*
X150937333Y-63840000D01*
X150937322Y-63840000D01*
X150900000Y-63836324D01*
X150862678Y-63840000D01*
X150214802Y-63840000D01*
X142511002Y-56136201D01*
X142488805Y-56114004D01*
X142465002Y-56085000D01*
X142349277Y-55990027D01*
X142217248Y-55919455D01*
X142073987Y-55875998D01*
X141962334Y-55865001D01*
X141962323Y-55865001D01*
X141925001Y-55861325D01*
X141887679Y-55865001D01*
X135860000Y-55865001D01*
X135860000Y-55735750D01*
X135701250Y-55577000D01*
X134952000Y-55577000D01*
X134952000Y-55597000D01*
X134698000Y-55597000D01*
X134698000Y-55577000D01*
X134678000Y-55577000D01*
X134678000Y-55323000D01*
X134698000Y-55323000D01*
X134698000Y-54123750D01*
X134952000Y-54123750D01*
X134952000Y-55323000D01*
X135701250Y-55323000D01*
X135860000Y-55164250D01*
X135860000Y-54803990D01*
X143370694Y-54803990D01*
X143430628Y-55338321D01*
X143593207Y-55850834D01*
X143852237Y-56322008D01*
X144197852Y-56733896D01*
X144616888Y-57070810D01*
X145093384Y-57319916D01*
X145609189Y-57471725D01*
X146144658Y-57520457D01*
X146679395Y-57464254D01*
X147193030Y-57305257D01*
X147666001Y-57049523D01*
X148080292Y-56706791D01*
X148420123Y-56290118D01*
X148672549Y-55815373D01*
X148827956Y-55300640D01*
X148880425Y-54765524D01*
X148879351Y-54688600D01*
X148811961Y-54155158D01*
X148642243Y-53644965D01*
X148376659Y-53177453D01*
X148025327Y-52770431D01*
X147601628Y-52439401D01*
X147121701Y-52196972D01*
X146603826Y-52052379D01*
X146067729Y-52011128D01*
X145533829Y-52074792D01*
X145022463Y-52240945D01*
X144553109Y-52503258D01*
X144143644Y-52851740D01*
X143809664Y-53273118D01*
X143563891Y-53751341D01*
X143415686Y-54268194D01*
X143370694Y-54803990D01*
X135860000Y-54803990D01*
X135860000Y-54621915D01*
X135870506Y-54630537D01*
X135980820Y-54689502D01*
X136100518Y-54725812D01*
X136225000Y-54738072D01*
X138425000Y-54738072D01*
X138549482Y-54725812D01*
X138669180Y-54689502D01*
X138779494Y-54630537D01*
X138876185Y-54551185D01*
X138955537Y-54454494D01*
X139014502Y-54344180D01*
X139050812Y-54224482D01*
X139063072Y-54100000D01*
X139063072Y-51000000D01*
X139050812Y-50875518D01*
X139014502Y-50755820D01*
X138955537Y-50645506D01*
X138876185Y-50548815D01*
X138779494Y-50469463D01*
X138669180Y-50410498D01*
X138549482Y-50374188D01*
X138425000Y-50361928D01*
X136225000Y-50361928D01*
X136100518Y-50374188D01*
X135980820Y-50410498D01*
X135870506Y-50469463D01*
X135773815Y-50548815D01*
X135694463Y-50645506D01*
X135635498Y-50755820D01*
X135599188Y-50875518D01*
X135586928Y-51000000D01*
X135586928Y-54078124D01*
X135525785Y-54037270D01*
X135410223Y-53989403D01*
X135287542Y-53965000D01*
X135110750Y-53965000D01*
X134952000Y-54123750D01*
X134698000Y-54123750D01*
X134539250Y-53965000D01*
X134362458Y-53965000D01*
X134335000Y-53970462D01*
X134335000Y-49452333D01*
X134338677Y-49415000D01*
X134333510Y-49362534D01*
X134324003Y-49266014D01*
X134314595Y-49235000D01*
X134427002Y-49235000D01*
X134427002Y-49076252D01*
X134585750Y-49235000D01*
X135362542Y-49235000D01*
X135485223Y-49210597D01*
X135600785Y-49162730D01*
X135704789Y-49093237D01*
X135793237Y-49004789D01*
X135862730Y-48900785D01*
X135910597Y-48785223D01*
X135935000Y-48662542D01*
X135935000Y-47885750D01*
X135776250Y-47727000D01*
X134427000Y-47727000D01*
X134427000Y-47747000D01*
X134173000Y-47747000D01*
X134173000Y-47727000D01*
X134153000Y-47727000D01*
X134153000Y-47473000D01*
X134173000Y-47473000D01*
X134173000Y-47453000D01*
X134427000Y-47453000D01*
X134427000Y-47473000D01*
X135776250Y-47473000D01*
X135935000Y-47314250D01*
X135935000Y-46537458D01*
X135927165Y-46498068D01*
X135982952Y-46506904D01*
X135982952Y-46506904D01*
G37*
X135982952Y-46506904D02*
X138390233Y-47044995D01*
X140758977Y-47733179D01*
X143079836Y-48568739D01*
X145343649Y-49548379D01*
X147541483Y-50668231D01*
X149664664Y-51923877D01*
X151704813Y-53310361D01*
X153653878Y-54822211D01*
X155504167Y-56453460D01*
X157248378Y-58197671D01*
X158879627Y-60047960D01*
X160391477Y-61997025D01*
X161777961Y-64037174D01*
X163033607Y-66160355D01*
X164153459Y-68358189D01*
X165133099Y-70622002D01*
X165968659Y-72942861D01*
X166656843Y-75311605D01*
X167194934Y-77718886D01*
X167580809Y-80155204D01*
X167812944Y-82610943D01*
X167890425Y-85076413D01*
X167812944Y-87541883D01*
X167580809Y-89997622D01*
X167194934Y-92433940D01*
X166656843Y-94841221D01*
X165968659Y-97209965D01*
X165133099Y-99530824D01*
X164153459Y-101794637D01*
X163033607Y-103992471D01*
X161777961Y-106115652D01*
X160391477Y-108155801D01*
X158879627Y-110104866D01*
X157248378Y-111955155D01*
X155504167Y-113699366D01*
X153653878Y-115330615D01*
X151704813Y-116842465D01*
X149664664Y-118228949D01*
X147541483Y-119484595D01*
X145343649Y-120604447D01*
X143079836Y-121584087D01*
X140758977Y-122419647D01*
X138390233Y-123107831D01*
X135982952Y-123645922D01*
X135946299Y-123651727D01*
X135993237Y-123604789D01*
X136062730Y-123500785D01*
X136110597Y-123385223D01*
X136135000Y-123262542D01*
X136135000Y-122485750D01*
X135976250Y-122327000D01*
X134627000Y-122327000D01*
X134627000Y-123676250D01*
X134785750Y-123835000D01*
X134789161Y-123835000D01*
X133546634Y-124031797D01*
X132324717Y-124147302D01*
X132425000Y-124065002D01*
X132448801Y-124036001D01*
X132471002Y-124013800D01*
X132500001Y-123990001D01*
X132594974Y-123874276D01*
X132614326Y-123838072D01*
X132960000Y-123838072D01*
X133084482Y-123825812D01*
X133204180Y-123789502D01*
X133230231Y-123775577D01*
X133314777Y-123810597D01*
X133437458Y-123835000D01*
X134214250Y-123835000D01*
X134373000Y-123676250D01*
X134373000Y-122327000D01*
X134353000Y-122327000D01*
X134353000Y-122073000D01*
X134373000Y-122073000D01*
X134373000Y-120723750D01*
X134627000Y-120723750D01*
X134627000Y-122073000D01*
X135976250Y-122073000D01*
X136135000Y-121914250D01*
X136135000Y-121137458D01*
X136110597Y-121014777D01*
X136062730Y-120899215D01*
X135993237Y-120795211D01*
X135904789Y-120706763D01*
X135800785Y-120637270D01*
X135685223Y-120589403D01*
X135562542Y-120565000D01*
X134785750Y-120565000D01*
X134627000Y-120723750D01*
X134373000Y-120723750D01*
X134214250Y-120565000D01*
X133437458Y-120565000D01*
X133415417Y-120569384D01*
X134161004Y-119823798D01*
X134190001Y-119800001D01*
X134222828Y-119760001D01*
X134284974Y-119684277D01*
X134355546Y-119552247D01*
X134364542Y-119522590D01*
X134399003Y-119408986D01*
X134410000Y-119297333D01*
X134410000Y-119297323D01*
X134413676Y-119260000D01*
X134410000Y-119222677D01*
X134410000Y-117079538D01*
X134437458Y-117085000D01*
X134614250Y-117085000D01*
X134773000Y-116926250D01*
X134773000Y-115727000D01*
X135027000Y-115727000D01*
X135027000Y-116926250D01*
X135185750Y-117085000D01*
X135362542Y-117085000D01*
X135485223Y-117060597D01*
X135600785Y-117012730D01*
X135661928Y-116971876D01*
X135661928Y-120050000D01*
X135674188Y-120174482D01*
X135710498Y-120294180D01*
X135769463Y-120404494D01*
X135848815Y-120501185D01*
X135945506Y-120580537D01*
X136055820Y-120639502D01*
X136175518Y-120675812D01*
X136300000Y-120688072D01*
X138500000Y-120688072D01*
X138624482Y-120675812D01*
X138744180Y-120639502D01*
X138854494Y-120580537D01*
X138951185Y-120501185D01*
X139030537Y-120404494D01*
X139089502Y-120294180D01*
X139125812Y-120174482D01*
X139138072Y-120050000D01*
X139138072Y-116950000D01*
X139125812Y-116825518D01*
X139089502Y-116705820D01*
X139030537Y-116595506D01*
X138951185Y-116498815D01*
X138854494Y-116419463D01*
X138744180Y-116360498D01*
X138624482Y-116324188D01*
X138500000Y-116311928D01*
X136300000Y-116311928D01*
X136175518Y-116324188D01*
X136055820Y-116360498D01*
X135945506Y-116419463D01*
X135935000Y-116428085D01*
X135935000Y-115885750D01*
X135776250Y-115727000D01*
X135027000Y-115727000D01*
X134773000Y-115727000D01*
X134753000Y-115727000D01*
X134753000Y-115473000D01*
X134773000Y-115473000D01*
X134773000Y-115453000D01*
X135027000Y-115453000D01*
X135027000Y-115473000D01*
X135776250Y-115473000D01*
X135823482Y-115425768D01*
X143370694Y-115425768D01*
X143430628Y-115960099D01*
X143593207Y-116472612D01*
X143852237Y-116943786D01*
X144197852Y-117355674D01*
X144616888Y-117692588D01*
X145093384Y-117941694D01*
X145609189Y-118093503D01*
X146144658Y-118142235D01*
X146679395Y-118086032D01*
X147193030Y-117927035D01*
X147666001Y-117671301D01*
X148080292Y-117328569D01*
X148420123Y-116911896D01*
X148672549Y-116437151D01*
X148827956Y-115922418D01*
X148880425Y-115387302D01*
X148879351Y-115310378D01*
X148811961Y-114776936D01*
X148642243Y-114266743D01*
X148376659Y-113799231D01*
X148025327Y-113392209D01*
X147601628Y-113061179D01*
X147121701Y-112818750D01*
X146603826Y-112674157D01*
X146067729Y-112632906D01*
X145533829Y-112696570D01*
X145022463Y-112862723D01*
X144553109Y-113125036D01*
X144143644Y-113473518D01*
X143809664Y-113894896D01*
X143563891Y-114373119D01*
X143415686Y-114889972D01*
X143370694Y-115425768D01*
X135823482Y-115425768D01*
X135935000Y-115314250D01*
X135935000Y-114960000D01*
X140099089Y-114960000D01*
X140136411Y-114963676D01*
X140173733Y-114960000D01*
X140173744Y-114960000D01*
X140285397Y-114949003D01*
X140428658Y-114905546D01*
X140560687Y-114834974D01*
X140676412Y-114740001D01*
X140700215Y-114710997D01*
X149723849Y-105687363D01*
X154186289Y-105687363D01*
X154246223Y-106221694D01*
X154408802Y-106734207D01*
X154667832Y-107205381D01*
X155013447Y-107617269D01*
X155432483Y-107954183D01*
X155908979Y-108203289D01*
X156424784Y-108355098D01*
X156960253Y-108403830D01*
X157494990Y-108347627D01*
X158008625Y-108188630D01*
X158481596Y-107932896D01*
X158895887Y-107590164D01*
X159235718Y-107173491D01*
X159488144Y-106698746D01*
X159643551Y-106184013D01*
X159696020Y-105648897D01*
X159694946Y-105571973D01*
X159627556Y-105038531D01*
X159457838Y-104528338D01*
X159192254Y-104060826D01*
X158840922Y-103653804D01*
X158417223Y-103322774D01*
X157937296Y-103080345D01*
X157419421Y-102935752D01*
X156883324Y-102894501D01*
X156349424Y-102958165D01*
X155838058Y-103124318D01*
X155368704Y-103386631D01*
X154959239Y-103735113D01*
X154625259Y-104156491D01*
X154379486Y-104634714D01*
X154231281Y-105151567D01*
X154186289Y-105687363D01*
X149723849Y-105687363D01*
X149951213Y-105460000D01*
X151362678Y-105460000D01*
X151400000Y-105463676D01*
X151437322Y-105460000D01*
X151437333Y-105460000D01*
X151548986Y-105449003D01*
X151692247Y-105405546D01*
X151824276Y-105334974D01*
X151940001Y-105240001D01*
X151963804Y-105210997D01*
X156914802Y-100260000D01*
X158262678Y-100260000D01*
X158300000Y-100263676D01*
X158337322Y-100260000D01*
X158337333Y-100260000D01*
X158448986Y-100249003D01*
X158592247Y-100205546D01*
X158724276Y-100134974D01*
X158840001Y-100040001D01*
X158863804Y-100010997D01*
X160311003Y-98563799D01*
X160340001Y-98540001D01*
X160434974Y-98424276D01*
X160505546Y-98292247D01*
X160549003Y-98148986D01*
X160560000Y-98037333D01*
X160560000Y-98037324D01*
X160563676Y-98000001D01*
X160560000Y-97962678D01*
X160560000Y-96795728D01*
X160563676Y-96758405D01*
X160560000Y-96721082D01*
X160560000Y-96721073D01*
X160549003Y-96609420D01*
X160505546Y-96466159D01*
X160434974Y-96334130D01*
X160421811Y-96318091D01*
X160363799Y-96247402D01*
X160363795Y-96247398D01*
X160340001Y-96218405D01*
X160311009Y-96194612D01*
X159611002Y-95494607D01*
X159359898Y-95243503D01*
X159336095Y-95214499D01*
X159220370Y-95119526D01*
X159088341Y-95048954D01*
X158945080Y-95005497D01*
X158833427Y-94994500D01*
X158833416Y-94994500D01*
X158796094Y-94990824D01*
X158758772Y-94994500D01*
X158037323Y-94994500D01*
X158000000Y-94990824D01*
X157962677Y-94994500D01*
X157962667Y-94994500D01*
X157851014Y-95005497D01*
X157707753Y-95048954D01*
X157575724Y-95119526D01*
X157459999Y-95214499D01*
X157436196Y-95243503D01*
X157248770Y-95430929D01*
X156813334Y-95430929D01*
X156772552Y-95314959D01*
X156708832Y-95207322D01*
X156625337Y-95114184D01*
X156525277Y-95039125D01*
X156412495Y-94985028D01*
X155201402Y-94544226D01*
X154652293Y-93995118D01*
X154732270Y-93775383D01*
X154763324Y-93654215D01*
X154770143Y-93529317D01*
X154752772Y-93407646D01*
X154798010Y-93374476D01*
X154882515Y-93282254D01*
X154947406Y-93175318D01*
X155076276Y-92821250D01*
X154981396Y-92617778D01*
X154300823Y-92370070D01*
X154293983Y-92388863D01*
X154055300Y-92301991D01*
X154062141Y-92283196D01*
X154043348Y-92276356D01*
X154126267Y-92048535D01*
X154135285Y-92039517D01*
X154149015Y-92044514D01*
X154155855Y-92025721D01*
X154394538Y-92112593D01*
X154387697Y-92131388D01*
X155068269Y-92379096D01*
X155268871Y-92285553D01*
X155267288Y-92314545D01*
X155284967Y-92438374D01*
X155326463Y-92556374D01*
X155390183Y-92664011D01*
X155473678Y-92757149D01*
X155573738Y-92832208D01*
X155686520Y-92886305D01*
X157002090Y-93365133D01*
X157123257Y-93396187D01*
X157248155Y-93403006D01*
X157371984Y-93385327D01*
X157385437Y-93380596D01*
X158368615Y-93380596D01*
X158374070Y-93505561D01*
X158403801Y-93627061D01*
X158456664Y-93740425D01*
X158530628Y-93841299D01*
X158622849Y-93925804D01*
X158729785Y-93990694D01*
X159177823Y-94153767D01*
X159194993Y-94145760D01*
X159619977Y-94145760D01*
X159714857Y-94349231D01*
X160162895Y-94512304D01*
X160286524Y-94531332D01*
X160411488Y-94525876D01*
X160532988Y-94496146D01*
X160646353Y-94443283D01*
X160747226Y-94369319D01*
X160831731Y-94277098D01*
X160896622Y-94170162D01*
X160939403Y-94052621D01*
X161128098Y-93534185D01*
X161033218Y-93330713D01*
X160047245Y-92971849D01*
X159619977Y-94145760D01*
X159194993Y-94145760D01*
X159381295Y-94058886D01*
X159808563Y-92884975D01*
X159391474Y-92733167D01*
X160134119Y-92733167D01*
X161120091Y-93092031D01*
X161323563Y-92997151D01*
X161512258Y-92478715D01*
X161555039Y-92361174D01*
X161574067Y-92237546D01*
X161568612Y-92112581D01*
X161538881Y-91991081D01*
X161486018Y-91877717D01*
X161412054Y-91776843D01*
X161319833Y-91692338D01*
X161212897Y-91627448D01*
X160764859Y-91464375D01*
X160561387Y-91559256D01*
X160134119Y-92733167D01*
X159391474Y-92733167D01*
X158822591Y-92526111D01*
X158619119Y-92620991D01*
X158430424Y-93139427D01*
X158387643Y-93256968D01*
X158368615Y-93380596D01*
X157385437Y-93380596D01*
X157489984Y-93343831D01*
X157597621Y-93280111D01*
X157690759Y-93196616D01*
X157765818Y-93096556D01*
X157819915Y-92983774D01*
X158147421Y-92083957D01*
X158814584Y-92083957D01*
X158909464Y-92287429D01*
X159895437Y-92646293D01*
X160322705Y-91472382D01*
X160227825Y-91268911D01*
X159779787Y-91105838D01*
X159656158Y-91086810D01*
X159531194Y-91092266D01*
X159409694Y-91121996D01*
X159296329Y-91174859D01*
X159195456Y-91248823D01*
X159110951Y-91341044D01*
X159046060Y-91447980D01*
X159003279Y-91565521D01*
X158814584Y-92083957D01*
X158147421Y-92083957D01*
X158435551Y-91292328D01*
X158466605Y-91171161D01*
X158473424Y-91046263D01*
X158455745Y-90922434D01*
X158414249Y-90804434D01*
X158350529Y-90696797D01*
X158267034Y-90603659D01*
X158166974Y-90528600D01*
X158054192Y-90474503D01*
X157630356Y-90320239D01*
X157630356Y-90180855D01*
X159511008Y-88300205D01*
X159540001Y-88276411D01*
X159563795Y-88247418D01*
X159563799Y-88247414D01*
X159634973Y-88160687D01*
X159634974Y-88160686D01*
X159705546Y-88028657D01*
X159749003Y-87885396D01*
X159760000Y-87773743D01*
X159760000Y-87773734D01*
X159763676Y-87736411D01*
X159760000Y-87699088D01*
X159760000Y-85114879D01*
X160870694Y-85114879D01*
X160930628Y-85649210D01*
X161093207Y-86161723D01*
X161352237Y-86632897D01*
X161697852Y-87044785D01*
X162116888Y-87381699D01*
X162593384Y-87630805D01*
X163109189Y-87782614D01*
X163644658Y-87831346D01*
X164179395Y-87775143D01*
X164693030Y-87616146D01*
X165166001Y-87360412D01*
X165580292Y-87017680D01*
X165920123Y-86601007D01*
X166172549Y-86126262D01*
X166327956Y-85611529D01*
X166380425Y-85076413D01*
X166379351Y-84999489D01*
X166311961Y-84466047D01*
X166142243Y-83955854D01*
X165876659Y-83488342D01*
X165525327Y-83081320D01*
X165101628Y-82750290D01*
X164621701Y-82507861D01*
X164103826Y-82363268D01*
X163567729Y-82322017D01*
X163033829Y-82385681D01*
X162522463Y-82551834D01*
X162053109Y-82814147D01*
X161643644Y-83162629D01*
X161309664Y-83584007D01*
X161063891Y-84062230D01*
X160915686Y-84579083D01*
X160870694Y-85114879D01*
X159760000Y-85114879D01*
X159760000Y-79914801D01*
X160183688Y-79491114D01*
X160212687Y-79467315D01*
X160307660Y-79351590D01*
X160378232Y-79219561D01*
X160421689Y-79076300D01*
X160432686Y-78964647D01*
X160432686Y-78964639D01*
X160436362Y-78927314D01*
X160432686Y-78889989D01*
X160432686Y-78251951D01*
X161389173Y-77995661D01*
X161506240Y-77951600D01*
X161612462Y-77885548D01*
X161703756Y-77800041D01*
X161776614Y-77698367D01*
X161828238Y-77584433D01*
X161856641Y-77462616D01*
X161860734Y-77337599D01*
X161840358Y-77214186D01*
X161374484Y-75475519D01*
X161330423Y-75358452D01*
X161264370Y-75252230D01*
X161178864Y-75160936D01*
X161077190Y-75088077D01*
X160963255Y-75036454D01*
X160841439Y-75008051D01*
X160716422Y-75003958D01*
X160593009Y-75024334D01*
X159240713Y-75386681D01*
X159123646Y-75430742D01*
X159017424Y-75496794D01*
X158926130Y-75582301D01*
X158853272Y-75683975D01*
X158801648Y-75797909D01*
X158773245Y-75919726D01*
X158769152Y-76044743D01*
X158789528Y-76168156D01*
X159004651Y-76971005D01*
X158977255Y-77022258D01*
X158967140Y-77041182D01*
X158923683Y-77184443D01*
X158912686Y-77296096D01*
X158912686Y-77296106D01*
X158909010Y-77333428D01*
X158912686Y-77370751D01*
X158912687Y-78255770D01*
X158626302Y-77969385D01*
X158186929Y-76329621D01*
X158142868Y-76212554D01*
X158076815Y-76106332D01*
X157991309Y-76015038D01*
X157889635Y-75942179D01*
X157775700Y-75890556D01*
X157653884Y-75862153D01*
X157528867Y-75858060D01*
X157405454Y-75878436D01*
X157119834Y-75954968D01*
X158411004Y-74663798D01*
X158440001Y-74640001D01*
X158534974Y-74524276D01*
X158605546Y-74392247D01*
X158649003Y-74248986D01*
X158660000Y-74137333D01*
X158660000Y-74137323D01*
X158663676Y-74100000D01*
X158660000Y-74062677D01*
X158660000Y-73739590D01*
X158733340Y-73734784D01*
X159193886Y-73611381D01*
X159306139Y-73416952D01*
X158982809Y-72210270D01*
X158963491Y-72215446D01*
X158944489Y-72144530D01*
X159228155Y-72144530D01*
X159551484Y-73351212D01*
X159745913Y-73463466D01*
X160206458Y-73340063D01*
X160318643Y-73284739D01*
X160417878Y-73208593D01*
X160500352Y-73114550D01*
X160562895Y-73006224D01*
X160603102Y-72887778D01*
X160619428Y-72763764D01*
X160611247Y-72638948D01*
X160578873Y-72518126D01*
X160436081Y-71985217D01*
X160241652Y-71872964D01*
X159228155Y-72144530D01*
X158944489Y-72144530D01*
X158897750Y-71970100D01*
X158917069Y-71964924D01*
X158593740Y-70758242D01*
X158479876Y-70692502D01*
X158839085Y-70692502D01*
X159162415Y-71899184D01*
X160175912Y-71627619D01*
X160288165Y-71433190D01*
X160145373Y-70900281D01*
X160112999Y-70779459D01*
X160057675Y-70667275D01*
X159981529Y-70568039D01*
X159887486Y-70485565D01*
X159779160Y-70423023D01*
X159660714Y-70382816D01*
X159536700Y-70366490D01*
X159411884Y-70374670D01*
X158951338Y-70498073D01*
X158839085Y-70692502D01*
X158479876Y-70692502D01*
X158399311Y-70645988D01*
X158104177Y-70725069D01*
X158080164Y-70705362D01*
X151917197Y-64542395D01*
X154186289Y-64542395D01*
X154246223Y-65076726D01*
X154408802Y-65589239D01*
X154667832Y-66060413D01*
X155013447Y-66472301D01*
X155432483Y-66809215D01*
X155908979Y-67058321D01*
X156424784Y-67210130D01*
X156960253Y-67258862D01*
X157494990Y-67202659D01*
X158008625Y-67043662D01*
X158481596Y-66787928D01*
X158895887Y-66445196D01*
X159235718Y-66028523D01*
X159488144Y-65553778D01*
X159643551Y-65039045D01*
X159696020Y-64503929D01*
X159694946Y-64427005D01*
X159627556Y-63893563D01*
X159457838Y-63383370D01*
X159192254Y-62915858D01*
X158840922Y-62508836D01*
X158417223Y-62177806D01*
X157937296Y-61935377D01*
X157419421Y-61790784D01*
X156883324Y-61749533D01*
X156349424Y-61813197D01*
X155838058Y-61979350D01*
X155368704Y-62241663D01*
X154959239Y-62590145D01*
X154625259Y-63011523D01*
X154379486Y-63489746D01*
X154231281Y-64006599D01*
X154186289Y-64542395D01*
X151917197Y-64542395D01*
X151463804Y-64089003D01*
X151440001Y-64059999D01*
X151324276Y-63965026D01*
X151192247Y-63894454D01*
X151048986Y-63850997D01*
X150937333Y-63840000D01*
X150937322Y-63840000D01*
X150900000Y-63836324D01*
X150862678Y-63840000D01*
X150214802Y-63840000D01*
X142511002Y-56136201D01*
X142488805Y-56114004D01*
X142465002Y-56085000D01*
X142349277Y-55990027D01*
X142217248Y-55919455D01*
X142073987Y-55875998D01*
X141962334Y-55865001D01*
X141962323Y-55865001D01*
X141925001Y-55861325D01*
X141887679Y-55865001D01*
X135860000Y-55865001D01*
X135860000Y-55735750D01*
X135701250Y-55577000D01*
X134952000Y-55577000D01*
X134952000Y-55597000D01*
X134698000Y-55597000D01*
X134698000Y-55577000D01*
X134678000Y-55577000D01*
X134678000Y-55323000D01*
X134698000Y-55323000D01*
X134698000Y-54123750D01*
X134952000Y-54123750D01*
X134952000Y-55323000D01*
X135701250Y-55323000D01*
X135860000Y-55164250D01*
X135860000Y-54803990D01*
X143370694Y-54803990D01*
X143430628Y-55338321D01*
X143593207Y-55850834D01*
X143852237Y-56322008D01*
X144197852Y-56733896D01*
X144616888Y-57070810D01*
X145093384Y-57319916D01*
X145609189Y-57471725D01*
X146144658Y-57520457D01*
X146679395Y-57464254D01*
X147193030Y-57305257D01*
X147666001Y-57049523D01*
X148080292Y-56706791D01*
X148420123Y-56290118D01*
X148672549Y-55815373D01*
X148827956Y-55300640D01*
X148880425Y-54765524D01*
X148879351Y-54688600D01*
X148811961Y-54155158D01*
X148642243Y-53644965D01*
X148376659Y-53177453D01*
X148025327Y-52770431D01*
X147601628Y-52439401D01*
X147121701Y-52196972D01*
X146603826Y-52052379D01*
X146067729Y-52011128D01*
X145533829Y-52074792D01*
X145022463Y-52240945D01*
X144553109Y-52503258D01*
X144143644Y-52851740D01*
X143809664Y-53273118D01*
X143563891Y-53751341D01*
X143415686Y-54268194D01*
X143370694Y-54803990D01*
X135860000Y-54803990D01*
X135860000Y-54621915D01*
X135870506Y-54630537D01*
X135980820Y-54689502D01*
X136100518Y-54725812D01*
X136225000Y-54738072D01*
X138425000Y-54738072D01*
X138549482Y-54725812D01*
X138669180Y-54689502D01*
X138779494Y-54630537D01*
X138876185Y-54551185D01*
X138955537Y-54454494D01*
X139014502Y-54344180D01*
X139050812Y-54224482D01*
X139063072Y-54100000D01*
X139063072Y-51000000D01*
X139050812Y-50875518D01*
X139014502Y-50755820D01*
X138955537Y-50645506D01*
X138876185Y-50548815D01*
X138779494Y-50469463D01*
X138669180Y-50410498D01*
X138549482Y-50374188D01*
X138425000Y-50361928D01*
X136225000Y-50361928D01*
X136100518Y-50374188D01*
X135980820Y-50410498D01*
X135870506Y-50469463D01*
X135773815Y-50548815D01*
X135694463Y-50645506D01*
X135635498Y-50755820D01*
X135599188Y-50875518D01*
X135586928Y-51000000D01*
X135586928Y-54078124D01*
X135525785Y-54037270D01*
X135410223Y-53989403D01*
X135287542Y-53965000D01*
X135110750Y-53965000D01*
X134952000Y-54123750D01*
X134698000Y-54123750D01*
X134539250Y-53965000D01*
X134362458Y-53965000D01*
X134335000Y-53970462D01*
X134335000Y-49452333D01*
X134338677Y-49415000D01*
X134333510Y-49362534D01*
X134324003Y-49266014D01*
X134314595Y-49235000D01*
X134427002Y-49235000D01*
X134427002Y-49076252D01*
X134585750Y-49235000D01*
X135362542Y-49235000D01*
X135485223Y-49210597D01*
X135600785Y-49162730D01*
X135704789Y-49093237D01*
X135793237Y-49004789D01*
X135862730Y-48900785D01*
X135910597Y-48785223D01*
X135935000Y-48662542D01*
X135935000Y-47885750D01*
X135776250Y-47727000D01*
X134427000Y-47727000D01*
X134427000Y-47747000D01*
X134173000Y-47747000D01*
X134173000Y-47727000D01*
X134153000Y-47727000D01*
X134153000Y-47473000D01*
X134173000Y-47473000D01*
X134173000Y-47453000D01*
X134427000Y-47453000D01*
X134427000Y-47473000D01*
X135776250Y-47473000D01*
X135935000Y-47314250D01*
X135935000Y-46537458D01*
X135927165Y-46498068D01*
X135982952Y-46506904D01*
G04 #@! TD*
M02*
